Michroma-Regular.ufo
<glyph name="quotedbl" format="1">
  <advance width="730"/>
  <unicode hex="0022"/>
  <outline>
    <contour>
      <point x="113" y="1536" type="line"/>
      <point x="305" y="1536" type="line"/>
      <point x="273" y="1152" type="line"/>
      <point x="145" y="1152" type="line"/>
    </contour>
    <contour>
      <point x="433" y="1536" type="line"/>
      <point x="625" y="1536" type="line"/>
      <point x="593" y="1152" type="line"/>
      <point x="465" y="1152" type="line"/>
    </contour>
  </outline>
</glyph>
<glyph name="numbersign" format="1">
  <advance width="1385"/>
  <unicode hex="0023"/>
  <outline>
    <contour>
      <point x="758" y="320" type="line"/>
      <point x="449" y="320" type="line"/>
      <point x="338" y="-128" type="line"/>
      <point x="178" y="-80" type="line"/>
      <point x="277" y="320" type="line"/>
      <point x="51" y="320" type="line"/>
      <point x="51" y="480" type="line"/>
      <point x="316" y="480" type="line"/>
      <point x="412" y="864" type="line"/>
      <point x="115" y="864" type="line"/>
      <point x="115" y="1024" type="line"/>
      <point x="451" y="1024" type="line"/>
      <point x="563" y="1472" type="line"/>
      <point x="723" y="1424" type="line"/>
      <point x="623" y="1024" type="line"/>
      <point x="932" y="1024" type="line"/>
      <point x="1044" y="1472" type="line"/>
      <point x="1204" y="1424" type="line"/>
      <point x="1104" y="1024" type="line"/>
      <point x="1331" y="1024" type="line"/>
      <point x="1331" y="864" type="line"/>
      <point x="1065" y="864" type="line"/>
      <point x="969" y="480" type="line"/>
      <point x="1267" y="480" type="line"/>
      <point x="1267" y="320" type="line"/>
      <point x="930" y="320" type="line"/>
      <point x="819" y="-128" type="line"/>
      <point x="659" y="-80" type="line"/>
    </contour>
    <contour>
      <point x="488" y="480" type="line"/>
      <point x="797" y="480" type="line"/>
      <point x="893" y="864" type="line"/>
      <point x="584" y="864" type="line"/>
    </contour>
  </outline>
</glyph>
<glyph name="dollar" format="1">
  <advance width="1905"/>
  <unicode hex="0024"/>
  <outline>
    <contour>
      <point x="1818" y="424" type="curve" smooth="yes"/>
      <point x="1818" y="19.3408"/>
      <point x="1475.07" y="-33.2617"/>
      <point x="1067" y="-36" type="curve"/>
      <point x="1067" y="-128" type="line"/>
      <point x="875" y="-128" type="line"/>
      <point x="875" y="-36" type="line"/>
      <point x="794" y="-36" type="line" smooth="yes"/>
      <point x="402.987" y="-36"/>
      <point x="91" y="-5.31348"/>
      <point x="91" y="384" type="curve"/>
      <point x="283" y="384" type="line"/>
      <point x="283" y="141.955"/>
      <point x="463.707" y="127.749"/>
      <point x="697.985" y="127.749" type="curve" smooth="yes"/>
      <point x="729.143" y="127.749"/>
      <point x="761.247" y="128"/>
      <point x="794" y="128" type="curve" smooth="yes"/>
      <point x="875" y="128" type="line"/>
      <point x="875" y="704" type="line"/>
      <point x="858" y="704" type="line" smooth="yes"/>
      <point x="511.523" y="704"/>
      <point x="139.149" y="707.737"/>
      <point x="98" y="1003.5" type="curve" smooth="yes"/>
      <point x="92.667" y="1041.83"/>
      <point x="90" y="1083.33"/>
      <point x="90" y="1128" type="curve" smooth="yes"/>
      <point x="90" y="1534.35"/>
      <point x="467.358" y="1562.65"/>
      <point x="875" y="1568" type="curve"/>
      <point x="875" y="1664" type="line"/>
      <point x="1067" y="1664" type="line"/>
      <point x="1067" y="1568" type="line"/>
      <point x="1114" y="1568" type="line" smooth="yes"/>
      <point x="1504.13" y="1568"/>
      <point x="1818" y="1540.52"/>
      <point x="1818" y="1152" type="curve"/>
      <point x="1626" y="1152" type="line"/>
      <point x="1626" y="1393.89"/>
      <point x="1445.32" y="1408.26"/>
      <point x="1211.3" y="1408.26" type="curve" smooth="yes"/>
      <point x="1179.73" y="1408.26"/>
      <point x="1147.2" y="1408"/>
      <point x="1114" y="1408" type="curve" smooth="yes"/>
      <point x="1067" y="1408" type="line"/>
      <point x="1067" y="864" type="line"/>
      <point x="1122" y="864" type="line" smooth="yes"/>
      <point x="1456.85" y="864"/>
      <point x="1774.19" y="844.455"/>
      <point x="1810.5" y="554" type="curve" smooth="yes"/>
      <point x="1815.5" y="514"/>
      <point x="1818" y="470.667"/>
    </contour>
    <contour>
      <point x="875" y="1408" type="line"/>
      <point x="582.038" y="1404.36"/>
      <point x="282" y="1410.97"/>
      <point x="282" y="1128" type="curve" smooth="yes"/>
      <point x="282" y="879.852"/>
      <point x="499.011" y="863.633"/>
      <point x="745.463" y="863.633" type="curve" smooth="yes"/>
      <point x="782.522" y="863.633"/>
      <point x="820.247" y="864"/>
      <point x="858" y="864" type="curve" smooth="yes"/>
      <point x="875" y="864" type="line"/>
    </contour>
    <contour>
      <point x="1067" y="128" type="line"/>
      <point x="1358.12" y="129.854"/>
      <point x="1626" y="142.769"/>
      <point x="1626" y="424" type="curve" smooth="yes"/>
      <point x="1626" y="702.687"/>
      <point x="1410.16" y="704"/>
      <point x="1122" y="704" type="curve" smooth="yes"/>
      <point x="1067" y="704" type="line"/>
    </contour>
  </outline>
</glyph>
<glyph name="ampersand" format="1">
  <advance width="2269"/>
  <unicode hex="0026"/>
  <outline>
    <contour>
      <point x="1265.03" y="188.684" type="curve" smooth="yes"/>
      <point x="1534.61" y="188.684"/>
      <point x="1705" y="232.399"/>
      <point x="1705" y="512" type="curve" smooth="yes"/>
      <point x="1705" y="768" type="line"/>
      <point x="1897" y="768" type="line"/>
      <point x="1897" y="704" type="line" smooth="yes"/>
      <point x="1897" y="352.055"/>
      <point x="1870.5" y="122.64"/>
      <point x="1598" y="46" type="curve" smooth="yes"/>
      <point x="1440.23" y="1.62598"/>
      <point x="1253.14" y="0"/>
      <point x="1033" y="0" type="curve" smooth="yes"/>
      <point x="943.445" y="0"/>
      <point x="852.843" y="-2.21094"/>
      <point x="764.954" y="-2.21094" type="curve" smooth="yes"/>
      <point x="446.002" y="-2.21094"/>
      <point x="162.783" y="26.9082"/>
      <point x="95" y="296.5" type="curve" smooth="yes"/>
      <point x="80.333" y="354.834"/>
      <point x="73" y="426.667"/>
      <point x="73" y="512" type="curve" smooth="yes"/>
      <point x="73" y="750.48"/>
      <point x="197.916" y="960"/>
      <point x="425" y="960" type="curve"/>
      <point x="341.126" y="1015.92"/>
      <point x="265" y="1078.08"/>
      <point x="265" y="1216" type="curve" smooth="yes"/>
      <point x="265" y="1559.86"/>
      <point x="578.29" y="1568.02"/>
      <point x="918.051" y="1568.02" type="curve" smooth="yes"/>
      <point x="969" y="1568" type="line" smooth="yes"/>
      <point x="1035.63" y="1568"/>
      <point x="1102.46" y="1569.32"/>
      <point x="1167.34" y="1569.32" type="curve" smooth="yes"/>
      <point x="1442.36" y="1569.32"/>
      <point x="1682.44" y="1545.64"/>
      <point x="1724.5" y="1297.5" type="curve" smooth="yes"/>
      <point x="1732.83" y="1248.5"/>
      <point x="1737" y="1189.33"/>
      <point x="1737" y="1120" type="curve"/>
      <point x="1545" y="1120" type="line"/>
      <point x="1545" y="1375.15"/>
      <point x="1443.3" y="1402.38"/>
      <point x="1189.5" y="1406.5" type="curve" smooth="yes"/>
      <point x="1127.83" y="1407.5"/>
      <point x="1054.33" y="1408"/>
      <point x="969" y="1408" type="curve" smooth="yes"/>
      <point x="907.263" y="1408"/>
      <point x="843.57" y="1410.62"/>
      <point x="782.972" y="1410.62" type="curve" smooth="yes"/>
      <point x="606.929" y="1410.62"/>
      <point x="457" y="1388.53"/>
      <point x="457" y="1216" type="curve" smooth="yes"/>
      <point x="457" y="1110.29"/>
      <point x="541.938" y="1061.53"/>
      <point x="617" y="1024" type="curve" smooth="yes"/>
      <point x="2249" y="192" type="line"/>
      <point x="2185" y="32" type="line"/>
      <point x="585" y="833" type="line"/>
      <point x="374.578" y="833"/>
      <point x="265" y="724.6"/>
      <point x="265" y="512" type="curve" smooth="yes"/>
      <point x="265" y="224.527"/>
      <point x="474.726" y="187.575"/>
      <point x="741.654" y="187.575" type="curve" smooth="yes"/>
      <point x="834.026" y="187.575"/>
      <point x="933.248" y="192"/>
      <point x="1033" y="192" type="curve" smooth="yes"/>
      <point x="1108.8" y="192"/>
      <point x="1188.35" y="188.684"/>
    </contour>
  </outline>
</glyph>
<glyph name="quotesingle" format="1">
  <advance width="410"/>
  <unicode hex="0027"/>
  <outline>
    <contour>
      <point x="113" y="1536" type="line"/>
      <point x="305" y="1536" type="line"/>
      <point x="273" y="1152" type="line"/>
      <point x="145" y="1152" type="line"/>
    </contour>
  </outline>
</glyph>
<glyph name="parenleft" format="1">
  <advance width="660"/>
  <unicode hex="0028"/>
  <outline>
    <contour>
      <point x="292" y="768" type="curve" smooth="yes"/>
      <point x="292" y="716.834"/>
      <point x="291.348" y="666.188"/>
      <point x="291.348" y="617.015" type="curve" smooth="yes"/>
      <point x="291.348" y="331.723"/>
      <point x="313.305" y="96"/>
      <point x="612" y="96" type="curve"/>
      <point x="612" y="-64" type="line"/>
      <point x="144.736" y="-64"/>
      <point x="100" y="302.826"/>
      <point x="100" y="768.001" type="curve" smooth="yes"/>
      <point x="100" y="1230.79"/>
      <point x="147.214" y="1600"/>
      <point x="612" y="1600" type="curve"/>
      <point x="612" y="1440" type="line"/>
      <point x="313.305" y="1440"/>
      <point x="291.348" y="1204.27"/>
      <point x="291.348" y="918.981" type="curve" smooth="yes"/>
      <point x="291.348" y="869.809"/>
      <point x="292" y="819.164"/>
    </contour>
  </outline>
</glyph>
<glyph name="parenright" format="1">
  <advance width="673"/>
  <unicode hex="0029"/>
  <outline>
    <contour>
      <point x="60" y="1600" type="line"/>
      <point x="527.264" y="1600"/>
      <point x="572" y="1233.17"/>
      <point x="572" y="768" type="curve" smooth="yes"/>
      <point x="572" y="305.22"/>
      <point x="524.783" y="-64"/>
      <point x="60" y="-64" type="curve"/>
      <point x="60" y="96" type="line"/>
      <point x="358.745" y="96"/>
      <point x="380.646" y="331.961"/>
      <point x="380.646" y="617.422" type="curve" smooth="yes"/>
      <point x="380.646" y="666.468"/>
      <point x="380" y="716.977"/>
      <point x="380" y="768" type="curve" smooth="yes"/>
      <point x="380" y="819.027"/>
      <point x="380.646" y="869.538"/>
      <point x="380.646" y="918.588" type="curve" smooth="yes"/>
      <point x="380.646" y="1204.05"/>
      <point x="358.744" y="1440"/>
      <point x="60" y="1440" type="curve"/>
    </contour>
  </outline>
</glyph>
<glyph name="asterisk" format="1">
  <advance width="1230"/>
  <unicode hex="002A"/>
  <outline>
    <contour>
      <point x="326" y="384" type="line"/>
      <point x="170" y="495" type="line"/>
      <point x="534" y="896" type="line"/>
      <point x="34" y="1072" type="line"/>
      <point x="134" y="1250" type="line"/>
      <point x="566" y="992" type="line"/>
      <point x="518" y="1536" type="line"/>
      <point x="710" y="1536" type="line"/>
      <point x="662" y="992" type="line"/>
      <point x="1093" y="1250" type="line"/>
      <point x="1193" y="1072" type="line"/>
      <point x="694" y="896" type="line"/>
      <point x="1058" y="495" type="line"/>
      <point x="902" y="384" type="line"/>
      <point x="614" y="834" type="line"/>
    </contour>
  </outline>
</glyph>
<glyph name="plus" format="1">
  <advance width="1217"/>
  <unicode hex="002B"/>
  <outline>
    <contour>
      <point x="67" y="960" type="line"/>
      <point x="515" y="960" type="line"/>
      <point x="515" y="1408" type="line"/>
      <point x="707" y="1408" type="line"/>
      <point x="707" y="960" type="line"/>
      <point x="1155" y="960" type="line"/>
      <point x="1155" y="800" type="line"/>
      <point x="707" y="800" type="line"/>
      <point x="707" y="320" type="line"/>
      <point x="515" y="320" type="line"/>
      <point x="515" y="800" type="line"/>
      <point x="67" y="800" type="line"/>
    </contour>
  </outline>
</glyph>
<glyph name="comma" format="1">
  <advance width="444"/>
  <unicode hex="002C"/>
  <outline>
    <contour>
      <point x="152" y="128" type="line"/>
      <point x="344" y="128" type="line"/>
      <point x="216" y="-256" type="line"/>
      <point x="88" y="-256" type="line"/>
    </contour>
  </outline>
</glyph>
<glyph name="hyphen" format="1">
  <advance width="1175"/>
  <unicode hex="002D"/>
  <outline>
    <contour>
      <point x="202" y="672" type="line"/>
      <point x="970" y="672" type="line"/>
      <point x="970" y="512" type="line"/>
      <point x="202" y="512" type="line"/>
    </contour>
  </outline>
</glyph>
<glyph name="zero" format="1">
  <advance width="2180"/>
  <unicode hex="0030"/>
  <outline>
    <contour>
      <point x="1282" y="1568" type="line" smooth="yes"/>
      <point x="1746.2" y="1568"/>
      <point x="1967.52" y="1463.34"/>
      <point x="1981.5" y="1016" type="curve" smooth="yes"/>
      <point x="1983.83" y="941.333"/>
      <point x="1985" y="858.667"/>
      <point x="1985" y="768" type="curve" smooth="yes"/>
      <point x="1985" y="756.178" type="line" smooth="yes"/>
      <point x="1985" y="436.635"/>
      <point x="1983.75" y="169.799"/>
      <point x="1777" y="54.5" type="curve" smooth="yes"/>
      <point x="1654.13" y="-14.0273"/>
      <point x="1488.25" y="-32"/>
      <point x="1282" y="-32" type="curve" smooth="yes"/>
      <point x="897.002" y="-32" type="line" smooth="yes"/>
      <point x="434.174" y="-32"/>
      <point x="208.995" y="72.2344"/>
      <point x="197.002" y="520" type="curve" smooth="yes"/>
      <point x="195.002" y="594.667"/>
      <point x="194.002" y="677.334"/>
      <point x="194.002" y="768" type="curve" smooth="yes"/>
      <point x="194" y="792.617" type="line" smooth="yes"/>
      <point x="194" y="1107.46"/>
      <point x="196.598" y="1366.95"/>
      <point x="402.002" y="1481.5" type="curve" smooth="yes"/>
      <point x="524.878" y="1550.03"/>
      <point x="690.756" y="1568"/>
      <point x="897.002" y="1568" type="curve" smooth="yes"/>
    </contour>
    <contour>
      <point x="1282" y="128" type="line" smooth="yes"/>
      <point x="1543.59" y="128"/>
      <point x="1731.27" y="129.312"/>
      <point x="1774" y="346" type="curve" smooth="yes"/>
      <point x="1790.94" y="431.883"/>
      <point x="1793.45" y="525.854"/>
      <point x="1793.45" y="630.156" type="curve" smooth="yes"/>
      <point x="1793.45" y="674.206"/>
      <point x="1793" y="720.098"/>
      <point x="1793" y="768" type="curve" smooth="yes"/>
      <point x="1793" y="836.359"/>
      <point x="1795.42" y="905.825"/>
      <point x="1795.42" y="972.357" type="curve" smooth="yes"/>
      <point x="1795.42" y="1154.54"/>
      <point x="1777.26" y="1314.72"/>
      <point x="1641.5" y="1370" type="curve" smooth="yes"/>
      <point x="1548.68" y="1407.79"/>
      <point x="1429.25" y="1408"/>
      <point x="1286.88" y="1408" type="curve" smooth="yes"/>
      <point x="897.002" y="1408" type="line" smooth="yes"/>
      <point x="635.16" y="1408"/>
      <point x="446.772" y="1406.91"/>
      <point x="404.002" y="1190" type="curve" smooth="yes"/>
      <point x="388.002" y="1108.86"/>
      <point x="385.315" y="1020.45"/>
      <point x="385.315" y="922.983" type="curve" smooth="yes"/>
      <point x="385.315" y="873.715"/>
      <point x="386.002" y="822.132"/>
      <point x="386.002" y="768" type="curve" smooth="yes"/>
      <point x="386.002" y="699.455"/>
      <point x="383.53" y="629.595"/>
      <point x="383.53" y="562.64" type="curve" smooth="yes"/>
      <point x="383.53" y="380.913"/>
      <point x="401.739" y="220.58"/>
      <point x="537.002" y="166" type="curve" smooth="yes"/>
      <point x="630.896" y="128.112"/>
      <point x="750.665" y="128"/>
      <point x="894.416" y="128" type="curve" smooth="yes"/>
    </contour>
  </outline>
</glyph>
<glyph name="one" format="1">
  <advance width="900"/>
  <unicode hex="0031"/>
  <outline>
    <contour>
      <point x="499" y="1536" type="line"/>
      <point x="755" y="1536" type="line"/>
      <point x="755" y="0" type="line"/>
      <point x="563" y="0" type="line"/>
      <point x="563" y="1376" type="line"/>
      <point x="115" y="992" type="line"/>
      <point x="19" y="1120" type="line"/>
    </contour>
  </outline>
</glyph>
<glyph name="two" format="1">
  <advance width="1928"/>
  <unicode hex="0032"/>
  <outline>
    <contour>
      <point x="105" y="192" type="line" smooth="yes"/>
      <point x="105" y="480.994"/>
      <point x="158.97" y="679.17"/>
      <point x="425" y="704" type="curve" smooth="yes"/>
      <point x="1449" y="800" type="line"/>
      <point x="1614.68" y="813.87"/>
      <point x="1640" y="901.164"/>
      <point x="1640" y="1087" type="curve" smooth="yes"/>
      <point x="1640" y="1383.01"/>
      <point x="1451.33" y="1409.21"/>
      <point x="1183.64" y="1409.21" type="curve" smooth="yes"/>
      <point x="1126.05" y="1409.21"/>
      <point x="1064.81" y="1408"/>
      <point x="1001" y="1408" type="curve" smooth="yes"/>
      <point x="923.431" y="1408"/>
      <point x="843.492" y="1410.89"/>
      <point x="766.609" y="1410.89" type="curve" smooth="yes"/>
      <point x="524.844" y="1410.89"/>
      <point x="313.276" y="1382.27"/>
      <point x="300.5" y="1145" type="curve" smooth="yes"/>
      <point x="298.167" y="1101.67"/>
      <point x="297" y="1050.67"/>
      <point x="297" y="992" type="curve"/>
      <point x="105" y="992" type="line"/>
      <point x="105" y="1545.93"/>
      <point x="445.012" y="1568"/>
      <point x="1001" y="1568" type="curve" smooth="yes"/>
      <point x="1003.09" y="1568" type="line" smooth="yes"/>
      <point x="1473.03" y="1568"/>
      <point x="1833" y="1567.64"/>
      <point x="1833" y="1088" type="curve" smooth="yes"/>
      <point x="1833" y="822.634"/>
      <point x="1757.25" y="662.898"/>
      <point x="1513" y="640" type="curve" smooth="yes"/>
      <point x="489" y="544" type="line" smooth="yes"/>
      <point x="308.208" y="526.664"/>
      <point x="296.759" y="421.712"/>
      <point x="296.759" y="242.572" type="curve" smooth="yes"/>
      <point x="296.759" y="216.595"/>
      <point x="297" y="189.057"/>
      <point x="297" y="160" type="curve"/>
      <point x="1801" y="160" type="line"/>
      <point x="1801" y="0" type="line"/>
      <point x="105" y="0" type="line"/>
    </contour>
  </outline>
</glyph>
<glyph name="three" format="1">
  <advance width="1911"/>
  <unicode hex="0033"/>
  <outline>
    <contour>
      <point x="1205.51" y="124.45" type="curve" smooth="yes"/>
      <point x="1468.47" y="124.45"/>
      <point x="1616" y="173.059"/>
      <point x="1616" y="449" type="curve" smooth="yes"/>
      <point x="1616" y="616.818"/>
      <point x="1589" y="704"/>
      <point x="1425" y="704" type="curve" smooth="yes"/>
      <point x="721" y="704" type="line"/>
      <point x="721" y="864" type="line"/>
      <point x="1425" y="864" type="line" smooth="yes"/>
      <point x="1577.55" y="864"/>
      <point x="1616" y="931.456"/>
      <point x="1616" y="1087" type="curve" smooth="yes"/>
      <point x="1616" y="1383.01"/>
      <point x="1427.33" y="1409.21"/>
      <point x="1159.64" y="1409.21" type="curve" smooth="yes"/>
      <point x="1102.05" y="1409.21"/>
      <point x="1040.81" y="1408"/>
      <point x="977" y="1408" type="curve" smooth="yes"/>
      <point x="886.453" y="1408"/>
      <point x="781.604" y="1415.04"/>
      <point x="681.026" y="1415.04" type="curve" smooth="yes"/>
      <point x="475.99" y="1415.04"/>
      <point x="288.701" y="1385.79"/>
      <point x="276.5" y="1208" type="curve" smooth="yes"/>
      <point x="274.167" y="1174"/>
      <point x="273" y="1134"/>
      <point x="273" y="1088" type="curve"/>
      <point x="81" y="1088" type="line"/>
      <point x="81" y="1552.1"/>
      <point x="424.61" y="1568.09"/>
      <point x="875.269" y="1568.09" type="curve" smooth="yes"/>
      <point x="908.624" y="1568.09"/>
      <point x="942.566" y="1568"/>
      <point x="977" y="1568" type="curve" smooth="yes"/>
      <point x="979.095" y="1568" type="line" smooth="yes"/>
      <point x="1449.03" y="1568"/>
      <point x="1809" y="1567.64"/>
      <point x="1809" y="1088" type="curve" smooth="yes"/>
      <point x="1809" y="917.203"/>
      <point x="1766.85" y="834.505"/>
      <point x="1649" y="784" type="curve"/>
      <point x="1767.97" y="733.014"/>
      <point x="1809" y="619.93"/>
      <point x="1809" y="448" type="curve" smooth="yes"/>
      <point x="1809" y="-27.0889"/>
      <point x="1454.27" y="-32"/>
      <point x="977" y="-32" type="curve" smooth="yes"/>
      <point x="951.204" y="-32"/>
      <point x="925.705" y="-32.0371"/>
      <point x="900.539" y="-32.0371" type="curve" smooth="yes"/>
      <point x="433.275" y="-32.0371"/>
      <point x="81" y="-19.2793"/>
      <point x="81" y="480" type="curve"/>
      <point x="273" y="480" type="line"/>
      <point x="273" y="268.515"/>
      <point x="298.529" y="184.631"/>
      <point x="481.5" y="152" type="curve" smooth="yes"/>
      <point x="608.142" y="129.414"/>
      <point x="743.72" y="127.969"/>
      <point x="904.547" y="127.969" type="curve" smooth="yes"/>
      <point x="928.137" y="127.969"/>
      <point x="952.271" y="128"/>
      <point x="977" y="128" type="curve" smooth="yes"/>
      <point x="1052.14" y="128"/>
      <point x="1130.51" y="124.45"/>
    </contour>
  </outline>
</glyph>
<glyph name="four" format="1">
  <advance width="1882"/>
  <unicode hex="0034"/>
  <outline>
    <contour>
      <point x="1589" y="320" type="line"/>
      <point x="1589" y="0" type="line"/>
      <point x="1397" y="0" type="line"/>
      <point x="1397" y="320" type="line"/>
      <point x="53" y="320" type="line"/>
      <point x="53" y="512" type="line"/>
      <point x="1333" y="1536" type="line"/>
      <point x="1589" y="1536" type="line"/>
      <point x="1589" y="480" type="line"/>
      <point x="1845" y="480" type="line"/>
      <point x="1845" y="320" type="line"/>
    </contour>
    <contour>
      <point x="1397" y="480" type="line"/>
      <point x="1397" y="1408" type="line"/>
      <point x="245" y="480" type="line"/>
    </contour>
  </outline>
</glyph>
<glyph name="five" format="1">
  <advance width="1943"/>
  <unicode hex="0035"/>
  <outline>
    <contour>
      <point x="320" y="896" type="line"/>
      <point x="381.265" y="1018.53"/>
      <point x="576.469" y="1056"/>
      <point x="768" y="1056" type="curve" smooth="yes"/>
      <point x="1280" y="1056" type="line" smooth="yes"/>
      <point x="1617.43" y="1056"/>
      <point x="1821.27" y="992.507"/>
      <point x="1849" y="685.5" type="curve" smooth="yes"/>
      <point x="1853.67" y="633.833"/>
      <point x="1856" y="576"/>
      <point x="1856" y="512" type="curve" smooth="yes"/>
      <point x="1856" y="2.31641"/>
      <point x="1536.31" y="-32"/>
      <point x="1024" y="-32" type="curve" smooth="yes"/>
      <point x="998.204" y="-32"/>
      <point x="972.705" y="-32.0371"/>
      <point x="947.539" y="-32.0371" type="curve" smooth="yes"/>
      <point x="480.275" y="-32.0371"/>
      <point x="128" y="-19.2793"/>
      <point x="128" y="480" type="curve"/>
      <point x="320" y="480" type="line"/>
      <point x="320" y="268.161"/>
      <point x="344.896" y="184.744"/>
      <point x="528.5" y="152" type="curve" smooth="yes"/>
      <point x="655.142" y="129.414"/>
      <point x="790.72" y="127.969"/>
      <point x="951.547" y="127.969" type="curve" smooth="yes"/>
      <point x="975.137" y="127.969"/>
      <point x="999.271" y="128"/>
      <point x="1024" y="128" type="curve" smooth="yes"/>
      <point x="1087.43" y="128"/>
      <point x="1150.51" y="126.331"/>
      <point x="1210.92" y="126.331" type="curve" smooth="yes"/>
      <point x="1430.4" y="126.331"/>
      <point x="1614.6" y="148.36"/>
      <point x="1652" y="352.5" type="curve" smooth="yes"/>
      <point x="1660" y="396.167"/>
      <point x="1664" y="449.667"/>
      <point x="1664" y="513" type="curve" smooth="yes"/>
      <point x="1664" y="721.984"/>
      <point x="1648.42" y="856.253"/>
      <point x="1475" y="884" type="curve" smooth="yes"/>
      <point x="1425" y="892"/>
      <point x="1360" y="896"/>
      <point x="1280" y="896" type="curve" smooth="yes"/>
      <point x="768" y="896" type="line" smooth="yes"/>
      <point x="553.46" y="896"/>
      <point x="370.331" y="886.993"/>
      <point x="320" y="736" type="curve"/>
      <point x="128" y="736" type="line"/>
      <point x="128" y="1536" type="line"/>
      <point x="1792" y="1536" type="line"/>
      <point x="1792" y="1376" type="line"/>
      <point x="320" y="1376" type="line"/>
    </contour>
  </outline>
</glyph>
<glyph name="six" format="1">
  <advance width="2074"/>
  <unicode hex="0036"/>
  <outline>
    <contour>
      <point x="1938" y="448" type="curve" smooth="yes"/>
      <point x="1938" y="35.6455"/>
      <point x="1660.02" y="-32"/>
      <point x="1235" y="-32" type="curve" smooth="yes"/>
      <point x="914" y="-32" type="line" smooth="yes"/>
      <point x="449.602" y="-32"/>
      <point x="227.488" y="72.3711"/>
      <point x="213.5" y="520" type="curve" smooth="yes"/>
      <point x="211.167" y="594.667"/>
      <point x="210" y="677.334"/>
      <point x="210" y="768" type="curve" smooth="yes"/>
      <point x="210" y="1116.99"/>
      <point x="211.494" y="1381.23"/>
      <point x="456.5" y="1488.5" type="curve" smooth="yes"/>
      <point x="608.252" y="1554.94"/>
      <point x="803.729" y="1568"/>
      <point x="1042" y="1568" type="curve" smooth="yes"/>
      <point x="1476.85" y="1568"/>
      <point x="1873" y="1551"/>
      <point x="1873" y="1120" type="curve"/>
      <point x="1714" y="1120" type="line"/>
      <point x="1714" y="1396.81"/>
      <point x="1408.56" y="1408.09"/>
      <point x="1118.6" y="1408.09" type="curve" smooth="yes"/>
      <point x="1092.87" y="1408.09"/>
      <point x="1067.26" y="1408"/>
      <point x="1042" y="1408" type="curve" smooth="yes"/>
      <point x="985.195" y="1408"/>
      <point x="928.581" y="1409.17"/>
      <point x="873.925" y="1409.17" type="curve" smooth="yes"/>
      <point x="663.402" y="1409.17"/>
      <point x="481.931" y="1391.78"/>
      <point x="430.5" y="1223" type="curve" smooth="yes"/>
      <point x="404.491" y="1137.64"/>
      <point x="401.822" y="1037.83"/>
      <point x="401.822" y="923.497" type="curve" smooth="yes"/>
      <point x="401.822" y="893.968"/>
      <point x="402" y="863.47"/>
      <point x="402" y="832" type="curve"/>
      <point x="526.491" y="907.014"/>
      <point x="697.716" y="928"/>
      <point x="914" y="928" type="curve" smooth="yes"/>
      <point x="1235" y="928" type="line" smooth="yes"/>
      <point x="1660.04" y="928"/>
      <point x="1938" y="860.377"/>
    </contour>
    <contour>
      <point x="914" y="768" type="line" smooth="yes"/>
      <point x="862.861" y="768"/>
      <point x="812.862" y="769.183"/>
      <point x="765.381" y="769.183" type="curve" smooth="yes"/>
      <point x="560.184" y="769.183"/>
      <point x="402" y="747.094"/>
      <point x="402" y="512" type="curve" smooth="yes"/>
      <point x="402" y="169.05"/>
      <point x="566.999" y="128"/>
      <point x="914" y="128" type="curve" smooth="yes"/>
      <point x="1235" y="128" type="line" smooth="yes"/>
      <point x="1246.97" y="128"/>
      <point x="1258.92" y="127.986"/>
      <point x="1270.82" y="127.986" type="curve" smooth="yes"/>
      <point x="1500.99" y="127.986"/>
      <point x="1712.36" y="132.963"/>
      <point x="1739.5" y="335.5" type="curve" smooth="yes"/>
      <point x="1743.83" y="367.833"/>
      <point x="1746" y="405.333"/>
      <point x="1746" y="448" type="curve" smooth="yes"/>
      <point x="1746" y="758.979"/>
      <point x="1548.71" y="768"/>
      <point x="1235" y="768" type="curve" smooth="yes"/>
    </contour>
  </outline>
</glyph>
<glyph name="seven" format="1">
  <advance width="1820"/>
  <unicode hex="0037"/>
  <outline>
    <contour>
      <point x="625" y="0" type="line"/>
      <point x="369" y="0" type="line"/>
      <point x="1553" y="1376" type="line"/>
      <point x="49" y="1376" type="line"/>
      <point x="49" y="1536" type="line"/>
      <point x="1777" y="1536" type="line"/>
      <point x="1777" y="1344" type="line"/>
    </contour>
  </outline>
</glyph>
<glyph name="eight" format="1">
  <advance width="2095"/>
  <unicode hex="0038"/>
  <outline>
    <contour>
      <point x="215" y="1152" type="curve" smooth="yes"/>
      <point x="215" y="1526.11"/>
      <point x="527.553" y="1568"/>
      <point x="918" y="1568" type="curve" smooth="yes"/>
      <point x="1176" y="1568" type="line" smooth="yes"/>
      <point x="1566.49" y="1568"/>
      <point x="1879" y="1526.13"/>
      <point x="1879" y="1152" type="curve" smooth="yes"/>
      <point x="1879" y="962.068"/>
      <point x="1796.82" y="868.92"/>
      <point x="1655" y="816" type="curve"/>
      <point x="1818.09" y="755.913"/>
      <point x="1911" y="649.584"/>
      <point x="1911" y="432" type="curve" smooth="yes"/>
      <point x="1911" y="29.5234"/>
      <point x="1613.05" y="-32"/>
      <point x="1207" y="-32" type="curve" smooth="yes"/>
      <point x="886" y="-32" type="line" smooth="yes"/>
      <point x="472.655" y="-32"/>
      <point x="183" y="33.0518"/>
      <point x="183" y="432" type="curve" smooth="yes"/>
      <point x="183" y="650.093"/>
      <point x="275.015" y="756.369"/>
      <point x="439" y="816" type="curve"/>
      <point x="296.636" y="869.121"/>
      <point x="215" y="961.412"/>
    </contour>
    <contour>
      <point x="1207" y="128" type="line" smooth="yes"/>
      <point x="1506.13" y="128"/>
      <point x="1719" y="129.895"/>
      <point x="1719" y="432" type="curve" smooth="yes"/>
      <point x="1719" y="726.472"/>
      <point x="1504.37" y="736"/>
      <point x="1207" y="736" type="curve" smooth="yes"/>
      <point x="886" y="736" type="line" smooth="yes"/>
      <point x="648.497" y="736"/>
      <point x="411.188" y="735.754"/>
      <point x="381.5" y="532.5" type="curve" smooth="yes"/>
      <point x="377.167" y="502.833"/>
      <point x="375" y="469.333"/>
      <point x="375" y="432" type="curve" smooth="yes"/>
      <point x="375" y="135.325"/>
      <point x="586.443" y="128"/>
      <point x="886" y="128" type="curve" smooth="yes"/>
    </contour>
    <contour>
      <point x="816.244" y="1408.39" type="curve" smooth="yes"/>
      <point x="576.461" y="1408.39"/>
      <point x="407" y="1390.64"/>
      <point x="407" y="1152" type="curve" smooth="yes"/>
      <point x="407" y="908.987"/>
      <point x="594.352" y="895.805"/>
      <point x="830.052" y="895.805" type="curve" smooth="yes"/>
      <point x="858.735" y="895.805"/>
      <point x="888.135" y="896"/>
      <point x="918" y="896" type="curve" smooth="yes"/>
      <point x="1207" y="896" type="line" smooth="yes"/>
      <point x="1232.96" y="896"/>
      <point x="1258.3" y="895.874"/>
      <point x="1282.92" y="895.874" type="curve" smooth="yes"/>
      <point x="1518.58" y="895.874"/>
      <point x="1687" y="907.437"/>
      <point x="1687" y="1152" type="curve" smooth="yes"/>
      <point x="1687" y="1396.71"/>
      <point x="1490.16" y="1408.12"/>
      <point x="1250.22" y="1408.12" type="curve" smooth="yes"/>
      <point x="1225.55" y="1408.12"/>
      <point x="1200.42" y="1408"/>
      <point x="1175" y="1408" type="curve" smooth="yes"/>
      <point x="918" y="1408" type="line" smooth="yes"/>
      <point x="884.695" y="1408"/>
      <point x="850.457" y="1408.39"/>
    </contour>
  </outline>
</glyph>
<glyph name="nine" format="1">
  <advance width="1906"/>
  <unicode hex="0039"/>
  <outline>
    <contour>
      <point x="76" y="1088" type="curve" smooth="yes"/>
      <point x="76" y="1500.35"/>
      <point x="353.982" y="1568"/>
      <point x="779" y="1568" type="curve" smooth="yes"/>
      <point x="1100" y="1568" type="line" smooth="yes"/>
      <point x="1564.4" y="1568"/>
      <point x="1786.51" y="1463.63"/>
      <point x="1800.5" y="1016" type="curve" smooth="yes"/>
      <point x="1802.83" y="941.333"/>
      <point x="1804" y="858.667"/>
      <point x="1804" y="768" type="curve" smooth="yes"/>
      <point x="1804" y="419.006"/>
      <point x="1802.51" y="154.773"/>
      <point x="1557.5" y="47.5" type="curve" smooth="yes"/>
      <point x="1405.75" y="-18.9424"/>
      <point x="1210.27" y="-32"/>
      <point x="971.998" y="-32" type="curve" smooth="yes"/>
      <point x="537.163" y="-32"/>
      <point x="141" y="-14.9941"/>
      <point x="141" y="416" type="curve"/>
      <point x="300" y="416" type="line"/>
      <point x="300" y="139.004"/>
      <point x="606.517" y="127.916"/>
      <point x="896.795" y="127.916" type="curve" smooth="yes"/>
      <point x="922.057" y="127.916"/>
      <point x="947.196" y="128"/>
      <point x="972" y="128" type="curve" smooth="yes"/>
      <point x="1028.81" y="128"/>
      <point x="1085.42" y="126.827"/>
      <point x="1140.08" y="126.827" type="curve" smooth="yes"/>
      <point x="1350.6" y="126.827"/>
      <point x="1532.08" y="144.222"/>
      <point x="1583.5" y="313" type="curve" smooth="yes"/>
      <point x="1609.51" y="398.362"/>
      <point x="1612.18" y="498.167"/>
      <point x="1612.18" y="612.501" type="curve" smooth="yes"/>
      <point x="1612.18" y="642.031"/>
      <point x="1612" y="672.53"/>
      <point x="1612" y="704" type="curve"/>
      <point x="1487.51" y="628.981"/>
      <point x="1316.28" y="608"/>
      <point x="1100" y="608" type="curve" smooth="yes"/>
      <point x="779" y="608" type="line" smooth="yes"/>
      <point x="353.955" y="608"/>
      <point x="76" y="675.623"/>
    </contour>
    <contour>
      <point x="1100" y="768" type="line" smooth="yes"/>
      <point x="1152.91" y="768"/>
      <point x="1203.93" y="766.84"/>
      <point x="1251.9" y="766.84" type="curve" smooth="yes"/>
      <point x="1460.72" y="766.84"/>
      <point x="1612" y="788.811"/>
      <point x="1612" y="1024" type="curve" smooth="yes"/>
      <point x="1612" y="1255.65"/>
      <point x="1557.59" y="1362.91"/>
      <point x="1357" y="1393" type="curve" smooth="yes"/>
      <point x="1290.33" y="1403"/>
      <point x="1204.66" y="1408"/>
      <point x="1100" y="1408" type="curve" smooth="yes"/>
      <point x="779" y="1408" type="line"/>
      <point x="743.184" y="1408.01" type="line" smooth="yes"/>
      <point x="513.009" y="1408.01"/>
      <point x="301.645" y="1403.04"/>
      <point x="274.5" y="1200.5" type="curve" smooth="yes"/>
      <point x="270.167" y="1168.17"/>
      <point x="268" y="1130.67"/>
      <point x="268" y="1088" type="curve" smooth="yes"/>
      <point x="268" y="777.021"/>
      <point x="465.295" y="768"/>
      <point x="779" y="768" type="curve" smooth="yes"/>
    </contour>
  </outline>
</glyph>
<glyph name="colon" format="1">
  <advance width="452"/>
  <unicode hex="003A"/>
  <outline>
    <contour>
      <point x="325" y="768" type="line"/>
      <point x="133" y="768" type="line"/>
      <point x="133" y="960" type="line"/>
      <point x="325" y="960" type="line"/>
    </contour>
    <contour>
      <point x="325" y="192" type="line"/>
      <point x="133" y="192" type="line"/>
      <point x="133" y="384" type="line"/>
      <point x="325" y="384" type="line"/>
    </contour>
  </outline>
</glyph>
<glyph name="semicolon" format="1">
  <advance width="480"/>
  <unicode hex="003B"/>
  <outline>
    <contour>
      <point x="173" y="512" type="line"/>
      <point x="365" y="512" type="line"/>
      <point x="237" y="128" type="line"/>
      <point x="109" y="128" type="line"/>
    </contour>
    <contour>
      <point x="365" y="768" type="line"/>
      <point x="173" y="768" type="line"/>
      <point x="173" y="960" type="line"/>
      <point x="365" y="960" type="line"/>
    </contour>
  </outline>
</glyph>
<glyph name="less" format="1">
  <advance width="1060"/>
  <unicode hex="003C"/>
  <outline>
    <contour>
      <point x="960" y="1472" type="line"/>
      <point x="960" y="1216" type="line"/>
      <point x="208" y="832" type="line"/>
      <point x="960" y="448" type="line"/>
      <point x="960" y="192" type="line"/>
      <point x="64" y="736" type="line"/>
      <point x="64" y="928" type="line"/>
    </contour>
  </outline>
</glyph>
<glyph name="equal" format="1">
  <advance width="1623"/>
  <unicode hex="003D"/>
  <outline>
    <contour>
      <point x="202" y="1024" type="line"/>
      <point x="1418" y="1024" type="line"/>
      <point x="1418" y="864" type="line"/>
      <point x="202" y="864" type="line"/>
    </contour>
    <contour>
      <point x="202" y="480" type="line"/>
      <point x="1418" y="480" type="line"/>
      <point x="1418" y="320" type="line"/>
      <point x="202" y="320" type="line"/>
    </contour>
  </outline>
</glyph>
<glyph name="greater" format="1">
  <advance width="1064"/>
  <unicode hex="003E"/>
  <outline>
    <contour>
      <point x="1004" y="928" type="line"/>
      <point x="1004" y="736" type="line"/>
      <point x="108" y="192" type="line"/>
      <point x="108" y="448" type="line"/>
      <point x="860" y="832" type="line"/>
      <point x="108" y="1216" type="line"/>
      <point x="108" y="1472" type="line"/>
    </contour>
  </outline>
</glyph>
<glyph name="question" format="1">
  <advance width="1708"/>
  <unicode hex="003F"/>
  <outline>
    <contour>
      <point x="1638" y="1153" type="curve" smooth="yes"/>
      <point x="1638" y="874.849"/>
      <point x="1472.97" y="736"/>
      <point x="1190" y="736" type="curve" smooth="yes"/>
      <point x="940.926" y="736"/>
      <point x="815.766" y="703.731"/>
      <point x="808" y="463" type="curve" smooth="yes"/>
      <point x="806.667" y="421.667"/>
      <point x="806" y="374.333"/>
      <point x="806" y="321" type="curve"/>
      <point x="614" y="321" type="line"/>
      <point x="614" y="387" type="line" smooth="yes"/>
      <point x="614" y="759.173"/>
      <point x="748.82" y="896"/>
      <point x="1126" y="896" type="curve" smooth="yes"/>
      <point x="1333.61" y="896"/>
      <point x="1445" y="942.116"/>
      <point x="1445" y="1152" type="curve" smooth="yes"/>
      <point x="1445" y="1390.23"/>
      <point x="1283.57" y="1408.61"/>
      <point x="1061.22" y="1408.61" type="curve" smooth="yes"/>
      <point x="1020.64" y="1408.61"/>
      <point x="978.028" y="1408"/>
      <point x="934" y="1408" type="curve" smooth="yes"/>
      <point x="844.117" y="1408"/>
      <point x="734.648" y="1415.85"/>
      <point x="629.184" y="1415.85" type="curve" smooth="yes"/>
      <point x="430.552" y="1415.85"/>
      <point x="246.125" y="1388.01"/>
      <point x="233.5" y="1227.5" type="curve" smooth="yes"/>
      <point x="231.167" y="1197.83"/>
      <point x="230" y="1162.66"/>
      <point x="230" y="1122" type="curve"/>
      <point x="38" y="1122" type="line"/>
      <point x="38" y="1546.68"/>
      <point x="378.927" y="1568.28"/>
      <point x="791.515" y="1568.28" type="curve" smooth="yes"/>
      <point x="838.222" y="1568.28"/>
      <point x="885.847" y="1568"/>
      <point x="934" y="1568" type="curve" smooth="yes"/>
      <point x="1331.01" y="1568"/>
      <point x="1638" y="1551.53"/>
    </contour>
    <contour>
      <point x="806" y="0" type="line"/>
      <point x="614" y="0" type="line"/>
      <point x="614" y="192" type="line"/>
      <point x="806" y="192" type="line"/>
    </contour>
  </outline>
</glyph>
<glyph name="at" format="1">
  <advance width="2151"/>
  <unicode hex="0040"/>
  <outline>
    <contour>
      <point x="1464" y="573" type="curve" smooth="yes"/>
      <point x="1464" y="838.225"/>
      <point x="1341.91" y="864"/>
      <point x="1077" y="864" type="curve" smooth="yes"/>
      <point x="1046.29" y="864"/>
      <point x="1016.06" y="864.375"/>
      <point x="986.787" y="864.375" type="curve" smooth="yes"/>
      <point x="818.866" y="864.375"/>
      <point x="682.439" y="852.05"/>
      <point x="668" y="686" type="curve" smooth="yes"/>
      <point x="665.333" y="655.333"/>
      <point x="664" y="618.667"/>
      <point x="664" y="576" type="curve" smooth="yes"/>
      <point x="664" y="364.137"/>
      <point x="710.507" y="301.974"/>
      <point x="914" y="291.5" type="curve" smooth="yes"/>
      <point x="959.333" y="289.167"/>
      <point x="1013.67" y="288"/>
      <point x="1077" y="288" type="curve" smooth="yes"/>
      <point x="1338.87" y="288"/>
      <point x="1464" y="310.876"/>
    </contour>
    <contour>
      <point x="1751" y="288" type="curve" smooth="yes"/>
      <point x="1876.95" y="288"/>
      <point x="1880" y="352.604"/>
      <point x="1880" y="480" type="curve" smooth="yes"/>
      <point x="1880" y="768" type="line" smooth="yes"/>
      <point x="1880" y="1212.81"/>
      <point x="1574.98" y="1216"/>
      <point x="1131.45" y="1216" type="curve" smooth="yes"/>
      <point x="1112" y="1216" type="line" smooth="yes"/>
      <point x="1053.97" y="1216"/>
      <point x="996.049" y="1216.72"/>
      <point x="939.38" y="1216.72" type="curve" smooth="yes"/>
      <point x="669.674" y="1216.72"/>
      <point x="428.378" y="1200.37"/>
      <point x="339.5" y="1012" type="curve" smooth="yes"/>
      <point x="286.669" y="900.03"/>
      <point x="281" y="753.247"/>
      <point x="281" y="576" type="curve" smooth="yes"/>
      <point x="281" y="245.079"/>
      <point x="321.432" y="39.6416"/>
      <point x="584" y="-26" type="curve" smooth="yes"/>
      <point x="645.333" y="-41.333"/>
      <point x="719.333" y="-51.5"/>
      <point x="806" y="-56.5" type="curve" smooth="yes"/>
      <point x="892.667" y="-61.5"/>
      <point x="1207.67" y="-64"/>
      <point x="1751" y="-64" type="curve"/>
      <point x="1751" y="-224" type="line"/>
      <point x="1112" y="-224" type="line" smooth="yes"/>
      <point x="567.251" y="-224"/>
      <point x="159.324" y="-151.728"/>
      <point x="101.5" y="328" type="curve" smooth="yes"/>
      <point x="92.5" y="402.667"/>
      <point x="88" y="485.333"/>
      <point x="88" y="576" type="curve" smooth="yes"/>
      <point x="88" y="975.379"/>
      <point x="144.664" y="1215.47"/>
      <point x="448.5" y="1310.5" type="curve" smooth="yes"/>
      <point x="631.327" y="1367.68"/>
      <point x="852.142" y="1376"/>
      <point x="1112" y="1376" type="curve" smooth="yes"/>
      <point x="1493.73" y="1376"/>
      <point x="1849.04" y="1353.96"/>
      <point x="1993.5" y="1124.5" type="curve" smooth="yes"/>
      <point x="2021.83" y="1079.5"/>
      <point x="2048" y="864.666"/>
      <point x="2072" y="480" type="curve"/>
      <point x="2072" y="224.854"/>
      <point x="2007.19" y="128"/>
      <point x="1751" y="128" type="curve" smooth="yes"/>
      <point x="1611.95" y="128"/>
      <point x="1527" y="187.356"/>
      <point x="1527" y="320" type="curve"/>
      <point x="1463.32" y="182.443"/>
      <point x="1284.01" y="128"/>
      <point x="1077" y="128" type="curve" smooth="yes"/>
      <point x="764.062" y="128"/>
      <point x="520.249" y="152.256"/>
      <point x="481.5" y="423.5" type="curve" smooth="yes"/>
      <point x="475.167" y="467.833"/>
      <point x="472" y="518.666"/>
      <point x="472" y="575.998" type="curve" smooth="yes"/>
      <point x="472" y="969.663"/>
      <point x="679.173" y="1024"/>
      <point x="1077" y="1024" type="curve" smooth="yes"/>
      <point x="1251.71" y="1024"/>
      <point x="1409.93" y="979.856"/>
      <point x="1464" y="864" type="curve"/>
      <point x="1464" y="992" type="line"/>
      <point x="1656" y="992" type="line"/>
      <point x="1656" y="480" type="line" smooth="yes"/>
      <point x="1656" y="462.569"/>
      <point x="1655.74" y="445.771"/>
      <point x="1655.74" y="429.853" type="curve" smooth="yes"/>
      <point x="1655.74" y="346.986"/>
      <point x="1662.84" y="288"/>
    </contour>
  </outline>
</glyph>
<glyph name="A" format="1">
  <advance width="2191"/>
  <unicode hex="0041"/>
  <outline>
    <contour>
      <point x="1704" y="352" type="line"/>
      <point x="488" y="352" type="line"/>
      <point x="296" y="0" type="line"/>
      <point x="72" y="0" type="line"/>
      <point x="968" y="1536" type="line"/>
      <point x="1224" y="1536" type="line"/>
      <point x="2120" y="0" type="line"/>
      <point x="1896" y="0" type="line"/>
    </contour>
    <contour>
      <point x="1608" y="512" type="line"/>
      <point x="1096" y="1408" type="line"/>
      <point x="584" y="512" type="line"/>
    </contour>
  </outline>
</glyph>
<glyph name="B" format="1">
  <advance width="2036"/>
  <unicode hex="0042"/>
  <outline>
    <contour>
      <point x="1619" y="832" type="curve"/>
      <point x="1818.09" y="820.939"/>
      <point x="1939" y="692.919"/>
      <point x="1939" y="478" type="curve" smooth="yes"/>
      <point x="1939" y="65.0996"/>
      <point x="1715.46" y="0"/>
      <point x="1298" y="0" type="curve" smooth="yes"/>
      <point x="147" y="0" type="line"/>
      <point x="147" y="1536" type="line"/>
      <point x="1428" y="1536" type="line" smooth="yes"/>
      <point x="1728.33" y="1536"/>
      <point x="1875" y="1467.33"/>
      <point x="1875" y="1174" type="curve" smooth="yes"/>
      <point x="1875" y="982.681"/>
      <point x="1792" y="844.002"/>
    </contour>
    <contour>
      <point x="1234" y="160" type="line" smooth="yes"/>
      <point x="1276.67" y="160"/>
      <point x="1319.1" y="159.272"/>
      <point x="1360.21" y="159.272" type="curve" smooth="yes"/>
      <point x="1552.18" y="159.272"/>
      <point x="1715.31" y="175.133"/>
      <point x="1740" y="355" type="curve" smooth="yes"/>
      <point x="1744.67" y="389"/>
      <point x="1747" y="430"/>
      <point x="1747" y="478" type="curve" smooth="yes"/>
      <point x="1747" y="719.096"/>
      <point x="1579.12" y="736.495"/>
      <point x="1352.92" y="736.495" type="curve" smooth="yes"/>
      <point x="1314.77" y="736.495"/>
      <point x="1274.95" y="736"/>
      <point x="1234" y="736" type="curve" smooth="yes"/>
      <point x="339" y="736" type="line"/>
      <point x="339" y="160" type="line"/>
    </contour>
    <contour>
      <point x="1312.16" y="895.796" type="curve" smooth="yes"/>
      <point x="1554.1" y="895.796"/>
      <point x="1683" y="922.274"/>
      <point x="1683" y="1174" type="curve" smooth="yes"/>
      <point x="1683" y="1369.13"/>
      <point x="1561.86" y="1376"/>
      <point x="1364" y="1376" type="curve" smooth="yes"/>
      <point x="339" y="1376" type="line"/>
      <point x="339" y="896" type="line"/>
      <point x="1234" y="896" type="line" smooth="yes"/>
      <point x="1260.26" y="896"/>
      <point x="1286.43" y="895.796"/>
    </contour>
  </outline>
</glyph>
<glyph name="D" format="1">
  <advance width="2117"/>
  <unicode hex="0044"/>
  <outline>
    <contour>
      <point x="1298" y="160" type="line" smooth="yes"/>
      <point x="1305.35" y="160"/>
      <point x="1312.65" y="159.997"/>
      <point x="1319.89" y="159.997" type="curve" smooth="yes"/>
      <point x="1565.06" y="159.997"/>
      <point x="1747.77" y="162.918"/>
      <point x="1791.5" y="366.5" type="curve" smooth="yes"/>
      <point x="1808.88" y="447.398"/>
      <point x="1811.46" y="536.807"/>
      <point x="1811.46" y="636.166" type="curve" smooth="yes"/>
      <point x="1811.46" y="678.286"/>
      <point x="1811" y="722.193"/>
      <point x="1811" y="768" type="curve" smooth="yes"/>
      <point x="1811" y="829.74"/>
      <point x="1812.89" y="891.963"/>
      <point x="1812.89" y="951.665" type="curve" smooth="yes"/>
      <point x="1812.89" y="1131.57"/>
      <point x="1795.73" y="1288.59"/>
      <point x="1658" y="1340.5" type="curve" smooth="yes"/>
      <point x="1565.19" y="1375.51"/>
      <point x="1449.04" y="1376"/>
      <point x="1310.21" y="1376" type="curve" smooth="yes"/>
      <point x="339" y="1376" type="line"/>
      <point x="339" y="160" type="line"/>
    </contour>
    <contour>
      <point x="147" y="0" type="line"/>
      <point x="147" y="1536" type="line"/>
      <point x="1298" y="1536" type="line" smooth="yes"/>
      <point x="1752.89" y="1536"/>
      <point x="1985.26" y="1443.86"/>
      <point x="1999.5" y="1006.5" type="curve" smooth="yes"/>
      <point x="2001.83" y="934.833"/>
      <point x="2003" y="855.333"/>
      <point x="2003" y="768" type="curve" smooth="yes"/>
      <point x="2003" y="449.562"/>
      <point x="2002" y="194.556"/>
      <point x="1793.5" y="83" type="curve" smooth="yes"/>
      <point x="1669.27" y="16.5352"/>
      <point x="1503.77" y="0"/>
      <point x="1298" y="0" type="curve" smooth="yes"/>
    </contour>
  </outline>
</glyph>
<glyph name="E" format="1">
  <advance width="1773"/>
  <unicode hex="0045"/>
  <outline>
    <contour>
      <point x="147" y="0" type="line"/>
      <point x="147" y="1536" type="line"/>
      <point x="1683" y="1536" type="line"/>
      <point x="1683" y="1376" type="line"/>
      <point x="339" y="1376" type="line"/>
      <point x="339" y="864" type="line"/>
      <point x="1619" y="864" type="line"/>
      <point x="1619" y="704" type="line"/>
      <point x="339" y="704" type="line"/>
      <point x="339" y="160" type="line"/>
      <point x="1683" y="160" type="line"/>
      <point x="1683" y="0" type="line"/>
    </contour>
  </outline>
</glyph>
<glyph name="F" format="1">
  <advance width="1675"/>
  <unicode hex="0046"/>
  <outline>
    <contour>
      <point x="147" y="0" type="line"/>
      <point x="147" y="1536" type="line"/>
      <point x="1619" y="1536" type="line"/>
      <point x="1619" y="1376" type="line"/>
      <point x="339" y="1376" type="line"/>
      <point x="339" y="864" type="line"/>
      <point x="1555" y="864" type="line"/>
      <point x="1555" y="704" type="line"/>
      <point x="339" y="704" type="line"/>
      <point x="339" y="0" type="line"/>
    </contour>
  </outline>
</glyph>
<glyph name="G" format="1">
  <advance width="2145"/>
  <unicode hex="0047"/>
  <outline>
    <contour>
      <point x="1836" y="1056" type="line"/>
      <point x="1836" y="1387.9"/>
      <point x="1657.38" y="1408"/>
      <point x="1324" y="1408" type="curve" smooth="yes"/>
      <point x="810.002" y="1408" type="line" smooth="yes"/>
      <point x="548.16" y="1408"/>
      <point x="359.772" y="1406.91"/>
      <point x="317.002" y="1190" type="curve" smooth="yes"/>
      <point x="301.002" y="1108.86"/>
      <point x="298.315" y="1020.45"/>
      <point x="298.315" y="922.983" type="curve" smooth="yes"/>
      <point x="298.315" y="873.715"/>
      <point x="299.002" y="822.132"/>
      <point x="299.002" y="768" type="curve" smooth="yes"/>
      <point x="299.002" y="699.456"/>
      <point x="296.53" y="629.598"/>
      <point x="296.53" y="562.643" type="curve" smooth="yes"/>
      <point x="296.53" y="380.914"/>
      <point x="314.739" y="220.58"/>
      <point x="450.002" y="166" type="curve" smooth="yes"/>
      <point x="543.896" y="128.112"/>
      <point x="663.665" y="128"/>
      <point x="807.416" y="128" type="curve" smooth="yes"/>
      <point x="1325" y="128" type="line" smooth="yes"/>
      <point x="1594.68" y="128"/>
      <point x="1800.7" y="131.957"/>
      <point x="1829" y="372.5" type="curve" smooth="yes"/>
      <point x="1833.67" y="412.167"/>
      <point x="1836" y="458.667"/>
      <point x="1836" y="512" type="curve" smooth="yes"/>
      <point x="1836" y="608" type="line"/>
      <point x="1066" y="608" type="line"/>
      <point x="1066" y="768" type="line"/>
      <point x="2028" y="768" type="line"/>
      <point x="2028" y="512" type="line" smooth="yes"/>
      <point x="2028" y="60.917"/>
      <point x="1780.76" y="-32"/>
      <point x="1325" y="-32" type="curve" smooth="yes"/>
      <point x="810.002" y="-32" type="line" smooth="yes"/>
      <point x="347.174" y="-32"/>
      <point x="121.995" y="72.2344"/>
      <point x="110.002" y="520" type="curve" smooth="yes"/>
      <point x="108.002" y="594.667"/>
      <point x="107.002" y="677.334"/>
      <point x="107.002" y="768" type="curve" smooth="yes"/>
      <point x="107" y="792.617" type="line" smooth="yes"/>
      <point x="107" y="1107.46"/>
      <point x="109.598" y="1366.95"/>
      <point x="315.002" y="1481.5" type="curve" smooth="yes"/>
      <point x="437.878" y="1550.03"/>
      <point x="603.756" y="1568"/>
      <point x="810.002" y="1568" type="curve" smooth="yes"/>
      <point x="1324" y="1568" type="line" smooth="yes"/>
      <point x="1760.15" y="1568"/>
      <point x="2028" y="1492.52"/>
      <point x="2028" y="1056" type="curve"/>
    </contour>
  </outline>
</glyph>
<glyph name="H" format="1">
  <advance width="2192"/>
  <unicode hex="0048"/>
  <outline>
    <contour>
      <point x="1800" y="1536" type="line"/>
      <point x="1992" y="1536" type="line"/>
      <point x="1992" y="0" type="line"/>
      <point x="1800" y="0" type="line"/>
      <point x="1800" y="704" type="line"/>
      <point x="392" y="704" type="line"/>
      <point x="392" y="0" type="line"/>
      <point x="200" y="0" type="line"/>
      <point x="200" y="1536" type="line"/>
      <point x="392" y="1536" type="line"/>
      <point x="392" y="864" type="line"/>
      <point x="1800" y="864" type="line"/>
    </contour>
  </outline>
</glyph>
<glyph name="J" format="1">
  <advance width="1632"/>
  <unicode hex="004A"/>
  <outline>
    <contour>
      <point x="1501" y="448" type="line" smooth="yes"/>
      <point x="1501" y="105.635"/>
      <point x="1334.21" y="0"/>
      <point x="989" y="0" type="curve" smooth="yes"/>
      <point x="541" y="0" type="line" smooth="yes"/>
      <point x="285.977" y="0"/>
      <point x="143.984" y="55.7227"/>
      <point x="109" y="270" type="curve" smooth="yes"/>
      <point x="98.333" y="335.333"/>
      <point x="93" y="416"/>
      <point x="93" y="512" type="curve" smooth="yes"/>
      <point x="93" y="576" type="line"/>
      <point x="285" y="576" type="line"/>
      <point x="285" y="512" type="line" smooth="yes"/>
      <point x="285" y="271.07"/>
      <point x="304.301" y="156"/>
      <point x="541" y="156" type="curve" smooth="yes"/>
      <point x="989" y="156" type="line" smooth="yes"/>
      <point x="1212.78" y="156"/>
      <point x="1309" y="226.781"/>
      <point x="1309" y="448" type="curve" smooth="yes"/>
      <point x="1309" y="1536" type="line"/>
      <point x="1501" y="1536" type="line"/>
    </contour>
  </outline>
</glyph>
<glyph name="K" format="1">
  <advance width="1918"/>
  <unicode hex="004B"/>
  <outline>
    <contour>
      <point x="1587" y="1536" type="line"/>
      <point x="1875" y="1536" type="line"/>
      <point x="937" y="784" type="line"/>
      <point x="1907" y="0" type="line"/>
      <point x="1619" y="0" type="line"/>
      <point x="745" y="704" type="line"/>
      <point x="339" y="704" type="line"/>
      <point x="339" y="0" type="line"/>
      <point x="147" y="0" type="line"/>
      <point x="147" y="1536" type="line"/>
      <point x="339" y="1536" type="line"/>
      <point x="339" y="864" type="line"/>
      <point x="745" y="864" type="line"/>
    </contour>
  </outline>
</glyph>
<glyph name="L" format="1">
  <advance width="1601"/>
  <unicode hex="004C"/>
  <outline>
    <contour>
      <point x="147" y="0" type="line"/>
      <point x="147" y="1536" type="line"/>
      <point x="339" y="1536" type="line"/>
      <point x="339" y="160" type="line"/>
      <point x="1555" y="160" type="line"/>
      <point x="1555" y="0" type="line"/>
    </contour>
  </outline>
</glyph>
<glyph name="M" format="1">
  <advance width="2816"/>
  <unicode hex="004D"/>
  <outline>
    <contour>
      <point x="392" y="1408" type="line"/>
      <point x="392" y="0" type="line"/>
      <point x="200" y="0" type="line"/>
      <point x="200" y="1536" type="line"/>
      <point x="520" y="1536" type="line"/>
      <point x="1415" y="192" type="line"/>
      <point x="2310" y="1536" type="line"/>
      <point x="2616" y="1536" type="line"/>
      <point x="2616" y="0" type="line"/>
      <point x="2424" y="0" type="line"/>
      <point x="2424" y="1387" type="line"/>
      <point x="1512" y="0" type="line"/>
      <point x="1318" y="0" type="line"/>
    </contour>
  </outline>
</glyph>
<glyph name="N" format="1">
  <advance width="2337"/>
  <unicode hex="004E"/>
  <outline>
    <contour>
      <point x="392" y="0" type="line"/>
      <point x="200" y="0" type="line"/>
      <point x="200" y="1536" type="line"/>
      <point x="503" y="1536" type="line"/>
      <point x="1945" y="192" type="line"/>
      <point x="1945" y="1536" type="line"/>
      <point x="2137" y="1536" type="line"/>
      <point x="2137" y="0" type="line"/>
      <point x="1881" y="0" type="line"/>
      <point x="392" y="1376" type="line"/>
    </contour>
  </outline>
</glyph>
<glyph name="O" format="1">
  <advance width="2241"/>
  <unicode hex="004F"/>
  <outline>
    <contour>
      <point x="831" y="-32" type="curve" smooth="yes"/>
      <point x="1410" y="-32" type="line" smooth="yes"/>
      <point x="1412.94" y="-32.0105"/>
      <point x="1415.86" y="-32.0158"/>
      <point x="1418.77" y="-32.0158" type="curve" smooth="yes"/>
      <point x="2005.55" y="-32.0158"/>
      <point x="2113.07" y="181.333"/>
      <point x="2113.07" y="760.311" type="curve" smooth="yes"/>
      <point x="2113.07" y="766.496"/>
      <point x="2113.05" y="772.723"/>
      <point x="2113.03" y="778.992" type="curve" smooth="yes"/>
      <point x="2113.03" y="1374.67"/>
      <point x="2006.37" y="1568"/>
      <point x="1410" y="1568" type="curve" smooth="yes"/>
      <point x="831" y="1568" type="line"/>
      <point x="820.73" y="1568.02" type="line"/>
      <point x="233.321" y="1568.02"/>
      <point x="127.96" y="1366.64"/>
      <point x="127.96" y="782.034" type="curve" smooth="yes"/>
      <point x="127.96" y="775.405"/>
      <point x="127.973" y="768.727"/>
      <point x="128" y="762" type="curve" smooth="yes"/>
      <point x="128" y="174"/>
      <point x="237" y="-32"/>
    </contour>
    <contour>
      <point x="826" y="1408" type="curve" smooth="yes"/>
      <point x="1415" y="1408" type="line" smooth="yes"/>
      <point x="1892" y="1408"/>
      <point x="1921" y="1224"/>
      <point x="1921" y="762" type="curve" smooth="yes"/>
      <point x="1921" y="288"/>
      <point x="1892" y="128"/>
      <point x="1410" y="128" type="curve" smooth="yes"/>
      <point x="831" y="128" type="line" smooth="yes"/>
      <point x="349" y="128"/>
      <point x="320" y="288"/>
      <point x="320" y="762" type="curve" smooth="yes"/>
      <point x="320" y="1224"/>
      <point x="349" y="1408"/>
    </contour>
  </outline>
</glyph>
<glyph name="P" format="1">
  <advance width="1969"/>
  <unicode hex="0050"/>
  <outline>
    <contour>
      <point x="1875" y="1088" type="curve" smooth="yes"/>
      <point x="1875" y="638.758"/>
      <point x="1626.12" y="608"/>
      <point x="1170" y="608" type="curve" smooth="yes"/>
      <point x="339" y="608" type="line"/>
      <point x="339" y="0" type="line"/>
      <point x="147" y="0" type="line"/>
      <point x="147" y="1536" type="line"/>
      <point x="1171" y="1536" type="line" smooth="yes"/>
      <point x="1663.4" y="1536"/>
      <point x="1875" y="1493.95"/>
    </contour>
    <contour>
      <point x="1683" y="1088" type="curve" smooth="yes"/>
      <point x="1683" y="1374.28"/>
      <point x="1530.98" y="1376"/>
      <point x="1170" y="1376" type="curve" smooth="yes"/>
      <point x="339" y="1376" type="line"/>
      <point x="339" y="768" type="line"/>
      <point x="1170" y="768" type="line" smooth="yes"/>
      <point x="1549.13" y="768"/>
      <point x="1683" y="773.16"/>
    </contour>
  </outline>
</glyph>
<glyph name="Q" format="1">
  <advance width="2248"/>
  <unicode hex="0051"/>
  <outline>
    <contour>
      <point x="2064" y="319" type="curve" smooth="yes"/>
      <point x="2089.29" y="431.52"/>
      <point x="2091.05" y="559.312"/>
      <point x="2091.05" y="699.173" type="curve" smooth="yes"/>
      <point x="2091.05" y="721.804"/>
      <point x="2091" y="744.751"/>
      <point x="2091" y="768" type="curve" smooth="yes"/>
      <point x="2091" y="779.826" type="line" smooth="yes"/>
      <point x="2091" y="1099.37"/>
      <point x="2089.74" y="1366.2"/>
      <point x="1883" y="1481.5" type="curve" smooth="yes"/>
      <point x="1760.13" y="1550.03"/>
      <point x="1594.25" y="1568"/>
      <point x="1388" y="1568" type="curve" smooth="yes"/>
      <point x="810.002" y="1568" type="line" smooth="yes"/>
      <point x="347.174" y="1568"/>
      <point x="121.995" y="1463.77"/>
      <point x="110.002" y="1016" type="curve" smooth="yes"/>
      <point x="108.002" y="941.333"/>
      <point x="107.002" y="858.667"/>
      <point x="107.002" y="768" type="curve" smooth="yes"/>
      <point x="107" y="743.383" type="line" smooth="yes"/>
      <point x="107" y="428.543"/>
      <point x="109.598" y="169.053"/>
      <point x="315.002" y="54.5" type="curve" smooth="yes"/>
      <point x="437.878" y="-14.0273"/>
      <point x="603.756" y="-32"/>
      <point x="810.002" y="-32" type="curve" smooth="yes"/>
      <point x="1388" y="-32" type="line" smooth="yes"/>
      <point x="1666.98" y="-32"/>
      <point x="1898.92" y="0.449219"/>
      <point x="2003" y="164" type="curve" smooth="yes"/>
      <point x="2004.33" y="166"/>
      <point x="2005.33" y="168"/>
      <point x="2006" y="170" type="curve"/>
      <point x="2122" y="96" type="line"/>
      <point x="2202" y="224" type="line"/>
      <point x="2063" y="313" type="line"/>
      <point x="2063.67" y="315"/>
      <point x="2064" y="317"/>
    </contour>
    <contour>
      <point x="1855" y="267" type="line"/>
      <point x="1792.71" y="128.562"/>
      <point x="1602.6" y="128"/>
      <point x="1393.14" y="128" type="curve" smooth="yes"/>
      <point x="810.002" y="128" type="line" smooth="yes"/>
      <point x="547.921" y="128"/>
      <point x="360.848" y="128.709"/>
      <point x="318.002" y="346" type="curve" smooth="yes"/>
      <point x="301.067" y="431.881"/>
      <point x="298.554" y="525.854"/>
      <point x="298.554" y="630.158" type="curve" smooth="yes"/>
      <point x="298.554" y="674.207"/>
      <point x="299.002" y="720.098"/>
      <point x="299.002" y="768" type="curve" smooth="yes"/>
      <point x="299.002" y="838.668"/>
      <point x="296.279" y="910.505"/>
      <point x="296.279" y="979.055" type="curve" smooth="yes"/>
      <point x="296.279" y="1158.54"/>
      <point x="314.942" y="1315.5"/>
      <point x="450.002" y="1370" type="curve" smooth="yes"/>
      <point x="543.896" y="1407.89"/>
      <point x="663.664" y="1408"/>
      <point x="807.415" y="1408" type="curve" smooth="yes"/>
      <point x="1388" y="1408" type="line" smooth="yes"/>
      <point x="1649.72" y="1408"/>
      <point x="1837.25" y="1406.79"/>
      <point x="1880" y="1190" type="curve" smooth="yes"/>
      <point x="1896.94" y="1104.12"/>
      <point x="1899.45" y="1010.15"/>
      <point x="1899.45" y="905.844" type="curve" smooth="yes"/>
      <point x="1899.45" y="861.794"/>
      <point x="1899" y="815.902"/>
      <point x="1899" y="768" type="curve" smooth="yes"/>
      <point x="1899" y="728.026"/>
      <point x="1899.18" y="691.691"/>
      <point x="1899.18" y="657.512" type="curve" smooth="yes"/>
      <point x="1899.18" y="574.011"/>
      <point x="1898.14" y="503.379"/>
      <point x="1891" y="424" type="curve"/>
      <point x="1306" y="800" type="line"/>
      <point x="1225" y="671" type="line"/>
    </contour>
  </outline>
</glyph>
<glyph name="R" format="1">
  <advance width="2046"/>
  <unicode hex="0052"/>
  <outline>
    <contour>
      <point x="1939" y="1088" type="curve" smooth="yes"/>
      <point x="1939" y="842.599"/>
      <point x="1875.09" y="703.963"/>
      <point x="1662" y="672" type="curve"/>
      <point x="1862.18" y="641.974"/>
      <point x="1907" y="517.01"/>
      <point x="1907" y="288" type="curve" smooth="yes"/>
      <point x="1907" y="0" type="line"/>
      <point x="1715" y="0" type="line"/>
      <point x="1715" y="288" type="line" smooth="yes"/>
      <point x="1715" y="604.403"/>
      <point x="1616.53" y="608.007"/>
      <point x="1232.56" y="608.005" type="curve" smooth="yes"/>
      <point x="339" y="608" type="line"/>
      <point x="339" y="0" type="line"/>
      <point x="147" y="0" type="line"/>
      <point x="147" y="1536" type="line"/>
      <point x="1243.09" y="1536" type="line" smooth="yes"/>
      <point x="1675.97" y="1536"/>
      <point x="1939" y="1529.45"/>
    </contour>
    <contour>
      <point x="1747" y="1088" type="curve" smooth="yes"/>
      <point x="1747" y="1375.13"/>
      <point x="1623.32" y="1376"/>
      <point x="1234" y="1376" type="curve" smooth="yes"/>
      <point x="339" y="1376" type="line"/>
      <point x="339" y="768" type="line"/>
      <point x="1234" y="768" type="line" smooth="yes"/>
      <point x="1634.99" y="768"/>
      <point x="1747" y="774.23"/>
    </contour>
  </outline>
</glyph>
<glyph name="S" format="1">
  <advance width="1938"/>
  <unicode hex="0053"/>
  <outline>
    <contour>
      <point x="932" y="1408" type="line" smooth="yes"/>
      <point x="904.456" y="1408"/>
      <point x="876.772" y="1408.11"/>
      <point x="849.19" y="1408.11" type="curve" smooth="yes"/>
      <point x="565.233" y="1408.11"/>
      <point x="292" y="1396.24"/>
      <point x="292" y="1128" type="curve" smooth="yes"/>
      <point x="292" y="879.852"/>
      <point x="509.011" y="863.633"/>
      <point x="755.463" y="863.633" type="curve" smooth="yes"/>
      <point x="792.522" y="863.633"/>
      <point x="830.247" y="864"/>
      <point x="868" y="864" type="curve" smooth="yes"/>
      <point x="1132" y="864" type="line" smooth="yes"/>
      <point x="1466.85" y="864"/>
      <point x="1784.19" y="844.455"/>
      <point x="1820.5" y="554" type="curve" smooth="yes"/>
      <point x="1825.5" y="514"/>
      <point x="1828" y="470.667"/>
      <point x="1828" y="424" type="curve" smooth="yes"/>
      <point x="1828" y="14.5771"/>
      <point x="1475.95" y="-36"/>
      <point x="1060" y="-36" type="curve" smooth="yes"/>
      <point x="804" y="-36" type="line" smooth="yes"/>
      <point x="412.987" y="-36"/>
      <point x="101" y="-5.31348"/>
      <point x="101" y="384" type="curve"/>
      <point x="293" y="384" type="line"/>
      <point x="293" y="141.955"/>
      <point x="473.707" y="127.749"/>
      <point x="707.985" y="127.749" type="curve" smooth="yes"/>
      <point x="739.143" y="127.749"/>
      <point x="771.247" y="128"/>
      <point x="804" y="128" type="curve" smooth="yes"/>
      <point x="1060" y="128" type="line" smooth="yes"/>
      <point x="1358.32" y="128"/>
      <point x="1636" y="138.377"/>
      <point x="1636" y="424" type="curve" smooth="yes"/>
      <point x="1636" y="702.687"/>
      <point x="1420.16" y="704"/>
      <point x="1132" y="704" type="curve" smooth="yes"/>
      <point x="868" y="704" type="line" smooth="yes"/>
      <point x="521.523" y="704"/>
      <point x="149.149" y="707.737"/>
      <point x="108" y="1003.5" type="curve" smooth="yes"/>
      <point x="102.667" y="1041.83"/>
      <point x="100" y="1083.33"/>
      <point x="100" y="1128" type="curve" smooth="yes"/>
      <point x="100" y="1546.86"/>
      <point x="505.592" y="1568"/>
      <point x="932" y="1568" type="curve" smooth="yes"/>
      <point x="1124" y="1568" type="line" smooth="yes"/>
      <point x="1514.13" y="1568"/>
      <point x="1828" y="1540.52"/>
      <point x="1828" y="1152" type="curve"/>
      <point x="1636" y="1152" type="line"/>
      <point x="1636" y="1393.89"/>
      <point x="1455.32" y="1408.26"/>
      <point x="1221.3" y="1408.26" type="curve" smooth="yes"/>
      <point x="1189.73" y="1408.26"/>
      <point x="1157.2" y="1408"/>
      <point x="1124" y="1408" type="curve" smooth="yes"/>
    </contour>
  </outline>
</glyph>
<glyph name="T" format="1">
  <advance width="1971"/>
  <unicode hex="0054"/>
  <outline>
    <contour>
      <point x="1848" y="1536" type="line"/>
      <point x="1848" y="1376" type="line"/>
      <point x="1080" y="1376" type="line"/>
      <point x="1080" y="0" type="line"/>
      <point x="888" y="0" type="line"/>
      <point x="888" y="1376" type="line"/>
      <point x="120" y="1376" type="line"/>
      <point x="120" y="1536" type="line"/>
    </contour>
  </outline>
</glyph>
<glyph name="U" format="1">
  <advance width="2209"/>
  <unicode hex="0055"/>
  <outline>
    <contour>
      <point x="2031" y="1536" type="line"/>
      <point x="2031" y="756.178" type="line" smooth="yes"/>
      <point x="2031" y="436.635"/>
      <point x="2029.74" y="169.799"/>
      <point x="1823" y="54.5" type="curve" smooth="yes"/>
      <point x="1700.12" y="-14.0273"/>
      <point x="1534.25" y="-32"/>
      <point x="1328" y="-32" type="curve" smooth="yes"/>
      <point x="878" y="-32" type="line" smooth="yes"/>
      <point x="415.172" y="-32"/>
      <point x="189.994" y="72.2344"/>
      <point x="178" y="520" type="curve" smooth="yes"/>
      <point x="176" y="594.667"/>
      <point x="175" y="677.334"/>
      <point x="175" y="768" type="curve" smooth="yes"/>
      <point x="175" y="1536" type="line"/>
      <point x="367" y="1536" type="line"/>
      <point x="367" y="768" type="line" smooth="yes"/>
      <point x="367" y="699.455"/>
      <point x="364.528" y="629.595"/>
      <point x="364.528" y="562.64" type="curve" smooth="yes"/>
      <point x="364.528" y="380.913"/>
      <point x="382.737" y="220.58"/>
      <point x="518" y="166" type="curve" smooth="yes"/>
      <point x="611.895" y="128.112"/>
      <point x="731.663" y="128"/>
      <point x="875.414" y="128" type="curve" smooth="yes"/>
      <point x="1328" y="128" type="line" smooth="yes"/>
      <point x="1590.44" y="128"/>
      <point x="1776.36" y="129.864"/>
      <point x="1820.5" y="346" type="curve" smooth="yes"/>
      <point x="1836.95" y="426.526"/>
      <point x="1839.73" y="514.542"/>
      <point x="1839.73" y="611.609" type="curve" smooth="yes"/>
      <point x="1839.73" y="661.298"/>
      <point x="1839" y="713.358"/>
      <point x="1839" y="768" type="curve" smooth="yes"/>
      <point x="1838" y="1536" type="line"/>
    </contour>
  </outline>
</glyph>
<glyph name="V" format="1">
  <advance width="2105"/>
  <unicode hex="0056"/>
  <outline>
    <contour>
      <point x="1788" y="1536" type="line"/>
      <point x="2012" y="1536" type="line"/>
      <point x="1180" y="0" type="line"/>
      <point x="924" y="0" type="line"/>
      <point x="92" y="1536" type="line"/>
      <point x="316" y="1536" type="line"/>
      <point x="1052" y="128" type="line"/>
    </contour>
  </outline>
</glyph>
<glyph name="W" format="1">
  <advance width="3386"/>
  <unicode hex="0057"/>
  <outline>
    <contour>
      <point x="1612" y="1536" type="line"/>
      <point x="1836" y="1536" type="line"/>
      <point x="2460" y="160" type="line"/>
      <point x="3068" y="1536" type="line"/>
      <point x="3292" y="1536" type="line"/>
      <point x="2588" y="0" type="line"/>
      <point x="2332" y="0" type="line"/>
      <point x="1724" y="1344" type="line"/>
      <point x="1116" y="0" type="line"/>
      <point x="860" y="0" type="line"/>
      <point x="92" y="1536" type="line"/>
      <point x="316" y="1536" type="line"/>
      <point x="988" y="160" type="line"/>
    </contour>
  </outline>
</glyph>
<glyph name="X" format="1">
  <advance width="2179"/>
  <unicode hex="0058"/>
  <outline>
    <contour>
      <point x="1212" y="810" type="line"/>
      <point x="2115" y="0" type="line"/>
      <point x="1843" y="0" type="line"/>
      <point x="1078" y="686" type="line"/>
      <point x="339" y="0" type="line"/>
      <point x="67" y="0" type="line"/>
      <point x="940" y="810" type="line"/>
      <point x="131" y="1536" type="line"/>
      <point x="403" y="1536" type="line"/>
      <point x="1073" y="934" type="line"/>
      <point x="1722" y="1536" type="line"/>
      <point x="1994" y="1536" type="line"/>
    </contour>
  </outline>
</glyph>
<glyph name="Y" format="1">
  <advance width="2094"/>
  <unicode hex="0059"/>
  <outline>
    <contour>
      <point x="87" y="1536" type="line"/>
      <point x="343" y="1536" type="line"/>
      <point x="1047" y="784" type="line"/>
      <point x="1751" y="1536" type="line"/>
      <point x="2007" y="1536" type="line"/>
      <point x="1143" y="640" type="line"/>
      <point x="1143" y="0" type="line"/>
      <point x="951" y="0" type="line"/>
      <point x="951" y="640" type="line"/>
    </contour>
  </outline>
</glyph>
<glyph name="Z" format="1">
  <advance width="1917"/>
  <unicode hex="005A"/>
  <outline>
    <contour>
      <point x="71" y="0" type="line"/>
      <point x="71" y="160" type="line"/>
      <point x="1557" y="1376" type="line"/>
      <point x="135" y="1376" type="line"/>
      <point x="135" y="1536" type="line"/>
      <point x="1831" y="1536" type="line"/>
      <point x="1831" y="1376" type="line"/>
      <point x="337" y="160" type="line"/>
      <point x="1863" y="160" type="line"/>
      <point x="1863" y="0" type="line"/>
    </contour>
  </outline>
</glyph>
<glyph name="bracketleft" format="1">
  <advance width="785"/>
  <unicode hex="005B"/>
  <outline>
    <contour>
      <point x="149" y="1536" type="line"/>
      <point x="725" y="1536" type="line"/>
      <point x="725" y="1376" type="line"/>
      <point x="341" y="1376" type="line"/>
      <point x="341" y="160" type="line"/>
      <point x="725" y="160" type="line"/>
      <point x="725" y="0" type="line"/>
      <point x="149" y="0" type="line"/>
    </contour>
  </outline>
</glyph>
<glyph name="backslash" format="1">
  <advance width="944"/>
  <unicode hex="005C"/>
  <outline>
    <contour>
      <point x="929" y="0" type="line"/>
      <point x="737" y="0" type="line"/>
      <point x="33" y="1536" type="line"/>
      <point x="225" y="1536" type="line"/>
    </contour>
  </outline>
</glyph>
<glyph name="bracketright" format="1">
  <advance width="792"/>
  <unicode hex="005D"/>
  <outline>
    <contour>
      <point x="647" y="0" type="line"/>
      <point x="71" y="0" type="line"/>
      <point x="71" y="160" type="line"/>
      <point x="455" y="160" type="line"/>
      <point x="455" y="1376" type="line"/>
      <point x="71" y="1376" type="line"/>
      <point x="71" y="1536" type="line"/>
      <point x="647" y="1536" type="line"/>
    </contour>
  </outline>
</glyph>
<glyph name="asciicircum" format="1">
  <advance width="1081"/>
  <unicode hex="005E"/>
  <outline>
    <contour>
      <point x="541" y="1408" type="line"/>
      <point x="189" y="896" type="line"/>
      <point x="61" y="992" type="line"/>
      <point x="445" y="1536" type="line"/>
      <point x="637" y="1536" type="line"/>
      <point x="1021" y="992" type="line"/>
      <point x="893" y="896" type="line"/>
    </contour>
  </outline>
</glyph>
<glyph name="underscore" format="1">
  <advance width="1360"/>
  <unicode hex="005F"/>
  <outline>
    <contour>
      <point x="135" y="0" type="line"/>
      <point x="1223" y="0" type="line"/>
      <point x="1223" y="-160" type="line"/>
      <point x="135" y="-160" type="line"/>
    </contour>
  </outline>
</glyph>
<glyph name="grave" format="1">
  <advance width="832"/>
  <unicode hex="0060"/>
  <outline>
    <contour>
      <point x="40" y="1664" type="line"/>
      <point x="168" y="1856" type="line"/>
      <point x="744" y="1376" type="line"/>
      <point x="680" y="1280" type="line"/>
    </contour>
  </outline>
</glyph>
<glyph name="a" format="1">
  <advance width="1559"/>
  <unicode hex="0061"/>
  <outline>
    <contour>
      <point x="153" y="852" type="line"/>
      <point x="153" y="1166.49"/>
      <point x="467.627" y="1184"/>
      <point x="795" y="1184" type="curve" smooth="yes"/>
      <point x="1267.99" y="1184"/>
      <point x="1433" y="1041.19"/>
      <point x="1433" y="625" type="curve" smooth="yes"/>
      <point x="1433" y="0" type="line"/>
      <point x="1241" y="0" type="line"/>
      <point x="1241" y="127.122" type="line"/>
      <point x="1161.97" y="23.9576"/>
      <point x="906.613" y="-24"/>
      <point x="736" y="-24" type="curve" smooth="yes"/>
      <point x="448.977" y="-24"/>
      <point x="139" y="-4.3332"/>
      <point x="139" y="312" type="curve" smooth="yes"/>
      <point x="139.001" y="647.491"/>
      <point x="430.085" y="659"/>
      <point x="766" y="659" type="curve" smooth="yes"/>
      <point x="909.469" y="659"/>
      <point x="1125.78" y="646.706"/>
      <point x="1240.53" y="617.687" type="curve"/>
      <point x="1240.01" y="657" type="line" smooth="yes"/>
      <point x="1236" y="929"/>
      <point x="1128.28" y="1024"/>
      <point x="795" y="1024" type="curve" smooth="yes"/>
      <point x="481" y="1024"/>
      <point x="345" y="1023"/>
      <point x="345" y="852" type="curve"/>
    </contour>
    <contour>
      <point x="1241" y="270" type="curve"/>
      <point x="1241" y="489.115" type="line"/>
      <point x="1241" y="489.115"/>
      <point x="986.625" y="510"/>
      <point x="766" y="510" type="curve" smooth="yes"/>
      <point x="486.322" y="510"/>
      <point x="331" y="507.592"/>
      <point x="331" y="320" type="curve" smooth="yes"/>
      <point x="331" y="131"/>
      <point x="467.862" y="127.755"/>
      <point x="736" y="127.755" type="curve" smooth="yes"/>
      <point x="1053" y="127.755"/>
      <point x="1187.84" y="213.424"/>
    </contour>
  </outline>
</glyph>
<glyph name="b" format="1">
  <advance width="1655"/>
  <unicode hex="0062"/>
  <outline>
    <contour>
      <point x="1555" y="574" type="curve" smooth="yes"/>
      <point x="1555" y="99.6533"/>
      <point x="1326.33" y="-22"/>
      <point x="851" y="-22" type="curve" smooth="yes"/>
      <point x="662.882" y="-22"/>
      <point x="453.741" y="-3.59961"/>
      <point x="384" y="104.5" type="curve" smooth="yes"/>
      <point x="364" y="135.5"/>
      <point x="349" y="159.667"/>
      <point x="339" y="177" type="curve"/>
      <point x="339" y="0" type="line"/>
      <point x="147" y="0" type="line"/>
      <point x="147" y="1536" type="line"/>
      <point x="339" y="1536" type="line"/>
      <point x="339" y="1043" type="line"/>
      <point x="414.406" y="1164.81"/>
      <point x="639.593" y="1184"/>
      <point x="851" y="1184" type="curve" smooth="yes"/>
      <point x="1330.88" y="1184"/>
      <point x="1555" y="1053.22"/>
    </contour>
    <contour>
      <point x="851.001" y="128" type="curve" smooth="yes"/>
      <point x="1141.03" y="128"/>
      <point x="1331.76" y="145.951"/>
      <point x="1356.5" y="410.5" type="curve" smooth="yes"/>
      <point x="1360.83" y="456.833"/>
      <point x="1363" y="511.333"/>
      <point x="1363" y="574" type="curve" smooth="yes"/>
      <point x="1363" y="864.089"/>
      <point x="1313.45" y="992.9"/>
      <point x="1044.5" y="1016" type="curve" smooth="yes"/>
      <point x="990.167" y="1020.67"/>
      <point x="925.667" y="1023"/>
      <point x="851" y="1023" type="curve" smooth="yes"/>
      <point x="563.415" y="1023"/>
      <point x="389.319" y="997.805"/>
      <point x="350.5" y="748" type="curve" smooth="yes"/>
      <point x="342.833" y="698.667"/>
      <point x="339" y="639.667"/>
      <point x="339" y="571" type="curve" smooth="yes"/>
      <point x="339" y="281.522"/>
      <point x="407.029" y="148.878"/>
      <point x="680" y="132.5" type="curve" smooth="yes"/>
      <point x="730" y="129.5"/>
      <point x="787.001" y="128"/>
    </contour>
  </outline>
</glyph>
<glyph name="c" format="1">
  <advance width="1543"/>
  <unicode hex="0063"/>
  <outline>
    <contour>
      <point x="1440" y="384" type="line"/>
      <point x="1440" y="23.7217"/>
      <point x="1171.66" y="-22"/>
      <point x="800" y="-22" type="curve" smooth="yes"/>
      <point x="413.87" y="-22"/>
      <point x="152.404" y="29.8604"/>
      <point x="107" y="368.5" type="curve" smooth="yes"/>
      <point x="99" y="428.167"/>
      <point x="95" y="496.667"/>
      <point x="95" y="574" type="curve" smooth="yes"/>
      <point x="95" y="961.171"/>
      <point x="197.643" y="1134.07"/>
      <point x="548" y="1173" type="curve" smooth="yes"/>
      <point x="620" y="1181"/>
      <point x="704" y="1185"/>
      <point x="800" y="1185" type="curve" smooth="yes"/>
      <point x="1168.23" y="1185"/>
      <point x="1440" y="1146.79"/>
      <point x="1440" y="789" type="curve"/>
      <point x="1248" y="789" type="line"/>
      <point x="1248" y="1018.72"/>
      <point x="1068.2" y="1025.02"/>
      <point x="840.171" y="1025.02" type="curve" smooth="yes"/>
      <point x="826.935" y="1025.02"/>
      <point x="813.536" y="1025"/>
      <point x="800" y="1025" type="curve" smooth="yes"/>
      <point x="501.943" y="1025"/>
      <point x="301.085" y="1015.3"/>
      <point x="290.5" y="729.5" type="curve" smooth="yes"/>
      <point x="288.833" y="684.5"/>
      <point x="288" y="632.667"/>
      <point x="288" y="574" type="curve" smooth="yes"/>
      <point x="288" y="368.75"/>
      <point x="287.596" y="223.148"/>
      <point x="440" y="167" type="curve" smooth="yes"/>
      <point x="536.021" y="131.624"/>
      <point x="655.421" y="128"/>
      <point x="800" y="128" type="curve" smooth="yes"/>
      <point x="812.079" y="128"/>
      <point x="824.251" y="127.979"/>
      <point x="836.463" y="127.979" type="curve" smooth="yes"/>
      <point x="1031.06" y="127.979"/>
      <point x="1236.07" y="133.186"/>
      <point x="1246" y="309.5" type="curve" smooth="yes"/>
      <point x="1247.33" y="332.5"/>
      <point x="1248" y="357.333"/>
      <point x="1248" y="384" type="curve"/>
    </contour>
  </outline>
</glyph>
<glyph name="d" format="1">
  <advance width="1643"/>
  <unicode hex="0064"/>
  <outline>
    <contour>
      <point x="794" y="1184" type="curve" smooth="yes"/>
      <point x="1007.54" y="1184"/>
      <point x="1226.13" y="1163.93"/>
      <point x="1306" y="1044" type="curve"/>
      <point x="1306" y="1536" type="line"/>
      <point x="1498" y="1536" type="line"/>
      <point x="1498" y="0" type="line"/>
      <point x="1306" y="0" type="line"/>
      <point x="1306" y="171" type="line"/>
      <point x="1258" y="114" type="line"/>
      <point x="1159.23" y="17.5771"/>
      <point x="1000.77" y="-22"/>
      <point x="794" y="-22" type="curve" smooth="yes"/>
      <point x="318.678" y="-22"/>
      <point x="90" y="99.6338"/>
      <point x="90" y="574" type="curve" smooth="yes"/>
      <point x="90" y="1056.08"/>
      <point x="309.715" y="1184"/>
    </contour>
    <contour>
      <point x="794" y="128" type="curve" smooth="yes"/>
      <point x="1078.85" y="128"/>
      <point x="1255.36" y="149.755"/>
      <point x="1294.5" y="396.5" type="curve" smooth="yes"/>
      <point x="1302.17" y="444.833"/>
      <point x="1306" y="503"/>
      <point x="1306" y="571" type="curve" smooth="yes"/>
      <point x="1306" y="864.082"/>
      <point x="1242.62" y="1005.19"/>
      <point x="965" y="1020" type="curve" smooth="yes"/>
      <point x="915" y="1022.67"/>
      <point x="858" y="1024"/>
      <point x="794" y="1024" type="curve" smooth="yes"/>
      <point x="502.593" y="1024"/>
      <point x="313.054" y="1005.81"/>
      <point x="288.5" y="739.5" type="curve" smooth="yes"/>
      <point x="284.167" y="692.5"/>
      <point x="282" y="637.333"/>
      <point x="282" y="574" type="curve" smooth="yes"/>
      <point x="282" y="283.927"/>
      <point x="331.392" y="158.113"/>
      <point x="600.5" y="135" type="curve" smooth="yes"/>
      <point x="654.833" y="130.333"/>
      <point x="719.333" y="128"/>
    </contour>
  </outline>
</glyph>
<glyph name="e" format="1">
  <advance width="1542"/>
  <unicode hex="0065"/>
  <outline>
    <contour>
      <point x="285" y="528" type="line"/>
      <point x="292.352" y="171.013"/>
      <point x="460.561" y="128.001"/>
      <point x="797.63" y="128.001" type="curve" smooth="yes"/>
      <point x="1067.06" y="128.001"/>
      <point x="1247.37" y="135.262"/>
      <point x="1256" y="370" type="curve"/>
      <point x="1435" y="370" type="line"/>
      <point x="1425" y="2.39031"/>
      <point x="1128.18" y="-22"/>
      <point x="795" y="-22" type="curve" smooth="yes"/>
      <point x="332.227" y="-22"/>
      <point x="91" y="97.7082"/>
      <point x="91" y="566" type="curve" smooth="yes"/>
      <point x="91" y="1037.16"/>
      <point x="278.103" y="1184"/>
      <point x="795" y="1184" type="curve" smooth="yes"/>
      <point x="1232.89" y="1184"/>
      <point x="1435" y="1029.43"/>
      <point x="1435" y="592" type="curve"/>
      <point x="1419" y="528" type="line"/>
    </contour>
    <contour>
      <point x="1243" y="656" type="line"/>
      <point x="1243" y="1010.54"/>
      <point x="1067.01" y="1032.32"/>
      <point x="780.386" y="1032.32" type="curve" smooth="yes"/>
      <point x="485.617" y="1032.32"/>
      <point x="294" y="1011.27"/>
      <point x="286" y="656" type="curve"/>
    </contour>
  </outline>
</glyph>
<glyph name="f" format="1">
  <advance width="1044"/>
  <unicode hex="0066"/>
  <outline>
    <contour>
      <point x="234" y="1162" type="line" smooth="yes"/>
      <point x="234" y="1496.7"/>
      <point x="409.495" y="1568"/>
      <point x="747" y="1568" type="curve" smooth="yes"/>
      <point x="970" y="1568" type="line"/>
      <point x="970" y="1408" type="line"/>
      <point x="746" y="1408" type="line" smooth="yes"/>
      <point x="519.561" y="1408"/>
      <point x="426" y="1398.95"/>
      <point x="426" y="1162" type="curve" smooth="yes"/>
      <point x="426" y="1152" type="line"/>
      <point x="970" y="1152" type="line"/>
      <point x="970" y="1006" type="line"/>
      <point x="426" y="1006" type="line"/>
      <point x="426" y="0" type="line"/>
      <point x="234" y="0" type="line"/>
      <point x="234" y="1006" type="line"/>
      <point x="42" y="1006" type="line"/>
      <point x="42" y="1152" type="line"/>
      <point x="234" y="1152" type="line"/>
    </contour>
  </outline>
</glyph>
<glyph name="g" format="1">
  <advance width="1667"/>
  <unicode hex="0067"/>
  <outline>
    <contour>
      <point x="1326" y="577" type="curve" smooth="yes"/>
      <point x="1326" y="955.421"/>
      <point x="1195.89" y="1024"/>
      <point x="814" y="1024" type="curve" smooth="yes"/>
      <point x="428.927" y="1024"/>
      <point x="302" y="964.242"/>
      <point x="302" y="574" type="curve" smooth="yes"/>
      <point x="302" y="191.414"/>
      <point x="426.137" y="128"/>
      <point x="814" y="128" type="curve" smooth="yes"/>
      <point x="1189.24" y="128"/>
      <point x="1326" y="196.485"/>
    </contour>
    <contour>
      <point x="814" y="1184" type="curve" smooth="yes"/>
      <point x="1028.75" y="1184"/>
      <point x="1243.26" y="1163.33"/>
      <point x="1326" y="1045" type="curve"/>
      <point x="1326" y="1152" type="line"/>
      <point x="1518" y="1152" type="line"/>
      <point x="1518" y="130" type="line" smooth="yes"/>
      <point x="1518" y="-335.613"/>
      <point x="1282.16" y="-450.999"/>
      <point x="813.904" y="-451" type="curve" smooth="yes"/>
      <point x="440.668" y="-451"/>
      <point x="174" y="-437.922"/>
      <point x="174" y="-163" type="curve"/>
      <point x="366" y="-163" type="line"/>
      <point x="366" y="-280.157"/>
      <point x="465.423" y="-291"/>
      <point x="813.945" y="-291" type="curve" smooth="yes"/>
      <point x="1164.83" y="-290.999"/>
      <point x="1324.19" y="-257.679"/>
      <point x="1325.98" y="92" type="curve" smooth="yes"/>
      <point x="1326" y="128" type="line"/>
      <point x="1249.43" y="-3.26172"/>
      <point x="1035.66" y="-32"/>
      <point x="814" y="-32" type="curve" smooth="yes"/>
      <point x="334.729" y="-32"/>
      <point x="110" y="94.4209"/>
      <point x="110" y="574" type="curve" smooth="yes"/>
      <point x="110" y="1056.08"/>
      <point x="329.715" y="1184"/>
    </contour>
  </outline>
</glyph>
<glyph name="h" format="1">
  <advance width="1617"/>
  <unicode hex="0068"/>
  <outline>
    <contour>
      <point x="339" y="970" type="line"/>
      <point x="413.491" y="1145.05"/>
      <point x="667.621" y="1184"/>
      <point x="915" y="1184" type="curve" smooth="yes"/>
      <point x="1329.28" y="1184"/>
      <point x="1492" y="1066.62"/>
      <point x="1492" y="650" type="curve" smooth="yes"/>
      <point x="1491" y="0" type="line"/>
      <point x="1299" y="0" type="line"/>
      <point x="1299" y="650" type="line" smooth="yes"/>
      <point x="1299" y="962.06"/>
      <point x="1168.73" y="1024"/>
      <point x="851" y="1024" type="curve" smooth="yes"/>
      <point x="570.561" y="1024"/>
      <point x="339" y="981.433"/>
      <point x="339" y="714" type="curve" smooth="yes"/>
      <point x="339" y="0" type="line"/>
      <point x="147" y="0" type="line"/>
      <point x="147" y="1536" type="line"/>
      <point x="339" y="1536" type="line"/>
    </contour>
  </outline>
</glyph>
<glyph name="i" format="1">
  <advance width="596"/>
  <unicode hex="0069"/>
  <outline>
    <contour>
      <point x="202" y="1152" type="line"/>
      <point x="394" y="1152" type="line"/>
      <point x="394" y="0" type="line"/>
      <point x="202" y="0" type="line"/>
    </contour>
    <contour>
      <point x="394" y="1344" type="line"/>
      <point x="202" y="1344" type="line"/>
      <point x="202" y="1536" type="line"/>
      <point x="394" y="1536" type="line"/>
    </contour>
  </outline>
</glyph>
<glyph name="j" format="1">
  <advance width="499"/>
  <unicode hex="006A"/>
  <outline>
    <contour>
      <point x="-15" y="-224" type="line"/>
      <point x="108.419" y="-224"/>
      <point x="145" y="-187.425"/>
      <point x="145" y="-64" type="curve" smooth="yes"/>
      <point x="145" y="1152" type="line"/>
      <point x="337" y="1152" type="line"/>
      <point x="337" y="-64" type="line" smooth="yes"/>
      <point x="337" y="-310.758"/>
      <point x="238.767" y="-384"/>
      <point x="-15" y="-384" type="curve"/>
    </contour>
    <contour>
      <point x="337" y="1344" type="line"/>
      <point x="145" y="1344" type="line"/>
      <point x="145" y="1536" type="line"/>
      <point x="337" y="1536" type="line"/>
    </contour>
  </outline>
</glyph>
<glyph name="k" format="1">
  <advance width="1456"/>
  <unicode hex="006B"/>
  <outline>
    <contour>
      <point x="162" y="1536" type="line"/>
      <point x="354" y="1536" type="line"/>
      <point x="354" y="696" type="line"/>
      <point x="578" y="696" type="line"/>
      <point x="1134" y="1152" type="line"/>
      <point x="1394" y="1152" type="line"/>
      <point x="764" y="616" type="line"/>
      <point x="1414" y="0" type="line"/>
      <point x="1154" y="0" type="line"/>
      <point x="578" y="552" type="line"/>
      <point x="354" y="552" type="line"/>
      <point x="354" y="0" type="line"/>
      <point x="162" y="0" type="line"/>
    </contour>
  </outline>
</glyph>
<glyph name="l" format="1">
  <advance width="592"/>
  <unicode hex="006C"/>
  <outline>
    <contour>
      <point x="200" y="1536" type="line"/>
      <point x="392" y="1536" type="line"/>
      <point x="392" y="0" type="line"/>
      <point x="200" y="0" type="line"/>
    </contour>
  </outline>
</glyph>
<glyph name="m" format="1">
  <advance width="2505"/>
  <unicode hex="006D"/>
  <outline>
    <contour>
      <point x="1801" y="1024" type="curve" smooth="yes"/>
      <point x="1539.08" y="1024"/>
      <point x="1353" y="966.51"/>
      <point x="1353" y="714" type="curve" smooth="yes"/>
      <point x="1353" y="0" type="line"/>
      <point x="1161" y="0" type="line"/>
      <point x="1161" y="650" type="line" smooth="yes"/>
      <point x="1161" y="941.822"/>
      <point x="1070.51" y="1024"/>
      <point x="777" y="1024" type="curve" smooth="yes"/>
      <point x="515.084" y="1024"/>
      <point x="329" y="966.51"/>
      <point x="329" y="714" type="curve" smooth="yes"/>
      <point x="329" y="0" type="line"/>
      <point x="137" y="0" type="line"/>
      <point x="137" y="1152" type="line"/>
      <point x="329" y="1152" type="line"/>
      <point x="329" y="970" type="line"/>
      <point x="382.239" y="1129.72"/>
      <point x="616.936" y="1184"/>
      <point x="841" y="1184" type="curve" smooth="yes"/>
      <point x="1077.07" y="1184"/>
      <point x="1245.69" y="1137.46"/>
      <point x="1313" y="974" type="curve"/>
      <point x="1406.13" y="1121.92"/>
      <point x="1611.26" y="1184"/>
      <point x="1865" y="1184" type="curve" smooth="yes"/>
      <point x="2256.84" y="1184"/>
      <point x="2377" y="1044.16"/>
      <point x="2377" y="650" type="curve" smooth="yes"/>
      <point x="2377" y="0" type="line"/>
      <point x="2185" y="0" type="line"/>
      <point x="2185" y="650" type="line" smooth="yes"/>
      <point x="2185" y="941.822"/>
      <point x="2094.51" y="1024"/>
    </contour>
  </outline>
</glyph>
<glyph name="n" format="1">
  <advance width="1656"/>
  <unicode hex="006E"/>
  <outline>
    <contour>
      <point x="354" y="960" type="line"/>
      <point x="429.586" y="1136.38"/>
      <point x="680.545" y="1184"/>
      <point x="930" y="1184" type="curve" smooth="yes"/>
      <point x="1347.7" y="1184"/>
      <point x="1507" y="1060.16"/>
      <point x="1507" y="640" type="curve" smooth="yes"/>
      <point x="1506" y="0" type="line"/>
      <point x="1314" y="0" type="line"/>
      <point x="1314" y="640" type="line" smooth="yes"/>
      <point x="1314" y="956.84"/>
      <point x="1188.13" y="1024"/>
      <point x="866" y="1024" type="curve" smooth="yes"/>
      <point x="580.495" y="1024"/>
      <point x="354" y="977.1"/>
      <point x="354" y="704" type="curve" smooth="yes"/>
      <point x="354" y="0" type="line"/>
      <point x="162" y="0" type="line"/>
      <point x="162" y="1152" type="line"/>
      <point x="354" y="1152" type="line"/>
    </contour>
  </outline>
</glyph>
<glyph name="o" format="1">
  <advance width="1628"/>
  <unicode hex="006F"/>
  <outline>
    <contour>
      <point x="110" y="584" type="curve" smooth="yes"/>
      <point x="110" y="1061.64"/>
      <point x="333.796" y="1184"/>
      <point x="814" y="1184" type="curve" smooth="yes"/>
      <point x="1292.7" y="1184"/>
      <point x="1518" y="1063.12"/>
      <point x="1518" y="584" type="curve" smooth="yes"/>
      <point x="1518" y="105.898"/>
      <point x="1294.67" y="-22"/>
      <point x="814" y="-22" type="curve" smooth="yes"/>
      <point x="334.729" y="-22"/>
      <point x="110" y="104.421"/>
    </contour>
    <contour>
      <point x="814" y="1033" type="curve" smooth="yes"/>
      <point x="439.996" y="1033"/>
      <point x="302" y="971.159"/>
      <point x="302" y="584" type="curve" smooth="yes"/>
      <point x="302" y="197.876"/>
      <point x="422.379" y="128"/>
      <point x="814" y="128" type="curve" smooth="yes"/>
      <point x="1192.66" y="128"/>
      <point x="1326" y="200.121"/>
      <point x="1326" y="584" type="curve" smooth="yes"/>
      <point x="1326" y="967.706"/>
      <point x="1193.48" y="1033"/>
    </contour>
  </outline>
</glyph>
<glyph name="p" format="1">
  <advance width="1645"/>
  <unicode hex="0070"/>
  <outline>
    <contour>
      <point x="329" y="1045" type="line"/>
      <point x="406.852" y="1164.85"/>
      <point x="629.278" y="1184"/>
      <point x="841" y="1184" type="curve" smooth="yes"/>
      <point x="1320.88" y="1184"/>
      <point x="1545" y="1053.22"/>
      <point x="1545" y="574" type="curve" smooth="yes"/>
      <point x="1545" y="99.6533"/>
      <point x="1316.33" y="-22"/>
      <point x="841" y="-22" type="curve" smooth="yes"/>
      <point x="627.204" y="-22"/>
      <point x="401.026" y="0.569336"/>
      <point x="329" y="128" type="curve"/>
      <point x="329" y="-384" type="line"/>
      <point x="137" y="-384" type="line"/>
      <point x="137" y="1152" type="line"/>
      <point x="329" y="1152" type="line"/>
    </contour>
    <contour>
      <point x="841" y="1024" type="curve" smooth="yes"/>
      <point x="555.835" y="1024"/>
      <point x="379.459" y="999.326"/>
      <point x="340.5" y="752" type="curve" smooth="yes"/>
      <point x="332.833" y="703.333"/>
      <point x="329" y="645"/>
      <point x="329" y="577" type="curve" smooth="yes"/>
      <point x="329" y="285.775"/>
      <point x="395.602" y="148.964"/>
      <point x="670" y="132.5" type="curve" smooth="yes"/>
      <point x="720" y="129.5"/>
      <point x="777.001" y="128"/>
      <point x="841.001" y="128" type="curve" smooth="yes"/>
      <point x="1131.03" y="128"/>
      <point x="1321.76" y="145.951"/>
      <point x="1346.5" y="410.5" type="curve" smooth="yes"/>
      <point x="1350.83" y="456.833"/>
      <point x="1353" y="511.333"/>
      <point x="1353" y="574" type="curve" smooth="yes"/>
      <point x="1353" y="863.912"/>
      <point x="1303.21" y="993.93"/>
      <point x="1034.5" y="1017" type="curve" smooth="yes"/>
      <point x="980.167" y="1021.67"/>
      <point x="915.667" y="1024"/>
    </contour>
  </outline>
</glyph>
<glyph name="q" format="1">
  <advance width="1638"/>
  <unicode hex="0071"/>
  <outline>
    <contour>
      <point x="1307" y="128" type="line"/>
      <point x="1230.31" y="2.01758"/>
      <point x="1011.53" y="-22"/>
      <point x="795" y="-22" type="curve" smooth="yes"/>
      <point x="315.729" y="-22"/>
      <point x="91" y="104.421"/>
      <point x="91" y="584" type="curve" smooth="yes"/>
      <point x="91" y="1061.64"/>
      <point x="314.796" y="1184"/>
      <point x="795" y="1184" type="curve" smooth="yes"/>
      <point x="1012.49" y="1184"/>
      <point x="1227.84" y="1159.52"/>
      <point x="1307" y="1035" type="curve"/>
      <point x="1307" y="1152" type="line"/>
      <point x="1499" y="1152" type="line"/>
      <point x="1499" y="-384" type="line"/>
      <point x="1307" y="-384" type="line"/>
    </contour>
    <contour>
      <point x="795" y="1024" type="curve" smooth="yes"/>
      <point x="506.555" y="1024"/>
      <point x="313.983" y="1013.67"/>
      <point x="289.5" y="750" type="curve" smooth="yes"/>
      <point x="285.167" y="703.333"/>
      <point x="283" y="648"/>
      <point x="283" y="584" type="curve" smooth="yes"/>
      <point x="283" y="291.339"/>
      <point x="330.298" y="158.294"/>
      <point x="601.5" y="135" type="curve" smooth="yes"/>
      <point x="655.833" y="130.333"/>
      <point x="720.333" y="128"/>
      <point x="795" y="128" type="curve" smooth="yes"/>
      <point x="1084.7" y="128"/>
      <point x="1256.81" y="153.687"/>
      <point x="1295.5" y="406" type="curve" smooth="yes"/>
      <point x="1303.17" y="456"/>
      <point x="1307" y="516.334"/>
      <point x="1307" y="587" type="curve" smooth="yes"/>
      <point x="1307" y="877.355"/>
      <point x="1243.28" y="1007.56"/>
      <point x="966" y="1020.5" type="curve" smooth="yes"/>
      <point x="916" y="1022.83"/>
      <point x="859" y="1024"/>
    </contour>
  </outline>
</glyph>
<glyph name="r" format="1">
  <advance width="1350"/>
  <unicode hex="0072"/>
  <outline>
    <contour>
      <point x="329" y="969" type="line"/>
      <point x="381.036" y="1130.31"/>
      <point x="582.388" y="1184"/>
      <point x="809" y="1184" type="curve" smooth="yes"/>
      <point x="1134.91" y="1184"/>
      <point x="1289" y="1097.64"/>
      <point x="1289" y="777" type="curve"/>
      <point x="1129" y="777" type="line"/>
      <point x="1129" y="1018.07"/>
      <point x="993.153" y="1024"/>
      <point x="745" y="1024" type="curve" smooth="yes"/>
      <point x="488.099" y="1024"/>
      <point x="329" y="961.746"/>
      <point x="329" y="713" type="curve" smooth="yes"/>
      <point x="329" y="0" type="line"/>
      <point x="137" y="0" type="line"/>
      <point x="137" y="1152" type="line"/>
      <point x="329" y="1152" type="line"/>
    </contour>
  </outline>
</glyph>
<glyph name="s" format="1">
  <advance width="1550"/>
  <unicode hex="0073"/>
  <unicode hex="017f"/>
  <outline>
    <contour>
      <point x="306" y="860" type="curve" smooth="yes"/>
      <point x="306" y="1024"/>
      <point x="465" y="1024"/>
      <point x="818" y="1024" type="curve" smooth="yes"/>
      <point x="1087" y="1024"/>
      <point x="1266" y="1018"/>
      <point x="1266" y="848" type="curve"/>
      <point x="1458" y="848" type="line"/>
      <point x="1458" y="1164.17"/>
      <point x="1149.97" y="1184"/>
      <point x="818" y="1184" type="curve" smooth="yes"/>
      <point x="485.036" y="1184"/>
      <point x="114" y="1176.35"/>
      <point x="114" y="860" type="curve" smooth="yes"/>
      <point x="114" y="527.895"/>
      <point x="331.22" y="524.999"/>
      <point x="762.813" y="524.999" type="curve" smooth="yes"/>
      <point x="786" y="525" type="line" smooth="yes"/>
      <point x="1147" y="525"/>
      <point x="1266" y="520"/>
      <point x="1266" y="340" type="curve" smooth="yes"/>
      <point x="1266" y="132"/>
      <point x="1085" y="128"/>
      <point x="754" y="128" type="curve" smooth="yes"/>
      <point x="473" y="128"/>
      <point x="306" y="131"/>
      <point x="306" y="320" type="curve"/>
      <point x="114" y="320" type="line"/>
      <point x="114" y="5.63281"/>
      <point x="426.585" y="-12"/>
      <point x="754" y="-12" type="curve" smooth="yes"/>
      <point x="1113.2" y="-12"/>
      <point x="1458" y="-11.4014"/>
      <point x="1458" y="344" type="curve" smooth="yes"/>
      <point x="1458" y="681.027"/>
      <point x="1188.2" y="685.002"/>
      <point x="813.353" y="685.002" type="curve" smooth="yes"/>
      <point x="786" y="685" type="line"/>
      <point x="772.473" y="685" type="line" smooth="yes"/>
      <point x="379.324" y="685"/>
      <point x="306" y="685.978"/>
    </contour>
  </outline>
</glyph>
<glyph name="t" format="1">
  <advance width="1331"/>
  <unicode hex="0074"/>
  <outline>
    <contour>
      <point x="748" y="160" type="curve" smooth="yes"/>
      <point x="1005.3" y="160"/>
      <point x="1053" y="238.28"/>
      <point x="1053" y="516" type="curve"/>
      <point x="1229" y="516" type="line"/>
      <point x="1229" y="145.78"/>
      <point x="1115.23" y="0"/>
      <point x="749" y="0" type="curve" smooth="yes"/>
      <point x="423.485" y="0"/>
      <point x="282" y="91"/>
      <point x="282" y="416" type="curve" smooth="yes"/>
      <point x="282" y="1003" type="line"/>
      <point x="45" y="1003" type="line"/>
      <point x="45" y="1152" type="line"/>
      <point x="282" y="1152" type="line"/>
      <point x="282" y="1467" type="line"/>
      <point x="474" y="1467" type="line"/>
      <point x="474" y="1152" type="line"/>
      <point x="1197" y="1152" type="line"/>
      <point x="1197" y="1003" type="line"/>
      <point x="474" y="1003" type="line"/>
      <point x="474" y="416" type="line" smooth="yes"/>
      <point x="474" y="195"/>
      <point x="528.958" y="160"/>
    </contour>
  </outline>
</glyph>
<glyph name="u" format="1">
  <advance width="1656"/>
  <unicode hex="0075"/>
  <outline>
    <contour>
      <point x="1302" y="192" type="line"/>
      <point x="1226.18" y="24.1152"/>
      <point x="985.167" y="-22"/>
      <point x="726" y="-22" type="curve" smooth="yes"/>
      <point x="310.776" y="-22"/>
      <point x="149" y="94.3379"/>
      <point x="149" y="512" type="curve" smooth="yes"/>
      <point x="150" y="1152" type="line"/>
      <point x="342" y="1152" type="line"/>
      <point x="342" y="512" type="line" smooth="yes"/>
      <point x="342" y="195.16"/>
      <point x="467.874" y="128"/>
      <point x="790" y="128" type="curve" smooth="yes"/>
      <point x="1075.5" y="128"/>
      <point x="1302" y="174.9"/>
      <point x="1302" y="448" type="curve" smooth="yes"/>
      <point x="1302" y="1152" type="line"/>
      <point x="1494" y="1152" type="line"/>
      <point x="1494" y="0" type="line"/>
      <point x="1302" y="0" type="line"/>
    </contour>
  </outline>
</glyph>
<glyph name="v" format="1">
  <advance width="1656"/>
  <unicode hex="0076"/>
  <outline>
    <contour>
      <point x="700" y="0" type="line"/>
      <point x="956" y="0" type="line"/>
      <point x="1564" y="1152" type="line"/>
      <point x="1340" y="1152" type="line"/>
      <point x="828" y="128" type="line"/>
      <point x="316" y="1152" type="line"/>
      <point x="92" y="1152" type="line"/>
    </contour>
  </outline>
</glyph>
<glyph name="w" format="1">
  <advance width="2306"/>
  <unicode hex="0077"/>
  <outline>
    <contour>
      <point x="2209" y="1152" type="line"/>
      <point x="1985" y="1152" type="line"/>
      <point x="1629" y="144" type="line"/>
      <point x="1249" y="1152" type="line"/>
      <point x="1057" y="1152" type="line"/>
      <point x="673" y="144" type="line"/>
      <point x="321" y="1152" type="line"/>
      <point x="97" y="1152" type="line"/>
      <point x="545" y="0" type="line"/>
      <point x="801" y="0" type="line"/>
      <point x="1153" y="944" type="line"/>
      <point x="1505" y="0" type="line"/>
      <point x="1761" y="0" type="line"/>
    </contour>
  </outline>
</glyph>
<glyph name="x" format="1">
  <advance width="1622"/>
  <unicode hex="0078"/>
  <outline>
    <contour>
      <point x="1274" y="0" type="line"/>
      <point x="1530" y="0" type="line"/>
      <point x="940" y="587" type="line"/>
      <point x="1502" y="1152" type="line"/>
      <point x="1246" y="1152" type="line"/>
      <point x="817" y="707" type="line"/>
      <point x="378" y="1152" type="line"/>
      <point x="122" y="1152" type="line"/>
      <point x="684" y="586" type="line"/>
      <point x="94" y="0" type="line"/>
      <point x="350" y="0" type="line"/>
      <point x="812" y="482" type="line"/>
    </contour>
  </outline>
</glyph>
<glyph name="y" format="1">
  <advance width="1508"/>
  <unicode hex="0079"/>
  <outline>
    <contour>
      <point x="636" y="0" type="line"/>
      <point x="700" y="0" type="line"/>
      <point x="635.748" y="-128.503"/>
      <point x="593.513" y="-196.101"/>
      <point x="414" y="-216.5" type="curve" smooth="yes"/>
      <point x="370" y="-221.5"/>
      <point x="316" y="-224"/>
      <point x="252" y="-224" type="curve"/>
      <point x="252" y="-384" type="line"/>
      <point x="535.234" y="-384"/>
      <point x="713.263" y="-333.972"/>
      <point x="812.5" y="-154.5" type="curve" smooth="yes"/>
      <point x="828.167" y="-126.167"/>
      <point x="844" y="-96"/>
      <point x="860" y="-64" type="curve" smooth="yes"/>
      <point x="1062.67" y="341.333"/>
      <point x="1265.33" y="746.667"/>
      <point x="1468" y="1152" type="curve"/>
      <point x="1244" y="1152" type="line"/>
      <point x="764" y="128" type="line"/>
      <point x="252" y="1152" type="line"/>
      <point x="28" y="1152" type="line"/>
    </contour>
  </outline>
</glyph>
<glyph name="z" format="1">
  <advance width="1390"/>
  <unicode hex="007A"/>
  <outline>
    <contour>
      <point x="143" y="1152" type="line"/>
      <point x="143" y="1011" type="line"/>
      <point x="1055" y="1011" type="line"/>
      <point x="79" y="160" type="line"/>
      <point x="79" y="0" type="line"/>
      <point x="1295" y="0" type="line"/>
      <point x="1295" y="143" type="line"/>
      <point x="333" y="143" type="line"/>
      <point x="1295" y="992" type="line"/>
      <point x="1295" y="1152" type="line"/>
    </contour>
  </outline>
</glyph>
<glyph name="braceleft" format="1">
  <advance width="801"/>
  <unicode hex="007B"/>
  <outline>
    <contour>
      <point x="49" y="688" type="line"/>
      <point x="187.93" y="688"/>
      <point x="241" y="671.364"/>
      <point x="241" y="536" type="curve" smooth="yes"/>
      <point x="241" y="138.928"/>
      <point x="350.66" y="-64"/>
      <point x="753" y="-64" type="curve"/>
      <point x="753" y="96" type="line"/>
      <point x="461.161" y="96"/>
      <point x="433" y="241.951"/>
      <point x="433" y="536" type="curve" smooth="yes"/>
      <point x="433" y="664.41"/>
      <point x="394.343" y="723.329"/>
      <point x="305" y="768" type="curve"/>
      <point x="394.353" y="812.676"/>
      <point x="433" y="871.564"/>
      <point x="433" y="1000" type="curve" smooth="yes"/>
      <point x="433" y="1287.48"/>
      <point x="459.101" y="1440"/>
      <point x="753" y="1440" type="curve"/>
      <point x="753" y="1600" type="line"/>
      <point x="349.731" y="1600"/>
      <point x="241" y="1400.5"/>
      <point x="241" y="1000" type="curve" smooth="yes"/>
      <point x="241" y="866.314"/>
      <point x="186.662" y="848"/>
      <point x="49" y="848" type="curve"/>
    </contour>
  </outline>
</glyph>
<glyph name="bar" format="1">
  <advance width="489"/>
  <unicode hex="007C"/>
  <outline>
    <contour>
      <point x="149" y="-128" type="line"/>
      <point x="341" y="-128" type="line"/>
      <point x="341" y="1600" type="line"/>
      <point x="149" y="1600" type="line"/>
    </contour>
  </outline>
</glyph>
<glyph name="braceright" format="1">
  <advance width="808"/>
  <unicode hex="007D"/>
  <outline>
    <contour>
      <point x="60" y="-64" type="line"/>
      <point x="463.269" y="-64"/>
      <point x="572" y="135.496"/>
      <point x="572" y="536" type="curve" smooth="yes"/>
      <point x="572" y="671.35"/>
      <point x="625.067" y="688"/>
      <point x="764" y="688" type="curve"/>
      <point x="764" y="848" type="line"/>
      <point x="626.34" y="848"/>
      <point x="572" y="866.299"/>
      <point x="572" y="1000" type="curve" smooth="yes"/>
      <point x="572" y="1396.62"/>
      <point x="462.056" y="1600"/>
      <point x="60" y="1600" type="curve"/>
      <point x="60" y="1440" type="line"/>
      <point x="351.577" y="1440"/>
      <point x="380" y="1293.92"/>
      <point x="380" y="1000" type="curve" smooth="yes"/>
      <point x="380" y="871.59"/>
      <point x="418.657" y="812.671"/>
      <point x="508" y="768" type="curve"/>
      <point x="418.647" y="723.324"/>
      <point x="380" y="664.436"/>
      <point x="380" y="536" type="curve" smooth="yes"/>
      <point x="380" y="248.477"/>
      <point x="353.348" y="96"/>
      <point x="60" y="96" type="curve"/>
    </contour>
  </outline>
</glyph>
<glyph name="asciitilde" format="1">
  <advance width="1109"/>
  <unicode hex="007E"/>
  <outline>
    <contour>
      <point x="301" y="832" type="line"/>
      <point x="301" y="890.719"/>
      <point x="308.233" y="928"/>
      <point x="365" y="928" type="curve" smooth="yes"/>
      <point x="510.575" y="928"/>
      <point x="584.081" y="832"/>
      <point x="749" y="832" type="curve" smooth="yes"/>
      <point x="899.56" y="832"/>
      <point x="1005" y="932.473"/>
      <point x="1005" y="1088" type="curve"/>
      <point x="813" y="1088" type="line"/>
      <point x="813" y="1029.96"/>
      <point x="805.377" y="992"/>
      <point x="749" y="992" type="curve" smooth="yes"/>
      <point x="603.425" y="992"/>
      <point x="529.92" y="1088"/>
      <point x="365" y="1088" type="curve" smooth="yes"/>
      <point x="211.144" y="1088"/>
      <point x="109" y="991.013"/>
      <point x="109" y="832" type="curve"/>
    </contour>
  </outline>
</glyph>
<glyph name="cent" format="1">
  <advance width="1559"/>
  <unicode hex="00A2"/>
  <outline>
    <contour>
      <point x="1455" y="704" type="line"/>
      <point x="1455" y="1069.69"/>
      <point x="1191.64" y="1120"/>
      <point x="815" y="1120" type="curve" smooth="yes"/>
      <point x="434.334" y="1120"/>
      <point x="168.307" y="1073.86"/>
      <point x="122" y="742" type="curve" smooth="yes"/>
      <point x="114" y="684.667"/>
      <point x="110" y="618.667"/>
      <point x="110" y="544" type="curve" smooth="yes"/>
      <point x="110" y="170.486"/>
      <point x="222.924" y="15.7119"/>
      <point x="563" y="-20.5" type="curve" smooth="yes"/>
      <point x="635" y="-28.167"/>
      <point x="719" y="-32"/>
      <point x="815" y="-32" type="curve" smooth="yes"/>
      <point x="1193.35" y="-32"/>
      <point x="1455" y="15.209"/>
      <point x="1455" y="384" type="curve"/>
      <point x="1263" y="384" type="line"/>
      <point x="1263" y="129.24"/>
      <point x="1073.17" y="128"/>
      <point x="815" y="128" type="curve" smooth="yes"/>
      <point x="530.147" y="128"/>
      <point x="316.463" y="130.115"/>
      <point x="305.5" y="402" type="curve" smooth="yes"/>
      <point x="303.833" y="443.334"/>
      <point x="303" y="490.667"/>
      <point x="303" y="544" type="curve" smooth="yes"/>
      <point x="303" y="740.839"/>
      <point x="305.956" y="872.511"/>
      <point x="455" y="923.5" type="curve" smooth="yes"/>
      <point x="552.118" y="956.725"/>
      <point x="671.053" y="960"/>
      <point x="815" y="960" type="curve" smooth="yes"/>
      <point x="827.079" y="960"/>
      <point x="839.251" y="960.021"/>
      <point x="851.463" y="960.021" type="curve" smooth="yes"/>
      <point x="1046.06" y="960.021"/>
      <point x="1251.08" y="954.814"/>
      <point x="1261" y="778.5" type="curve" smooth="yes"/>
      <point x="1262.33" y="755.5"/>
      <point x="1263" y="730.667"/>
      <point x="1263" y="704" type="curve"/>
    </contour>
  </outline>
</glyph>
<glyph name="sterling" format="1">
  <advance width="1573"/>
  <unicode hex="00A3"/>
  <outline>
    <contour>
      <point x="49" y="800" type="line"/>
      <point x="241" y="800" type="line"/>
      <point x="241" y="958" type="line" smooth="yes"/>
      <point x="241" y="1345.24"/>
      <point x="342.515" y="1518.06"/>
      <point x="693" y="1557" type="curve" smooth="yes"/>
      <point x="765" y="1565"/>
      <point x="849" y="1569"/>
      <point x="945" y="1569" type="curve" smooth="yes"/>
      <point x="1293.51" y="1569"/>
      <point x="1521" y="1513.88"/>
      <point x="1521" y="1173" type="curve"/>
      <point x="1329" y="1173" type="line"/>
      <point x="1329" y="1400.13"/>
      <point x="1175.38" y="1409"/>
      <point x="945" y="1409" type="curve" smooth="yes"/>
      <point x="646.943" y="1409"/>
      <point x="446.085" y="1399.3"/>
      <point x="435.5" y="1113.5" type="curve" smooth="yes"/>
      <point x="433.833" y="1068.5"/>
      <point x="433" y="1016.67"/>
      <point x="433" y="958" type="curve" smooth="yes"/>
      <point x="433" y="800" type="line"/>
      <point x="1265" y="800" type="line"/>
      <point x="1265" y="640" type="line"/>
      <point x="433" y="640" type="line"/>
      <point x="433" y="160" type="line"/>
      <point x="1457" y="160" type="line"/>
      <point x="1457" y="0" type="line"/>
      <point x="241" y="0" type="line"/>
      <point x="241" y="640" type="line"/>
      <point x="49" y="640" type="line"/>
    </contour>
  </outline>
</glyph>
<glyph name="currency" format="1">
  <advance width="1254"/>
  <unicode hex="00A4"/>
  <outline>
    <contour>
      <point x="924" y="848" type="line"/>
      <point x="849.906" y="899.489"/>
      <point x="751.566" y="928"/>
      <point x="630" y="928" type="curve" smooth="yes"/>
      <point x="507.552" y="928"/>
      <point x="410.474" y="899.753"/>
      <point x="336" y="848" type="curve"/>
      <point x="186" y="977" type="line"/>
      <point x="102" y="880" type="line"/>
      <point x="246" y="756" type="line"/>
      <point x="205.468" y="693.24"/>
      <point x="182" y="614.1"/>
      <point x="182" y="512" type="curve" smooth="yes"/>
      <point x="182" y="408.95"/>
      <point x="205.191" y="331.188"/>
      <point x="246" y="268" type="curve"/>
      <point x="102" y="144" type="line"/>
      <point x="186" y="47" type="line"/>
      <point x="336" y="176" type="line"/>
      <point x="409.243" y="122.962"/>
      <point x="507.475" y="96"/>
      <point x="630" y="96" type="curve" smooth="yes"/>
      <point x="751.033" y="96"/>
      <point x="849.941" y="123.353"/>
      <point x="923" y="175" type="curve"/>
      <point x="1074" y="47" type="line"/>
      <point x="1158" y="144" type="line"/>
      <point x="1013" y="268" type="line"/>
      <point x="1053.8" y="331.171"/>
      <point x="1078" y="408.964"/>
      <point x="1078" y="512" type="curve" smooth="yes"/>
      <point x="1078" y="614.601"/>
      <point x="1054.64" y="693.54"/>
      <point x="1013" y="756" type="curve"/>
      <point x="1158" y="880" type="line"/>
      <point x="1074" y="977" type="line"/>
    </contour>
    <contour>
      <point x="886" y="512" type="curve" smooth="yes"/>
      <point x="886" y="341.986"/>
      <point x="797.383" y="256"/>
      <point x="630.001" y="256" type="curve" smooth="yes"/>
      <point x="461.731" y="256"/>
      <point x="374" y="341.018"/>
      <point x="374" y="512" type="curve" smooth="yes"/>
      <point x="374" y="682.987"/>
      <point x="461.722" y="768"/>
      <point x="630" y="768" type="curve" smooth="yes"/>
      <point x="797.376" y="768"/>
      <point x="886" y="682.008"/>
    </contour>
  </outline>
</glyph>
<glyph name="yen" format="1">
  <advance width="1957"/>
  <unicode hex="00A5"/>
  <outline>
    <contour>
      <point x="377" y="416" type="line"/>
      <point x="889" y="416" type="line"/>
      <point x="889" y="640" type="line"/>
      <point x="377" y="640" type="line"/>
      <point x="377" y="800" type="line"/>
      <point x="734" y="800" type="line"/>
      <point x="25" y="1536" type="line"/>
      <point x="281" y="1536" type="line"/>
      <point x="985" y="768" type="line"/>
      <point x="1689" y="1536" type="line"/>
      <point x="1945" y="1536" type="line"/>
      <point x="1235" y="800" type="line"/>
      <point x="1593" y="800" type="line"/>
      <point x="1593" y="640" type="line"/>
      <point x="1081" y="640" type="line"/>
      <point x="1081" y="416" type="line"/>
      <point x="1593" y="416" type="line"/>
      <point x="1593" y="256" type="line"/>
      <point x="1081" y="256" type="line"/>
      <point x="1081" y="0" type="line"/>
      <point x="889" y="0" type="line"/>
      <point x="889" y="256" type="line"/>
      <point x="377" y="256" type="line"/>
    </contour>
  </outline>
</glyph>
<glyph name="brokenbar" format="1">
  <advance width="485"/>
  <unicode hex="00A6"/>
  <outline>
    <contour>
      <point x="148" y="896" type="line"/>
      <point x="340" y="896" type="line"/>
      <point x="340" y="1600" type="line"/>
      <point x="148" y="1600" type="line"/>
    </contour>
    <contour>
      <point x="148" y="-128" type="line"/>
      <point x="340" y="-128" type="line"/>
      <point x="340" y="576" type="line"/>
      <point x="148" y="576" type="line"/>
    </contour>
  </outline>
</glyph>
<glyph name="section" format="1">
  <advance width="1455"/>
  <unicode hex="00A7"/>
  <outline>
    <contour>
      <point x="103" y="699" type="curve" smooth="yes"/>
      <point x="103" y="490.652"/>
      <point x="369.991" y="479.855"/>
      <point x="600.84" y="479.855" type="curve" smooth="yes"/>
      <point x="627.532" y="479.855"/>
      <point x="653.742" y="480"/>
      <point x="679" y="480" type="curve" smooth="yes"/>
      <point x="741.736" y="480"/>
      <point x="812.944" y="484.862"/>
      <point x="880.945" y="484.862" type="curve" smooth="yes"/>
      <point x="1027.41" y="484.862"/>
      <point x="1159" y="462.303"/>
      <point x="1159" y="320" type="curve" smooth="yes"/>
      <point x="1159" y="144.431"/>
      <point x="975.033" y="126.911"/>
      <point x="786.293" y="126.911" type="curve" smooth="yes"/>
      <point x="739.233" y="126.911"/>
      <point x="691.876" y="128"/>
      <point x="647" y="128" type="curve" smooth="yes"/>
      <point x="450.803" y="128"/>
      <point x="299" y="128.23"/>
      <point x="299" y="320" type="curve"/>
      <point x="107" y="320" type="line"/>
      <point x="107" y="13.2373"/>
      <point x="332.955" y="-32"/>
      <point x="647" y="-32" type="curve" smooth="yes"/>
      <point x="1006.2" y="-32"/>
      <point x="1351" y="-31.4014"/>
      <point x="1351" y="324" type="curve" smooth="yes"/>
      <point x="1351" y="434.697"/>
      <point x="1327.36" y="504.16"/>
      <point x="1261" y="551" type="curve"/>
      <point x="1303.5" y="610.297"/>
      <point x="1349" y="675.506"/>
      <point x="1349" y="757" type="curve" smooth="yes"/>
      <point x="1349" y="956.695"/>
      <point x="996.477" y="960"/>
      <point x="775" y="960" type="curve" smooth="yes"/>
      <point x="712.301" y="960"/>
      <point x="641.21" y="955.139"/>
      <point x="573.352" y="955.139" type="curve" smooth="yes"/>
      <point x="427.178" y="955.139"/>
      <point x="296" y="977.697"/>
      <point x="296" y="1120" type="curve" smooth="yes"/>
      <point x="296" y="1295.6"/>
      <point x="480.235" y="1313.08"/>
      <point x="669.096" y="1313.08" type="curve" smooth="yes"/>
      <point x="716.03" y="1313.08"/>
      <point x="763.251" y="1312"/>
      <point x="808" y="1312" type="curve" smooth="yes"/>
      <point x="1004.2" y="1312"/>
      <point x="1156" y="1311.77"/>
      <point x="1156" y="1120" type="curve"/>
      <point x="1348" y="1120" type="line"/>
      <point x="1348" y="1426.76"/>
      <point x="1122.04" y="1472"/>
      <point x="808" y="1472" type="curve" smooth="yes"/>
      <point x="448.798" y="1472"/>
      <point x="104" y="1471.4"/>
      <point x="104" y="1116" type="curve" smooth="yes"/>
      <point x="104" y="1003.94"/>
      <point x="128.609" y="935.166"/>
      <point x="195" y="887" type="curve"/>
      <point x="152.577" y="835.698"/>
      <point x="103" y="775.159"/>
    </contour>
    <contour>
      <point x="1128" y="607" type="curve"/>
      <point x="999.625" y="637.01"/>
      <point x="852.645" y="640"/>
      <point x="679" y="640" type="curve" smooth="yes"/>
      <point x="639.262" y="640"/>
      <point x="590.599" y="638.036"/>
      <point x="541.462" y="638.036" type="curve" smooth="yes"/>
      <point x="420.176" y="638.036"/>
      <point x="296" y="650.001"/>
      <point x="296" y="733" type="curve" smooth="yes"/>
      <point x="296" y="767.835"/>
      <point x="314.851" y="800.615"/>
      <point x="327" y="832" type="curve"/>
      <point x="454.575" y="802.692"/>
      <point x="601.994" y="800"/>
      <point x="776" y="800" type="curve" smooth="yes"/>
      <point x="808.237" y="800"/>
      <point x="848.483" y="801.158"/>
      <point x="890.702" y="801.158" type="curve" smooth="yes"/>
      <point x="1017.02" y="801.158"/>
      <point x="1161" y="790.789"/>
      <point x="1161" y="708" type="curve" smooth="yes"/>
      <point x="1161" y="669.498"/>
      <point x="1144.16" y="639.362"/>
    </contour>
  </outline>
</glyph>
<glyph name="dieresis" format="1">
  <advance width="1173"/>
  <unicode hex="00A8"/>
  <outline>
    <contour>
      <point x="305" y="1536" type="line"/>
      <point x="113" y="1536" type="line"/>
      <point x="113" y="1344" type="line"/>
      <point x="305" y="1344" type="line"/>
    </contour>
    <contour>
      <point x="1073" y="1536" type="line"/>
      <point x="881" y="1536" type="line"/>
      <point x="881" y="1344" type="line"/>
      <point x="1073" y="1344" type="line"/>
    </contour>
  </outline>
</glyph>
<glyph name="copyright" format="1">
  <advance width="1850"/>
  <unicode hex="00A9"/>
  <outline>
    <contour>
      <point x="924" y="1664" type="curve" smooth="yes"/>
      <point x="439.776" y="1664"/>
      <point x="152.768" y="1544.48"/>
      <point x="104.5" y="1112" type="curve" smooth="yes"/>
      <point x="96.167" y="1037.33"/>
      <point x="92" y="954.667"/>
      <point x="92" y="864" type="curve" smooth="yes"/>
      <point x="92" y="394.932"/>
      <point x="212.733" y="152.524"/>
      <point x="618" y="85.5" type="curve" smooth="yes"/>
      <point x="704.667" y="71.167"/>
      <point x="806.667" y="64"/>
      <point x="924" y="64" type="curve" smooth="yes"/>
      <point x="1408.22" y="64"/>
      <point x="1695.23" y="183.521"/>
      <point x="1743.5" y="616" type="curve" smooth="yes"/>
      <point x="1751.83" y="690.667"/>
      <point x="1756" y="773.334"/>
      <point x="1756" y="864" type="curve" smooth="yes"/>
      <point x="1756" y="1333.07"/>
      <point x="1635.27" y="1575.47"/>
      <point x="1230" y="1642.5" type="curve" smooth="yes"/>
      <point x="1143.33" y="1656.83"/>
      <point x="1041.33" y="1664"/>
    </contour>
    <contour>
      <point x="924" y="224" type="curve" smooth="yes"/>
      <point x="538.928" y="224"/>
      <point x="336.247" y="269.365"/>
      <point x="296" y="616.5" type="curve" smooth="yes"/>
      <point x="288" y="685.5"/>
      <point x="284" y="768"/>
      <point x="284" y="864" type="curve" smooth="yes"/>
      <point x="284" y="1254.15"/>
      <point x="337.287" y="1468.53"/>
      <point x="699" y="1496.5" type="curve" smooth="yes"/>
      <point x="763.667" y="1501.5"/>
      <point x="838.667" y="1504"/>
      <point x="924" y="1504" type="curve" smooth="yes"/>
      <point x="1309.07" y="1504"/>
      <point x="1511.75" y="1458.63"/>
      <point x="1552" y="1111.5" type="curve" smooth="yes"/>
      <point x="1560" y="1042.5"/>
      <point x="1564" y="960"/>
      <point x="1564" y="864" type="curve" smooth="yes"/>
      <point x="1564" y="473.852"/>
      <point x="1510.71" y="259.468"/>
      <point x="1149" y="231.5" type="curve" smooth="yes"/>
      <point x="1084.33" y="226.5"/>
      <point x="1009.33" y="224"/>
    </contour>
    <contour>
      <point x="1436" y="1027" type="line"/>
      <point x="1436" y="1326.34"/>
      <point x="1230.14" y="1375"/>
      <point x="923" y="1375" type="curve" smooth="yes"/>
      <point x="656.543" y="1375"/>
      <point x="480.804" y="1337.06"/>
      <point x="433" y="1126.5" type="curve" smooth="yes"/>
      <point x="419" y="1064.83"/>
      <point x="412" y="986.999"/>
      <point x="412" y="893" type="curve" smooth="yes"/>
      <point x="412" y="632.993"/>
      <point x="457.309" y="479.805"/>
      <point x="666.5" y="432.5" type="curve" smooth="yes"/>
      <point x="732.833" y="417.5"/>
      <point x="818.333" y="410"/>
      <point x="923" y="410" type="curve" smooth="yes"/>
      <point x="1232.09" y="410"/>
      <point x="1436" y="456.575"/>
      <point x="1436" y="759" type="curve"/>
      <point x="1276" y="759" type="line"/>
      <point x="1276" y="552.256"/>
      <point x="1132.74" y="544"/>
      <point x="923" y="544" type="curve" smooth="yes"/>
      <point x="706.79" y="544"/>
      <point x="581.527" y="565.056"/>
      <point x="575.5" y="774" type="curve" smooth="yes"/>
      <point x="574.5" y="808.667"/>
      <point x="574" y="848.334"/>
      <point x="574" y="893" type="curve" smooth="yes"/>
      <point x="574" y="1101.58"/>
      <point x="583.687" y="1211.32"/>
      <point x="776.5" y="1234" type="curve" smooth="yes"/>
      <point x="816.167" y="1238.67"/>
      <point x="865" y="1241"/>
      <point x="923" y="1241" type="curve" smooth="yes"/>
      <point x="1133.18" y="1241"/>
      <point x="1276" y="1238.1"/>
      <point x="1276" y="1027" type="curve"/>
    </contour>
  </outline>
</glyph>
<glyph name="guillemotleft" format="1">
  <advance width="1262"/>
  <unicode hex="00AB"/>
  <outline>
    <contour>
      <point x="729" y="256" type="line"/>
      <point x="633" y="128" type="line"/>
      <point x="89" y="512" type="line"/>
      <point x="89" y="704" type="line"/>
      <point x="633" y="1088" type="line"/>
      <point x="729" y="960" type="line"/>
      <point x="217" y="608" type="line"/>
    </contour>
    <contour>
      <point x="1177" y="256" type="line"/>
      <point x="1081" y="128" type="line"/>
      <point x="537" y="512" type="line"/>
      <point x="537" y="704" type="line"/>
      <point x="1081" y="1088" type="line"/>
      <point x="1177" y="960" type="line"/>
      <point x="665" y="608" type="line"/>
    </contour>
  </outline>
</glyph>
<glyph name="logicalnot" format="1">
  <advance width="1189"/>
  <unicode hex="00AC"/>
  <outline>
    <contour>
      <point x="1061" y="640" type="line"/>
      <point x="869" y="640" type="line"/>
      <point x="869" y="928" type="line"/>
      <point x="101" y="928" type="line"/>
      <point x="101" y="1088" type="line"/>
      <point x="1061" y="1088" type="line"/>
    </contour>
  </outline>
</glyph>
<glyph name="registered" format="1">
  <advance width="1850"/>
  <unicode hex="00AE"/>
  <outline>
    <contour>
      <point x="879.7" y="800.349" type="curve" smooth="yes"/>
      <point x="1102.81" y="800.349"/>
      <point x="1208" y="770.338"/>
      <point x="1208" y="536" type="curve" smooth="yes"/>
      <point x="1208" y="384" type="line"/>
      <point x="1369" y="384" type="line"/>
      <point x="1369" y="536" type="line" smooth="yes"/>
      <point x="1369" y="744.115"/>
      <point x="1311.39" y="836.575"/>
      <point x="1124" y="860" type="curve"/>
      <point x="1272.99" y="869.312"/>
      <point x="1368" y="937.529"/>
      <point x="1368" y="1088" type="curve"/>
      <point x="1364.03" y="1357.36"/>
      <point x="1111.63" y="1376"/>
      <point x="824" y="1376" type="curve" smooth="yes"/>
      <point x="537" y="1376" type="line"/>
      <point x="537" y="384" type="line"/>
      <point x="697" y="384" type="line"/>
      <point x="697" y="800" type="line"/>
      <point x="792" y="800" type="line" smooth="yes"/>
      <point x="821.571" y="800"/>
      <point x="850.983" y="800.349"/>
    </contour>
    <contour>
      <point x="1208" y="1088" type="curve" smooth="yes"/>
      <point x="1208" y="937.26"/>
      <point x="1054.91" y="927.806"/>
      <point x="893.524" y="927.806" type="curve" smooth="yes"/>
      <point x="870.378" y="927.806"/>
      <point x="847.061" y="928"/>
      <point x="824" y="928" type="curve" smooth="yes"/>
      <point x="697" y="928" type="line"/>
      <point x="697" y="1248" type="line"/>
      <point x="824" y="1248" type="line" smooth="yes"/>
      <point x="843.326" y="1248"/>
      <point x="862.871" y="1248.11"/>
      <point x="882.369" y="1248.11" type="curve" smooth="yes"/>
      <point x="1046.81" y="1248.11"/>
      <point x="1208" y="1240.05"/>
    </contour>
    <contour>
      <point x="924" y="1664" type="curve" smooth="yes"/>
      <point x="439.776" y="1664"/>
      <point x="152.768" y="1544.48"/>
      <point x="104.5" y="1112" type="curve" smooth="yes"/>
      <point x="96.167" y="1037.33"/>
      <point x="92" y="954.667"/>
      <point x="92" y="864" type="curve" smooth="yes"/>
      <point x="92" y="394.932"/>
      <point x="212.733" y="152.524"/>
      <point x="618" y="85.5" type="curve" smooth="yes"/>
      <point x="704.667" y="71.167"/>
      <point x="806.667" y="64"/>
      <point x="924" y="64" type="curve" smooth="yes"/>
      <point x="1408.22" y="64"/>
      <point x="1695.23" y="183.521"/>
      <point x="1743.5" y="616" type="curve" smooth="yes"/>
      <point x="1751.83" y="690.667"/>
      <point x="1756" y="773.334"/>
      <point x="1756" y="864" type="curve" smooth="yes"/>
      <point x="1756" y="1333.07"/>
      <point x="1635.27" y="1575.47"/>
      <point x="1230" y="1642.5" type="curve" smooth="yes"/>
      <point x="1143.33" y="1656.83"/>
      <point x="1041.33" y="1664"/>
    </contour>
    <contour>
      <point x="924" y="224" type="curve" smooth="yes"/>
      <point x="538.928" y="224"/>
      <point x="336.247" y="269.365"/>
      <point x="296" y="616.5" type="curve" smooth="yes"/>
      <point x="288" y="685.5"/>
      <point x="284" y="768"/>
      <point x="284" y="864" type="curve" smooth="yes"/>
      <point x="284" y="1254.15"/>
      <point x="337.287" y="1468.53"/>
      <point x="699" y="1496.5" type="curve" smooth="yes"/>
      <point x="763.667" y="1501.5"/>
      <point x="838.667" y="1504"/>
      <point x="924" y="1504" type="curve" smooth="yes"/>
      <point x="1309.07" y="1504"/>
      <point x="1511.75" y="1458.63"/>
      <point x="1552" y="1111.5" type="curve" smooth="yes"/>
      <point x="1560" y="1042.5"/>
      <point x="1564" y="960"/>
      <point x="1564" y="864" type="curve" smooth="yes"/>
      <point x="1564" y="473.852"/>
      <point x="1510.71" y="259.468"/>
      <point x="1149" y="231.5" type="curve" smooth="yes"/>
      <point x="1084.33" y="226.5"/>
      <point x="1009.33" y="224"/>
    </contour>
  </outline>
</glyph>
<glyph name="macron" format="1">
  <advance width="981"/>
  <unicode hex="00AF"/>
  <outline>
    <contour>
      <point x="113" y="1344" type="line"/>
      <point x="881" y="1344" type="line"/>
      <point x="881" y="1504" type="line"/>
      <point x="113" y="1504" type="line"/>
    </contour>
  </outline>
</glyph>
<glyph name="degree" format="1">
  <advance width="1093"/>
  <unicode hex="00B0"/>
  <outline>
    <contour>
      <point x="997" y="512" type="curve" smooth="yes"/>
      <point x="997" y="788.651"/>
      <point x="823.936" y="928"/>
      <point x="549" y="928" type="curve" smooth="yes"/>
      <point x="274.065" y="928"/>
      <point x="101" y="788.643"/>
      <point x="101" y="512" type="curve" smooth="yes"/>
      <point x="101" y="235.349"/>
      <point x="274.063" y="96"/>
      <point x="549" y="96" type="curve" smooth="yes"/>
      <point x="823.935" y="96"/>
      <point x="997" y="235.357"/>
    </contour>
    <contour>
      <point x="805" y="512" type="curve" smooth="yes"/>
      <point x="805" y="341.986"/>
      <point x="716.383" y="256"/>
      <point x="549.001" y="256" type="curve" smooth="yes"/>
      <point x="380.731" y="256"/>
      <point x="293" y="341.018"/>
      <point x="293" y="512" type="curve" smooth="yes"/>
      <point x="293" y="682.987"/>
      <point x="380.722" y="768"/>
      <point x="549" y="768" type="curve" smooth="yes"/>
      <point x="716.376" y="768"/>
      <point x="805" y="682.008"/>
    </contour>
  </outline>
</glyph>
<glyph name="twosuperior" format="1">
  <advance width="1298"/>
  <unicode hex="00B2"/>
  <outline>
    <contour>
      <point x="658" y="1408" type="curve" smooth="yes"/>
      <point x="691.745" y="1408"/>
      <point x="724.585" y="1408.64"/>
      <point x="755.775" y="1408.64" type="curve" smooth="yes"/>
      <point x="900.032" y="1408.64"/>
      <point x="1009" y="1395.03"/>
      <point x="1009" y="1242" type="curve" smooth="yes"/>
      <point x="1009" y="1091.86"/>
      <point x="943.917" y="1059.44"/>
      <point x="819" y="1035" type="curve" smooth="yes"/>
      <point x="433" y="962" type="line" smooth="yes"/>
      <point x="243.146" y="925.755"/>
      <point x="113" y="886.763"/>
      <point x="113" y="672" type="curve" smooth="yes"/>
      <point x="113" y="448" type="line"/>
      <point x="1171" y="448" type="line"/>
      <point x="1171" y="608" type="line"/>
      <point x="305" y="608" type="line"/>
      <point x="305" y="811.054"/>
      <point x="452.219" y="798.464"/>
      <point x="625" y="833" type="curve" smooth="yes"/>
      <point x="883" y="884" type="line" smooth="yes"/>
      <point x="1087.97" y="923.671"/>
      <point x="1201" y="1001.93"/>
      <point x="1201" y="1243" type="curve" smooth="yes"/>
      <point x="1201" y="1563.62"/>
      <point x="979.066" y="1568"/>
      <point x="658" y="1568" type="curve" smooth="yes"/>
      <point x="642.188" y="1568" type="line" smooth="yes"/>
      <point x="337.852" y="1568"/>
      <point x="113" y="1565.31"/>
      <point x="113" y="1248" type="curve"/>
      <point x="305" y="1248" type="line"/>
      <point x="305" y="1392.37"/>
      <point x="397.434" y="1409.75"/>
      <point x="526.228" y="1409.75" type="curve" smooth="yes"/>
      <point x="567.089" y="1409.75"/>
      <point x="611.609" y="1408"/>
    </contour>
  </outline>
</glyph>
<glyph name="threesuperior" format="1">
  <advance width="1422"/>
  <unicode hex="00B3"/>
  <outline>
    <contour>
      <point x="495.661" y="565.406" type="curve" smooth="yes"/>
      <point x="356.1" y="565.406"/>
      <point x="287" y="582.553"/>
      <point x="287" y="703" type="curve"/>
      <point x="95" y="703" type="line"/>
      <point x="95" y="441.718"/>
      <point x="288.758" y="413.986"/>
      <point x="531.709" y="413.986" type="curve" smooth="yes"/>
      <point x="597.177" y="413.986"/>
      <point x="666.217" y="416"/>
      <point x="736" y="416" type="curve" smooth="yes"/>
      <point x="749.718" y="416"/>
      <point x="763.298" y="415.987"/>
      <point x="776.729" y="415.987" type="curve" smooth="yes"/>
      <point x="1082.33" y="415.987"/>
      <point x="1310" y="422.522"/>
      <point x="1310" y="733" type="curve" smooth="yes"/>
      <point x="1310" y="886.481"/>
      <point x="1258.23" y="932.192"/>
      <point x="1150" y="976" type="curve"/>
      <point x="1259.67" y="1009.94"/>
      <point x="1310" y="1073.88"/>
      <point x="1310" y="1218" type="curve" smooth="yes"/>
      <point x="1310" y="1523.17"/>
      <point x="1109.6" y="1536.11"/>
      <point x="819.04" y="1536.11" type="curve" smooth="yes"/>
      <point x="792.105" y="1536.11"/>
      <point x="764.396" y="1536"/>
      <point x="736" y="1536" type="curve" smooth="yes"/>
      <point x="664.186" y="1536"/>
      <point x="593.694" y="1538.31"/>
      <point x="527.262" y="1538.31" type="curve" smooth="yes"/>
      <point x="283.901" y="1538.31"/>
      <point x="95" y="1507.29"/>
      <point x="95" y="1218" type="curve"/>
      <point x="287" y="1218" type="line"/>
      <point x="287" y="1381.64"/>
      <point x="383.786" y="1372.85"/>
      <point x="548.5" y="1375" type="curve" smooth="yes"/>
      <point x="599.5" y="1375.67"/>
      <point x="662" y="1376"/>
      <point x="736" y="1376" type="curve" smooth="yes"/>
      <point x="802.846" y="1376"/>
      <point x="868.399" y="1382.45"/>
      <point x="925.771" y="1382.45" type="curve" smooth="yes"/>
      <point x="1036.67" y="1382.45"/>
      <point x="1117" y="1358.35"/>
      <point x="1117" y="1217" type="curve" smooth="yes"/>
      <point x="1117" y="1088.71"/>
      <point x="1053.98" y="1056"/>
      <point x="926" y="1056" type="curve" smooth="yes"/>
      <point x="735" y="1056" type="line"/>
      <point x="735" y="896" type="line"/>
      <point x="926" y="896" type="line" smooth="yes"/>
      <point x="1057" y="896"/>
      <point x="1117" y="867.854"/>
      <point x="1117" y="734" type="curve" smooth="yes"/>
      <point x="1117" y="592.054"/>
      <point x="1015.12" y="573.821"/>
      <point x="882.144" y="573.821" type="curve" smooth="yes"/>
      <point x="836.171" y="573.821"/>
      <point x="786.481" y="576"/>
      <point x="736" y="576" type="curve" smooth="yes"/>
      <point x="675.157" y="576"/>
      <point x="581.539" y="565.406"/>
    </contour>
  </outline>
</glyph>
<glyph name="acute" format="1">
  <advance width="838"/>
  <unicode hex="00B4"/>
  <outline>
    <contour>
      <point x="800" y="1664" type="line"/>
      <point x="672" y="1856" type="line"/>
      <point x="96" y="1376" type="line"/>
      <point x="160" y="1280" type="line"/>
    </contour>
  </outline>
</glyph>
<glyph name="mu" format="1">
  <advance width="1636"/>
  <unicode hex="00B5"/>
  <outline>
    <contour>
      <point x="724" y="-32" type="curve" smooth="yes"/>
      <point x="565.46" y="-32"/>
      <point x="439.82" y="-16.1416"/>
      <point x="340" y="33" type="curve"/>
      <point x="340" y="-384" type="line"/>
      <point x="148" y="-384" type="line"/>
      <point x="148" y="-103.5" type="line" smooth="yes"/>
      <point x="148" y="38.3896"/>
      <point x="147" y="164.687"/>
      <point x="147" y="293.5" type="curve" smooth="yes"/>
      <point x="147" y="580" type="line" smooth="yes"/>
      <point x="147" y="681.154"/>
      <point x="148" y="778.921"/>
      <point x="148" y="886.5" type="curve" smooth="yes"/>
      <point x="148" y="1088" type="line"/>
      <point x="340" y="1088" type="line"/>
      <point x="340" y="512" type="line" smooth="yes"/>
      <point x="340" y="195.16"/>
      <point x="465.874" y="128"/>
      <point x="788" y="128" type="curve" smooth="yes"/>
      <point x="1073.5" y="128"/>
      <point x="1300" y="174.9"/>
      <point x="1300" y="448" type="curve" smooth="yes"/>
      <point x="1300" y="1088" type="line"/>
      <point x="1492" y="1088" type="line"/>
      <point x="1492" y="0" type="line"/>
      <point x="1300" y="0" type="line"/>
      <point x="1300" y="191" type="line"/>
      <point x="1211.31" y="23.4336"/>
      <point x="990.216" y="-32"/>
    </contour>
  </outline>
</glyph>
<glyph name="paragraph" format="1">
  <advance width="1839"/>
  <unicode hex="00B6"/>
  <outline>
    <contour>
      <point x="1036" y="1376" type="line"/>
      <point x="1420" y="1376" type="line"/>
      <point x="1420" y="0" type="line"/>
      <point x="1612" y="0" type="line"/>
      <point x="1612" y="1376" type="line"/>
      <point x="1804" y="1376" type="line"/>
      <point x="1804" y="1536" type="line"/>
      <point x="781" y="1536" type="line" smooth="yes"/>
      <point x="441.247" y="1536"/>
      <point x="119.373" y="1521.55"/>
      <point x="83.5" y="1225" type="curve" smooth="yes"/>
      <point x="78.5" y="1183.67"/>
      <point x="76" y="1138"/>
      <point x="76" y="1088" type="curve" smooth="yes"/>
      <point x="76" y="658.051"/>
      <point x="345.721" y="608"/>
      <point x="781" y="608" type="curve" smooth="yes"/>
      <point x="844" y="608" type="line"/>
      <point x="844" y="0" type="line"/>
      <point x="1036" y="0" type="line"/>
    </contour>
  </outline>
</glyph>
<glyph name="periodcentered" format="1">
  <advance width="414"/>
  <unicode hex="00B7"/>
  <outline>
    <contour>
      <point x="306" y="896" type="line"/>
      <point x="114" y="896" type="line"/>
      <point x="114" y="704" type="line"/>
      <point x="306" y="704" type="line"/>
    </contour>
  </outline>
</glyph>
<glyph name="cedilla" format="1">
  <advance width="561"/>
  <unicode hex="00B8"/>
  <outline>
    <contour>
      <point x="237" y="-128" type="line"/>
      <point x="367.237" y="-128"/>
      <point x="493" y="-158.237"/>
      <point x="493" y="-288" type="curve" smooth="yes"/>
      <point x="493" y="-502.104"/>
      <point x="321.142" y="-544"/>
      <point x="109" y="-544" type="curve"/>
      <point x="109" y="-384" type="line"/>
      <point x="121.425" y="-384"/>
      <point x="133.629" y="-384.101"/>
      <point x="145.486" y="-384.101" type="curve" smooth="yes"/>
      <point x="232.6" y="-384.101"/>
      <point x="301" y="-378.669"/>
      <point x="301" y="-288" type="curve" smooth="yes"/>
      <point x="301" y="-228.528"/>
      <point x="223.763" y="-223.835"/>
      <point x="149.744" y="-223.835" type="curve" smooth="yes"/>
      <point x="135.873" y="-223.835"/>
      <point x="122.115" y="-224"/>
      <point x="109" y="-224" type="curve"/>
      <point x="109" y="64" type="line"/>
      <point x="237" y="64" type="line"/>
    </contour>
  </outline>
</glyph>
<glyph name="onesuperior" format="1">
  <advance width="880"/>
  <unicode hex="00B9"/>
  <outline>
    <contour>
      <point x="35" y="1120" type="line"/>
      <point x="131" y="992" type="line"/>
      <point x="547" y="1376" type="line"/>
      <point x="547" y="448" type="line"/>
      <point x="739" y="448" type="line"/>
      <point x="739" y="1536" type="line"/>
      <point x="483" y="1536" type="line"/>
    </contour>
  </outline>
</glyph>
<glyph name="ordmasculine" format="1">
  <advance width="1599"/>
  <unicode hex="00BA"/>
  <outline>
    <contour>
      <point x="798" y="385" type="curve" smooth="yes"/>
      <point x="330.984" y="385"/>
      <point x="94" y="495.885"/>
      <point x="94" y="961" type="curve" smooth="yes"/>
      <point x="94" y="1426.1"/>
      <point x="330.979" y="1537"/>
      <point x="798" y="1537" type="curve" smooth="yes"/>
      <point x="1265.02" y="1537"/>
      <point x="1502" y="1426.12"/>
      <point x="1502" y="961" type="curve" smooth="yes"/>
      <point x="1502" y="495.902"/>
      <point x="1265.02" y="385"/>
    </contour>
    <contour>
      <point x="286" y="961" type="curve" smooth="yes"/>
      <point x="286" y="682.005"/>
      <point x="343.668" y="572.282"/>
      <point x="604.5" y="551.5" type="curve" smooth="yes"/>
      <point x="658.833" y="547.167"/>
      <point x="723.333" y="545"/>
      <point x="798" y="545" type="curve" smooth="yes"/>
      <point x="1044.79" y="545"/>
      <point x="1226.37" y="550.021"/>
      <point x="1284" y="734" type="curve" smooth="yes"/>
      <point x="1301.33" y="789.333"/>
      <point x="1310" y="865"/>
      <point x="1310" y="961" type="curve" smooth="yes"/>
      <point x="1310" y="1210.37"/>
      <point x="1257.83" y="1341.55"/>
      <point x="1040" y="1366" type="curve" smooth="yes"/>
      <point x="974.667" y="1373.33"/>
      <point x="894" y="1377"/>
      <point x="798" y="1377" type="curve" smooth="yes"/>
      <point x="551.21" y="1377"/>
      <point x="369.632" y="1371.98"/>
      <point x="312" y="1188" type="curve" smooth="yes"/>
      <point x="294.667" y="1132.67"/>
      <point x="286" y="1057"/>
    </contour>
  </outline>
</glyph>
<glyph name="guillemotright" format="1">
  <advance width="1264"/>
  <unicode hex="00BB"/>
  <outline>
    <contour>
      <point x="606" y="608" type="line"/>
      <point x="94" y="960" type="line"/>
      <point x="190" y="1088" type="line"/>
      <point x="734" y="704" type="line"/>
      <point x="734" y="512" type="line"/>
      <point x="190" y="128" type="line"/>
      <point x="94" y="256" type="line"/>
    </contour>
    <contour>
      <point x="1054" y="608" type="line"/>
      <point x="542" y="960" type="line"/>
      <point x="638" y="1088" type="line"/>
      <point x="1182" y="704" type="line"/>
      <point x="1182" y="512" type="line"/>
      <point x="638" y="128" type="line"/>
      <point x="542" y="256" type="line"/>
    </contour>
  </outline>
</glyph>
<glyph name="AE" format="1">
  <advance width="3063"/>
  <unicode hex="00C6"/>
  <outline>
    <contour>
      <point x="1501" y="0" type="line"/>
      <point x="1501" y="352" type="line"/>
      <point x="611" y="352" type="line"/>
      <point x="285" y="0" type="line"/>
      <point x="29" y="0" type="line"/>
      <point x="1437" y="1536" type="line"/>
      <point x="2973" y="1536" type="line"/>
      <point x="2973" y="1376" type="line"/>
      <point x="1693" y="1376" type="line"/>
      <point x="1693" y="864" type="line"/>
      <point x="2909" y="864" type="line"/>
      <point x="2909" y="704" type="line"/>
      <point x="1693" y="704" type="line"/>
      <point x="1693" y="160" type="line"/>
      <point x="2973" y="160" type="line"/>
      <point x="2973" y="0" type="line"/>
    </contour>
    <contour>
      <point x="1501" y="512" type="line"/>
      <point x="1501" y="1376" type="line"/>
      <point x="733" y="512" type="line"/>
    </contour>
  </outline>
</glyph>
<glyph name="Eth" format="1">
  <advance width="2165"/>
  <unicode hex="00D0"/>
  <outline>
    <contour>
      <point x="67" y="704" type="line"/>
      <point x="195" y="704" type="line"/>
      <point x="195" y="0" type="line"/>
      <point x="1346" y="0" type="line" smooth="yes"/>
      <point x="1800.89" y="0"/>
      <point x="2033.26" y="92.1367"/>
      <point x="2047.5" y="529.5" type="curve" smooth="yes"/>
      <point x="2049.83" y="601.167"/>
      <point x="2051" y="680.667"/>
      <point x="2051" y="768" type="curve" smooth="yes"/>
      <point x="2051" y="1086.44"/>
      <point x="2050" y="1341.44"/>
      <point x="1841.5" y="1453" type="curve" smooth="yes"/>
      <point x="1717.27" y="1519.46"/>
      <point x="1551.77" y="1536"/>
      <point x="1346" y="1536" type="curve" smooth="yes"/>
      <point x="195" y="1536" type="line"/>
      <point x="195" y="864" type="line"/>
      <point x="67" y="864" type="line"/>
    </contour>
    <contour>
      <point x="387" y="160" type="line"/>
      <point x="387" y="704" type="line"/>
      <point x="835" y="704" type="line"/>
      <point x="835" y="864" type="line"/>
      <point x="387" y="864" type="line"/>
      <point x="387" y="1376" type="line"/>
      <point x="1369.62" y="1376" type="line" smooth="yes"/>
      <point x="1614.14" y="1376"/>
      <point x="1795.82" y="1372.86"/>
      <point x="1839.5" y="1169.5" type="curve" smooth="yes"/>
      <point x="1856.88" y="1088.6"/>
      <point x="1859.46" y="999.194"/>
      <point x="1859.46" y="899.835" type="curve" smooth="yes"/>
      <point x="1859.46" y="857.715"/>
      <point x="1859" y="813.807"/>
      <point x="1859" y="768" type="curve" smooth="yes"/>
      <point x="1859" y="706.257"/>
      <point x="1860.89" y="644.038"/>
      <point x="1860.89" y="584.343" type="curve" smooth="yes"/>
      <point x="1860.89" y="404.436"/>
      <point x="1843.73" y="247.45"/>
      <point x="1706" y="195.5" type="curve" smooth="yes"/>
      <point x="1612.77" y="160.333"/>
      <point x="1493.83" y="160"/>
      <point x="1354.11" y="160" type="curve" smooth="yes"/>
    </contour>
  </outline>
</glyph>
<glyph name="multiply" format="1">
  <advance width="1051"/>
  <unicode hex="00D7"/>
  <outline>
    <contour>
      <point x="972" y="1181" type="line"/>
      <point x="836" y="1317" type="line"/>
      <point x="519" y="1000" type="line"/>
      <point x="202" y="1317" type="line"/>
      <point x="66" y="1181" type="line"/>
      <point x="383" y="864" type="line"/>
      <point x="66" y="547" type="line"/>
      <point x="202" y="411" type="line"/>
      <point x="519" y="728" type="line"/>
      <point x="836" y="411" type="line"/>
      <point x="972" y="547" type="line"/>
      <point x="655" y="864" type="line"/>
    </contour>
  </outline>
</glyph>
<glyph name="Oslash" format="1">
  <advance width="2205"/>
  <unicode hex="00D8"/>
  <outline>
    <contour>
      <point x="810.002" y="1568" type="curve" smooth="yes"/>
      <point x="1392" y="1568" type="line"/>
      <point x="1482" y="1792" type="line"/>
      <point x="1642" y="1728" type="line"/>
      <point x="1574" y="1561" type="line"/>
      <point x="1928.79" y="1525.52"/>
      <point x="2075.75" y="1392.16"/>
      <point x="2087.5" y="1016" type="curve" smooth="yes"/>
      <point x="2089.83" y="941.333"/>
      <point x="2091" y="858.667"/>
      <point x="2091" y="768" type="curve" smooth="yes"/>
      <point x="2091" y="756.176" type="line" smooth="yes"/>
      <point x="2091" y="436.634"/>
      <point x="2089.75" y="169.799"/>
      <point x="1883" y="54.5" type="curve" smooth="yes"/>
      <point x="1760.13" y="-14.0273"/>
      <point x="1594.25" y="-32"/>
      <point x="1388" y="-32" type="curve" smooth="yes"/>
      <point x="932.002" y="-32" type="line"/>
      <point x="842.002" y="-256" type="line"/>
      <point x="682.002" y="-192" type="line"/>
      <point x="747.002" y="-31" type="line"/>
      <point x="320.651" y="-21.5254"/>
      <point x="121.326" y="97.2393"/>
      <point x="110.002" y="520" type="curve" smooth="yes"/>
      <point x="108.002" y="594.667"/>
      <point x="107.002" y="677.334"/>
      <point x="107.002" y="768" type="curve" smooth="yes"/>
      <point x="107" y="792.617" type="line" smooth="yes"/>
      <point x="107" y="1107.46"/>
      <point x="109.598" y="1366.95"/>
      <point x="315.002" y="1481.5" type="curve" smooth="yes"/>
      <point x="437.878" y="1550.03"/>
      <point x="603.756" y="1568"/>
    </contour>
    <contour>
      <point x="807.416" y="128" type="curve" smooth="yes"/>
      <point x="811.002" y="128" type="line"/>
      <point x="1327" y="1408" type="line"/>
      <point x="810.002" y="1408" type="line" smooth="yes"/>
      <point x="548.795" y="1408"/>
      <point x="359.748" y="1406.79"/>
      <point x="317.002" y="1190" type="curve" smooth="yes"/>
      <point x="301.002" y="1108.86"/>
      <point x="298.315" y="1020.45"/>
      <point x="298.315" y="922.983" type="curve" smooth="yes"/>
      <point x="298.315" y="873.715"/>
      <point x="299.002" y="822.132"/>
      <point x="299.002" y="768" type="curve" smooth="yes"/>
      <point x="299.002" y="699.455"/>
      <point x="296.53" y="629.595"/>
      <point x="296.53" y="562.64" type="curve" smooth="yes"/>
      <point x="296.53" y="380.913"/>
      <point x="314.739" y="220.58"/>
      <point x="450.002" y="166" type="curve" smooth="yes"/>
      <point x="543.896" y="128.112"/>
      <point x="663.665" y="128"/>
    </contour>
    <contour>
      <point x="1388" y="128" type="line" smooth="yes"/>
      <point x="1649.36" y="128"/>
      <point x="1837.33" y="129.569"/>
      <point x="1880" y="346" type="curve" smooth="yes"/>
      <point x="1896.94" y="431.883"/>
      <point x="1899.45" y="525.854"/>
      <point x="1899.45" y="630.156" type="curve" smooth="yes"/>
      <point x="1899.45" y="674.206"/>
      <point x="1899" y="720.098"/>
      <point x="1899" y="768" type="curve" smooth="yes"/>
      <point x="1899" y="836.359"/>
      <point x="1901.42" y="905.824"/>
      <point x="1901.42" y="972.355" type="curve" smooth="yes"/>
      <point x="1901.42" y="1154.54"/>
      <point x="1883.26" y="1314.72"/>
      <point x="1747.5" y="1370" type="curve" smooth="yes"/>
      <point x="1689.04" y="1393.79"/>
      <point x="1599.04" y="1402.52"/>
      <point x="1512" y="1406" type="curve"/>
      <point x="997.002" y="128" type="line"/>
    </contour>
  </outline>
</glyph>
<glyph name="Thorn" format="1">
  <advance width="1977"/>
  <unicode hex="00DE"/>
  <outline>
    <contour>
      <point x="147" y="0" type="line"/>
      <point x="339" y="0" type="line"/>
      <point x="339" y="416" type="line"/>
      <point x="1170" y="416" type="line" smooth="yes"/>
      <point x="1525.96" y="416"/>
      <point x="1853.99" y="421.83"/>
      <point x="1871.5" y="752" type="curve" smooth="yes"/>
      <point x="1873.83" y="796"/>
      <point x="1875" y="844"/>
      <point x="1875" y="896" type="curve" smooth="yes"/>
      <point x="1875" y="1193.56"/>
      <point x="1811.35" y="1297.38"/>
      <point x="1542.5" y="1331.5" type="curve" smooth="yes"/>
      <point x="1476.83" y="1339.83"/>
      <point x="1396.33" y="1344"/>
      <point x="1301" y="1344" type="curve" smooth="yes"/>
      <point x="339" y="1344" type="line"/>
      <point x="339" y="1536" type="line"/>
      <point x="147" y="1536" type="line"/>
    </contour>
    <contour>
      <point x="339" y="1184" type="line"/>
      <point x="1170" y="1184" type="line" smooth="yes"/>
      <point x="1236.62" y="1184"/>
      <point x="1307.56" y="1188.13"/>
      <point x="1374.72" y="1188.13" type="curve" smooth="yes"/>
      <point x="1534.1" y="1188.13"/>
      <point x="1672.16" y="1164.88"/>
      <point x="1680.5" y="1008" type="curve" smooth="yes"/>
      <point x="1682.17" y="976.666"/>
      <point x="1683" y="939.333"/>
      <point x="1683" y="896" type="curve" smooth="yes"/>
      <point x="1683" y="722.284"/>
      <point x="1677.42" y="628.036"/>
      <point x="1530" y="597" type="curve" smooth="yes"/>
      <point x="1433.75" y="576.736"/>
      <point x="1327.99" y="575.995"/>
      <point x="1200.56" y="575.995" type="curve" smooth="yes"/>
      <point x="1170" y="576" type="line"/>
      <point x="339" y="576" type="line"/>
    </contour>
  </outline>
</glyph>
<glyph name="germandbls" format="1">
  <advance width="2024"/>
  <unicode hex="00DF"/>
  <outline>
    <contour>
      <point x="1376.32" y="737.509" type="curve" smooth="yes"/>
      <point x="1602.07" y="737.509"/>
      <point x="1736" y="707.831"/>
      <point x="1736" y="478" type="curve" smooth="yes"/>
      <point x="1736" y="232.322"/>
      <point x="1654.92" y="173.655"/>
      <point x="1417" y="163.5" type="curve" smooth="yes"/>
      <point x="1362.33" y="161.167"/>
      <point x="1297.66" y="160"/>
      <point x="1223" y="160" type="curve" smooth="yes"/>
      <point x="520" y="160" type="line"/>
      <point x="520" y="0" type="line"/>
      <point x="1287" y="0" type="line" smooth="yes"/>
      <point x="1622.5" y="0"/>
      <point x="1887.03" y="34.748"/>
      <point x="1920.5" y="331.5" type="curve" smooth="yes"/>
      <point x="1925.5" y="375.834"/>
      <point x="1928" y="424.667"/>
      <point x="1928" y="478" type="curve" smooth="yes"/>
      <point x="1928" y="692.928"/>
      <point x="1807.09" y="820.939"/>
      <point x="1608" y="832" type="curve"/>
      <point x="1752.77" y="845.404"/>
      <point x="1800" y="1008.45"/>
      <point x="1800" y="1174" type="curve" smooth="yes"/>
      <point x="1800" y="1466.14"/>
      <point x="1588" y="1536"/>
      <point x="1288" y="1536" type="curve" smooth="yes"/>
      <point x="777" y="1536" type="line" smooth="yes"/>
      <point x="441.506" y="1536"/>
      <point x="176.967" y="1501.24"/>
      <point x="143.5" y="1204.5" type="curve" smooth="yes"/>
      <point x="138.5" y="1160.17"/>
      <point x="136" y="1111.33"/>
      <point x="136" y="1058" type="curve" smooth="yes"/>
      <point x="136" y="-128" type="line"/>
      <point x="328" y="-128" type="line"/>
      <point x="328" y="1058" type="line" smooth="yes"/>
      <point x="328" y="1370.11"/>
      <point x="500.715" y="1376.01"/>
      <point x="804.599" y="1376.01" type="curve" smooth="yes"/>
      <point x="841" y="1376" type="line"/>
      <point x="1224" y="1376" type="line" smooth="yes"/>
      <point x="1423.68" y="1376"/>
      <point x="1608" y="1369.78"/>
      <point x="1608" y="1174" type="curve" smooth="yes"/>
      <point x="1608" y="913.042"/>
      <point x="1487.98" y="896"/>
      <point x="1223" y="896" type="curve" smooth="yes"/>
      <point x="520" y="896" type="line"/>
      <point x="520" y="736" type="line"/>
      <point x="1223" y="736" type="line" smooth="yes"/>
      <point x="1273.04" y="736"/>
      <point x="1325.23" y="737.509"/>
    </contour>
  </outline>
</glyph>
<glyph name="ae" format="1">
  <advance width="2693"/>
  <unicode hex="00E6"/>
  <outline>
    <contour>
      <point x="2586" y="320" type="line"/>
      <point x="2586" y="-6.58691"/>
      <point x="2284.56" y="-32"/>
      <point x="1946" y="-32" type="curve" smooth="yes"/>
      <point x="1682.15" y="-32"/>
      <point x="1457.99" y="-1.14258"/>
      <point x="1344" y="145" type="curve"/>
      <point x="1240" y="7.56738"/>
      <point x="1010.67" y="-36"/>
      <point x="763.999" y="-36" type="curve" smooth="yes"/>
      <point x="441.839" y="-36"/>
      <point x="90" y="-12.9375"/>
      <point x="90" y="293" type="curve" smooth="yes"/>
      <point x="90" y="646.861"/>
      <point x="378.288" y="659"/>
      <point x="731" y="659" type="curve" smooth="yes"/>
      <point x="920.285" y="659"/>
      <point x="1161.74" y="647.674"/>
      <point x="1242" y="544" type="curve"/>
      <point x="1242" y="805.846"/>
      <point x="1193.31" y="941.153"/>
      <point x="947" y="956" type="curve" smooth="yes"/>
      <point x="903" y="958.667"/>
      <point x="852.667" y="960"/>
      <point x="796" y="960" type="curve" smooth="yes"/>
      <point x="766.69" y="960"/>
      <point x="737.155" y="960.289"/>
      <point x="707.979" y="960.289" type="curve" smooth="yes"/>
      <point x="519.465" y="960.289"/>
      <point x="346" y="948.213"/>
      <point x="346" y="768" type="curve"/>
      <point x="154" y="768" type="line"/>
      <point x="154" y="1094.93"/>
      <point x="457.198" y="1120"/>
      <point x="796" y="1120" type="curve" smooth="yes"/>
      <point x="1074.62" y="1120"/>
      <point x="1247.9" y="1078.09"/>
      <point x="1344" y="896" type="curve"/>
      <point x="1435.77" y="1090.33"/>
      <point x="1658.37" y="1120"/>
      <point x="1946" y="1120" type="curve" smooth="yes"/>
      <point x="2365.91" y="1120"/>
      <point x="2586" y="994.701"/>
      <point x="2586" y="576" type="curve"/>
      <point x="2570" y="512" type="line"/>
      <point x="1434" y="512" type="line"/>
      <point x="1434" y="486" type="line"/>
      <point x="1439.48" y="154.739"/>
      <point x="1608.84" y="128"/>
      <point x="1946" y="128" type="curve" smooth="yes"/>
      <point x="1975.53" y="128"/>
      <point x="2005.26" y="127.703"/>
      <point x="2034.59" y="127.703" type="curve" smooth="yes"/>
      <point x="2222.42" y="127.703"/>
      <point x="2394" y="139.867"/>
      <point x="2394" y="320" type="curve"/>
    </contour>
    <contour>
      <point x="1242" y="320" type="curve" smooth="yes"/>
      <point x="1242" y="486.852"/>
      <point x="1002.92" y="496.146"/>
      <point x="804.266" y="496.146" type="curve" smooth="yes"/>
      <point x="779.358" y="496.146"/>
      <point x="755.086" y="496"/>
      <point x="732" y="496" type="curve" smooth="yes"/>
      <point x="670.038" y="496"/>
      <point x="606.948" y="499.521"/>
      <point x="548.376" y="499.521" type="curve" smooth="yes"/>
      <point x="400.859" y="499.521"/>
      <point x="282" y="477.185"/>
      <point x="282" y="320" type="curve" smooth="yes"/>
      <point x="282" y="146.217"/>
      <point x="443.413" y="126.21"/>
      <point x="627.923" y="126.21" type="curve" smooth="yes"/>
      <point x="683.116" y="126.21"/>
      <point x="740.376" y="128"/>
      <point x="796" y="128" type="curve" smooth="yes"/>
      <point x="997.28" y="128"/>
      <point x="1242" y="133.115"/>
    </contour>
    <contour>
      <point x="2394" y="640" type="line"/>
      <point x="2394" y="915.263"/>
      <point x="2223.59" y="960"/>
      <point x="1946" y="960" type="curve" smooth="yes"/>
      <point x="1632.52" y="960"/>
      <point x="1434" y="954.299"/>
      <point x="1434" y="640" type="curve"/>
    </contour>
  </outline>
</glyph>
<glyph name="ccedilla" format="1">
  <advance width="1541"/>
  <unicode hex="00E7"/>
  <outline>
    <contour>
      <point x="862" y="-288" type="curve" smooth="yes"/>
      <point x="862" y="-378.67"/>
      <point x="793.594" y="-384.101"/>
      <point x="706.482" y="-384.101" type="curve" smooth="yes"/>
      <point x="694.626" y="-384.101"/>
      <point x="682.424" y="-384"/>
      <point x="670" y="-384" type="curve"/>
      <point x="670" y="-544" type="line"/>
      <point x="881.904" y="-544"/>
      <point x="1054" y="-501.453"/>
      <point x="1054" y="-288" type="curve" smooth="yes"/>
      <point x="1054" y="-158.234"/>
      <point x="928.234" y="-128"/>
      <point x="798" y="-128" type="curve"/>
      <point x="798" y="-32" type="line"/>
      <point x="799" y="-32" type="line" smooth="yes"/>
      <point x="1177.35" y="-32"/>
      <point x="1439" y="15.209"/>
      <point x="1439" y="384" type="curve"/>
      <point x="1247" y="384" type="line"/>
      <point x="1247" y="129.24"/>
      <point x="1057.17" y="128"/>
      <point x="799" y="128" type="curve" smooth="yes"/>
      <point x="514.147" y="128"/>
      <point x="300.463" y="130.115"/>
      <point x="289.5" y="402" type="curve" smooth="yes"/>
      <point x="287.833" y="443.334"/>
      <point x="287" y="490.667"/>
      <point x="287" y="544" type="curve" smooth="yes"/>
      <point x="287" y="740.839"/>
      <point x="289.956" y="872.511"/>
      <point x="439" y="923.5" type="curve" smooth="yes"/>
      <point x="536.118" y="956.725"/>
      <point x="655.053" y="960"/>
      <point x="799" y="960" type="curve" smooth="yes"/>
      <point x="811.079" y="960"/>
      <point x="823.251" y="960.021"/>
      <point x="835.463" y="960.021" type="curve" smooth="yes"/>
      <point x="1030.06" y="960.021"/>
      <point x="1235.08" y="954.814"/>
      <point x="1245" y="778.5" type="curve" smooth="yes"/>
      <point x="1246.33" y="755.5"/>
      <point x="1247" y="730.667"/>
      <point x="1247" y="704" type="curve"/>
      <point x="1439" y="704" type="line"/>
      <point x="1439" y="1069.69"/>
      <point x="1175.64" y="1120"/>
      <point x="799" y="1120" type="curve" smooth="yes"/>
      <point x="418.334" y="1120"/>
      <point x="152.307" y="1073.86"/>
      <point x="106" y="742" type="curve" smooth="yes"/>
      <point x="98" y="684.667"/>
      <point x="94" y="618.667"/>
      <point x="94" y="544" type="curve" smooth="yes"/>
      <point x="94" y="114.538"/>
      <point x="253.609" y="-10.3555"/>
      <point x="670" y="-29" type="curve"/>
      <point x="670" y="-224" type="line"/>
      <point x="683.1" y="-224"/>
      <point x="696.838" y="-223.836"/>
      <point x="710.688" y="-223.836" type="curve" smooth="yes"/>
      <point x="784.738" y="-223.836"/>
      <point x="862" y="-228.522"/>
    </contour>
  </outline>
</glyph>
<glyph name="eth" format="1">
  <advance width="2012"/>
  <unicode hex="00F0"/>
  <outline>
    <contour>
      <point x="787" y="768" type="curve" smooth="yes"/>
      <point x="884.008" y="768"/>
      <point x="979.538" y="770.477"/>
      <point x="1071.14" y="770.477" type="curve" smooth="yes"/>
      <point x="1222.28" y="770.477"/>
      <point x="1362.74" y="763.734"/>
      <point x="1481.5" y="728" type="curve" smooth="yes"/>
      <point x="1583.76" y="697.23"/>
      <point x="1620" y="641.907"/>
      <point x="1620" y="512" type="curve" smooth="yes"/>
      <point x="1620" y="280.352"/>
      <point x="1565.59" y="173.09"/>
      <point x="1365" y="143" type="curve" smooth="yes"/>
      <point x="1298.33" y="133"/>
      <point x="1212.66" y="128"/>
      <point x="1108" y="128" type="curve" smooth="yes"/>
      <point x="787" y="128" type="line" smooth="yes"/>
      <point x="751.184" y="128" type="line" smooth="yes"/>
      <point x="521.008" y="128"/>
      <point x="309.645" y="132.964"/>
      <point x="282.5" y="335.5" type="curve" smooth="yes"/>
      <point x="278.167" y="367.833"/>
      <point x="276" y="405.333"/>
      <point x="276" y="448" type="curve" smooth="yes"/>
      <point x="276" y="758.979"/>
      <point x="473.295" y="768"/>
    </contour>
    <contour>
      <point x="389.254" y="1343.75" type="line"/>
      <point x="776.274" y="1455.46"/>
      <point x="1072.64" y="1460.13"/>
      <point x="1277.63" y="1374.65" type="curve"/>
      <point x="1069.92" y="1192.76" type="line"/>
      <point x="1148" y="1092" type="line"/>
      <point x="1395.3" y="1308.56" type="line"/>
      <point x="1533.69" y="1206.38"/>
      <point x="1608.73" y="1044.29"/>
      <point x="1620" y="832" type="curve"/>
      <point x="1479.31" y="918.591"/>
      <point x="1246.83" y="929.068"/>
      <point x="1011.01" y="929.068" type="curve" smooth="yes"/>
      <point x="935.72" y="929.068"/>
      <point x="860.091" y="928"/>
      <point x="787" y="928" type="curve" smooth="yes"/>
      <point x="361.955" y="928"/>
      <point x="84" y="860.377"/>
      <point x="84" y="448" type="curve" smooth="yes"/>
      <point x="84" y="35.6455"/>
      <point x="361.982" y="-32"/>
      <point x="787" y="-32" type="curve" smooth="yes"/>
      <point x="1108" y="-32" type="line" smooth="yes"/>
      <point x="1572.4" y="-32"/>
      <point x="1794.51" y="72.3701"/>
      <point x="1808.5" y="520" type="curve" smooth="yes"/>
      <point x="1810.83" y="594.667"/>
      <point x="1812" y="677.334"/>
      <point x="1812" y="768" type="curve" smooth="yes"/>
      <point x="1812" y="1076.28"/>
      <point x="1704.36" y="1289.95"/>
      <point x="1524.23" y="1421.45" type="curve"/>
      <point x="1754.77" y="1623.33" type="line"/>
      <point x="1676.69" y="1724.09" type="line"/>
      <point x="1409.22" y="1489.88" type="line"/>
      <point x="1136.31" y="1620.83"/>
      <point x="749.921" y="1613.77"/>
      <point x="330.125" y="1497.05" type="curve"/>
    </contour>
  </outline>
</glyph>
<glyph name="divide" format="1">
  <advance width="1201"/>
  <unicode hex="00F7"/>
  <outline>
    <contour>
      <point x="81" y="512" type="line"/>
      <point x="1105" y="512" type="line"/>
      <point x="1105" y="672" type="line"/>
      <point x="81" y="672" type="line"/>
    </contour>
    <contour>
      <point x="721" y="960" type="line"/>
      <point x="529" y="960" type="line"/>
      <point x="529" y="768" type="line"/>
      <point x="721" y="768" type="line"/>
    </contour>
    <contour>
      <point x="721" y="384" type="line"/>
      <point x="529" y="384" type="line"/>
      <point x="529" y="192" type="line"/>
      <point x="721" y="192" type="line"/>
    </contour>
  </outline>
</glyph>
<glyph name="oslash" format="1">
  <advance width="1602"/>
  <unicode hex="00F8"/>
  <outline>
    <contour>
      <point x="472" y="-5" type="curve" smooth="yes"/>
      <point x="201.762" y="49.4512"/>
      <point x="94" y="217.8"/>
      <point x="94" y="544" type="curve" smooth="yes"/>
      <point x="94" y="1009.1"/>
      <point x="330.979" y="1120"/>
      <point x="798" y="1120" type="curve" smooth="yes"/>
      <point x="848.668" y="1120"/>
      <point x="896.335" y="1118.33"/>
      <point x="941" y="1115" type="curve"/>
      <point x="1022" y="1312" type="line"/>
      <point x="1182" y="1248" type="line"/>
      <point x="1118" y="1094" type="line"/>
      <point x="1120" y="1093.33"/>
      <point x="1122" y="1093"/>
      <point x="1124" y="1093" type="curve" smooth="yes"/>
      <point x="1394.24" y="1038.55"/>
      <point x="1502" y="870.2"/>
      <point x="1502" y="544" type="curve" smooth="yes"/>
      <point x="1502" y="78.9023"/>
      <point x="1265.02" y="-32"/>
      <point x="798" y="-32" type="curve" smooth="yes"/>
      <point x="747.333" y="-32"/>
      <point x="699.667" y="-30.333"/>
      <point x="655" y="-27" type="curve"/>
      <point x="574" y="-224" type="line"/>
      <point x="414" y="-160" type="line"/>
      <point x="477" y="-6" type="line"/>
      <point x="475.667" y="-5.33301"/>
      <point x="474" y="-5"/>
    </contour>
    <contour>
      <point x="286" y="544" type="curve" smooth="yes"/>
      <point x="286" y="295.819"/>
      <point x="325.926" y="178.113"/>
      <point x="538" y="141" type="curve"/>
      <point x="876" y="959" type="line"/>
      <point x="851.333" y="959.667"/>
      <point x="825.333" y="960"/>
      <point x="798" y="960" type="curve" smooth="yes"/>
      <point x="551.21" y="960"/>
      <point x="369.632" y="954.979"/>
      <point x="312" y="771" type="curve" smooth="yes"/>
      <point x="294.667" y="715.667"/>
      <point x="286" y="640"/>
    </contour>
    <contour>
      <point x="798" y="128" type="line" smooth="yes"/>
      <point x="1044.79" y="128"/>
      <point x="1226.37" y="133.021"/>
      <point x="1284" y="317" type="curve" smooth="yes"/>
      <point x="1301.33" y="372.333"/>
      <point x="1310" y="448"/>
      <point x="1310" y="544" type="curve" smooth="yes"/>
      <point x="1310" y="785.537"/>
      <point x="1262.07" y="917.386"/>
      <point x="1057" y="946" type="curve"/>
      <point x="719" y="128" type="line"/>
    </contour>
  </outline>
</glyph>
<glyph name="thorn" format="1">
  <advance width="1658"/>
  <unicode hex="00FE"/>
  <outline>
    <contour>
      <point x="1554" y="544" type="curve" smooth="yes"/>
      <point x="1554" y="1009.1"/>
      <point x="1317.02" y="1120"/>
      <point x="850" y="1120" type="curve" smooth="yes"/>
      <point x="641.614" y="1120"/>
      <point x="411.027" y="1089.52"/>
      <point x="338" y="961" type="curve"/>
      <point x="338" y="1536" type="line"/>
      <point x="146" y="1536" type="line"/>
      <point x="146" y="-384" type="line"/>
      <point x="338" y="-384" type="line"/>
      <point x="338" y="128" type="line"/>
      <point x="410.043" y="-1.67676"/>
      <point x="641.48" y="-32"/>
      <point x="850" y="-32" type="curve" smooth="yes"/>
      <point x="1317.02" y="-32"/>
      <point x="1554" y="78.8848"/>
    </contour>
    <contour>
      <point x="850" y="960" type="curve" smooth="yes"/>
      <point x="1129.71" y="960"/>
      <point x="1330.18" y="950.186"/>
      <point x="1355.5" y="697" type="curve" smooth="yes"/>
      <point x="1359.83" y="653.667"/>
      <point x="1362" y="602.667"/>
      <point x="1362" y="544" type="curve" smooth="yes"/>
      <point x="1362" y="263.976"/>
      <point x="1305.2" y="155.37"/>
      <point x="1043.5" y="134.5" type="curve" smooth="yes"/>
      <point x="989.167" y="130.167"/>
      <point x="924.667" y="128"/>
      <point x="850" y="128" type="curve" smooth="yes"/>
      <point x="572.495" y="128"/>
      <point x="389.46" y="143.457"/>
      <point x="349.5" y="381.5" type="curve" smooth="yes"/>
      <point x="341.833" y="427.167"/>
      <point x="338" y="482.333"/>
      <point x="338" y="547" type="curve" smooth="yes"/>
      <point x="338" y="907.68"/>
      <point x="486.363" y="960"/>
    </contour>
  </outline>
</glyph>
<glyph name="dcroat" format="1">
  <advance width="1670"/>
  <unicode hex="0111"/>
  <outline>
    <contour>
      <point x="796" y="1120" type="curve" smooth="yes"/>
      <point x="1004.55" y="1120"/>
      <point x="1235.95" y="1089.69"/>
      <point x="1308" y="960" type="curve"/>
      <point x="1308" y="1249" type="line"/>
      <point x="860" y="1249" type="line"/>
      <point x="860" y="1409" type="line"/>
      <point x="1308" y="1409" type="line"/>
      <point x="1308" y="1536" type="line"/>
      <point x="1500" y="1536" type="line"/>
      <point x="1500" y="1409" type="line"/>
      <point x="1628" y="1409" type="line"/>
      <point x="1628" y="1249" type="line"/>
      <point x="1500" y="1249" type="line"/>
      <point x="1500" y="0" type="line"/>
      <point x="1308" y="0" type="line"/>
      <point x="1308" y="127" type="line"/>
      <point x="1235.91" y="-2.77148"/>
      <point x="1004.79" y="-32"/>
      <point x="796" y="-32" type="curve" smooth="yes"/>
      <point x="328.984" y="-32"/>
      <point x="92" y="78.8848"/>
      <point x="92" y="544" type="curve" smooth="yes"/>
      <point x="92" y="1009.1"/>
      <point x="328.979" y="1120"/>
    </contour>
    <contour>
      <point x="796" y="128" type="curve" smooth="yes"/>
      <point x="1071.05" y="128"/>
      <point x="1256.66" y="142.421"/>
      <point x="1296.5" y="378" type="curve" smooth="yes"/>
      <point x="1304.17" y="423.333"/>
      <point x="1308" y="477.667"/>
      <point x="1308" y="541" type="curve" smooth="yes"/>
      <point x="1308" y="904.915"/>
      <point x="1162.97" y="960"/>
      <point x="796" y="960" type="curve" smooth="yes"/>
      <point x="516.287" y="960"/>
      <point x="315.818" y="950.186"/>
      <point x="290.5" y="697" type="curve" smooth="yes"/>
      <point x="286.167" y="653.667"/>
      <point x="284" y="602.667"/>
      <point x="284" y="544" type="curve" smooth="yes"/>
      <point x="284" y="263.976"/>
      <point x="340.8" y="155.37"/>
      <point x="602.5" y="134.5" type="curve" smooth="yes"/>
      <point x="656.833" y="130.167"/>
      <point x="721.333" y="128"/>
    </contour>
  </outline>
</glyph>
<glyph name="dotlessi" format="1">
  <advance width="465"/>
  <unicode hex="0131"/>
  <outline>
    <contour>
      <point x="137" y="0" type="line"/>
      <point x="329" y="0" type="line"/>
      <point x="329" y="1088" type="line"/>
      <point x="137" y="1088" type="line"/>
    </contour>
  </outline>
</glyph>
<glyph name="kgreenlandic" format="1">
  <advance width="1442"/>
  <unicode hex="0138"/>
  <outline>
    <contour>
      <point x="147" y="0" type="line"/>
      <point x="339" y="0" type="line"/>
      <point x="339" y="512" type="line"/>
      <point x="403" y="512" type="line"/>
      <point x="1139" y="0" type="line"/>
      <point x="1427" y="0" type="line"/>
      <point x="579" y="576" type="line"/>
      <point x="1395" y="1088" type="line"/>
      <point x="1107" y="1088" type="line"/>
      <point x="403" y="656" type="line"/>
      <point x="339" y="656" type="line"/>
      <point x="339" y="1536" type="line"/>
      <point x="147" y="1536" type="line"/>
    </contour>
  </outline>
</glyph>
<glyph name="Lslash" format="1">
  <advance width="1647"/>
  <unicode hex="0141"/>
  <outline>
    <contour>
      <point x="65" y="768" type="line"/>
      <point x="769" y="928" type="line"/>
      <point x="769" y="1088" type="line"/>
      <point x="65" y="928" type="line"/>
    </contour>
    <contour>
      <point x="1601" y="0" type="line"/>
      <point x="1601" y="160" type="line"/>
      <point x="385" y="160" type="line"/>
      <point x="385" y="1536" type="line"/>
      <point x="193" y="1536" type="line"/>
      <point x="193" y="0" type="line"/>
    </contour>
  </outline>
</glyph>
<glyph name="lslash" format="1">
  <advance width="705"/>
  <unicode hex="0142"/>
  <outline>
    <contour>
      <point x="65" y="768" type="line"/>
      <point x="641" y="928" type="line"/>
      <point x="641" y="1088" type="line"/>
      <point x="65" y="928" type="line"/>
    </contour>
    <contour>
      <point x="193" y="0" type="line"/>
      <point x="385" y="0" type="line"/>
      <point x="385" y="1536" type="line"/>
      <point x="193" y="1536" type="line"/>
    </contour>
  </outline>
</glyph>
<glyph name="OE" format="1">
  <advance width="3525"/>
  <unicode hex="0152"/>
  <outline>
    <contour>
      <point x="1388" y="1564" type="line" smooth="yes"/>
      <point x="1407.02" y="1564.41"/>
      <point x="1425.69" y="1564.63"/>
      <point x="1444" y="1564.63" type="curve" smooth="yes"/>
      <point x="1634.3" y="1564.63"/>
      <point x="1786.34" y="1541.33"/>
      <point x="1899" y="1472" type="curve"/>
      <point x="1899" y="1536" type="line"/>
      <point x="3435" y="1536" type="line"/>
      <point x="3435" y="1376" type="line"/>
      <point x="2091" y="1376" type="line"/>
      <point x="2091" y="864" type="line"/>
      <point x="3371" y="864" type="line"/>
      <point x="3371" y="704" type="line"/>
      <point x="2091" y="704" type="line"/>
      <point x="2091" y="160" type="line"/>
      <point x="3435" y="160" type="line"/>
      <point x="3435" y="0" type="line"/>
      <point x="1899" y="0" type="line"/>
      <point x="1899" y="64" type="line"/>
      <point x="1775.46" y="-12.0234"/>
      <point x="1603.73" y="-32"/>
      <point x="1388" y="-32" type="curve" smooth="yes"/>
      <point x="810.002" y="-32" type="line" smooth="yes"/>
      <point x="347.174" y="-32"/>
      <point x="121.995" y="72.2344"/>
      <point x="110.002" y="520" type="curve" smooth="yes"/>
      <point x="108.002" y="594.667"/>
      <point x="107.002" y="677.334"/>
      <point x="107.002" y="768" type="curve" smooth="yes"/>
      <point x="107" y="792.617" type="line" smooth="yes"/>
      <point x="107" y="1107.46"/>
      <point x="109.598" y="1366.95"/>
      <point x="315.002" y="1481.5" type="curve" smooth="yes"/>
      <point x="425.886" y="1543.34"/>
      <point x="571.891" y="1564.69"/>
      <point x="751.897" y="1564.69" type="curve" smooth="yes"/>
      <point x="770.888" y="1564.69"/>
      <point x="790.256" y="1564.45"/>
      <point x="810.002" y="1564" type="curve" smooth="yes"/>
    </contour>
    <contour>
      <point x="1388" y="128" type="line" smooth="yes"/>
      <point x="1649.36" y="128"/>
      <point x="1837.33" y="129.569"/>
      <point x="1880" y="346" type="curve" smooth="yes"/>
      <point x="1896.94" y="431.883"/>
      <point x="1899.45" y="525.854"/>
      <point x="1899.45" y="630.156" type="curve" smooth="yes"/>
      <point x="1899.45" y="674.206"/>
      <point x="1899" y="720.098"/>
      <point x="1899" y="768" type="curve" smooth="yes"/>
      <point x="1899" y="833.855"/>
      <point x="1900.58" y="897.305"/>
      <point x="1900.58" y="956.92" type="curve" smooth="yes"/>
      <point x="1900.58" y="1201.46"/>
      <point x="1874.06" y="1381.49"/>
      <point x="1603.5" y="1398.5" type="curve" smooth="yes"/>
      <point x="1545.17" y="1402.17"/>
      <point x="1473.33" y="1404"/>
      <point x="1388" y="1404" type="curve" smooth="yes"/>
      <point x="810.002" y="1404" type="line"/>
      <point x="773.019" y="1405.16"/>
      <point x="737.503" y="1406"/>
      <point x="703.66" y="1406" type="curve" smooth="yes"/>
      <point x="497.527" y="1406"/>
      <point x="353.396" y="1374.57"/>
      <point x="317.002" y="1190" type="curve" smooth="yes"/>
      <point x="301.002" y="1108.86"/>
      <point x="298.315" y="1020.45"/>
      <point x="298.315" y="922.983" type="curve" smooth="yes"/>
      <point x="298.315" y="873.715"/>
      <point x="299.002" y="822.132"/>
      <point x="299.002" y="768" type="curve" smooth="yes"/>
      <point x="299.002" y="699.456"/>
      <point x="296.53" y="629.598"/>
      <point x="296.53" y="562.643" type="curve" smooth="yes"/>
      <point x="296.53" y="380.914"/>
      <point x="314.739" y="220.58"/>
      <point x="450.002" y="166" type="curve" smooth="yes"/>
      <point x="543.896" y="128.112"/>
      <point x="663.665" y="128"/>
      <point x="807.416" y="128" type="curve" smooth="yes"/>
    </contour>
  </outline>
</glyph>
<glyph name="oe" format="1">
  <advance width="2758"/>
  <unicode hex="0153"/>
  <outline>
    <contour>
      <point x="795" y="1120" type="curve" smooth="yes"/>
      <point x="327.984" y="1120"/>
      <point x="91" y="1009.12"/>
      <point x="91" y="544" type="curve" smooth="yes"/>
      <point x="91" y="78.9023"/>
      <point x="327.979" y="-32"/>
      <point x="795" y="-32" type="curve" smooth="yes"/>
      <point x="1048.67" y="-32"/>
      <point x="1320.04" y="26.0742"/>
      <point x="1403" y="192" type="curve"/>
      <point x="1486.47" y="25.0635"/>
      <point x="1761.56" y="-34.4199"/>
      <point x="2030.79" y="-34.4199" type="curve" smooth="yes"/>
      <point x="2351.75" y="-34.4199"/>
      <point x="2651" y="1.45898"/>
      <point x="2651" y="320" type="curve"/>
      <point x="2459" y="320" type="line"/>
      <point x="2459" y="139.875"/>
      <point x="2287.43" y="127.703"/>
      <point x="2099.64" y="127.703" type="curve" smooth="yes"/>
      <point x="2070.29" y="127.703"/>
      <point x="2040.55" y="128"/>
      <point x="2011" y="128" type="curve" smooth="yes"/>
      <point x="1772.02" y="128"/>
      <point x="1584.04" y="129.799"/>
      <point x="1525" y="303.5" type="curve" smooth="yes"/>
      <point x="1507.67" y="354.5"/>
      <point x="1499" y="424"/>
      <point x="1499" y="512" type="curve"/>
      <point x="2635" y="512" type="line"/>
      <point x="2651" y="576" type="line"/>
      <point x="2651" y="992.775"/>
      <point x="2431.11" y="1120"/>
      <point x="2011" y="1120" type="curve" smooth="yes"/>
      <point x="1794.96" y="1120"/>
      <point x="1587.51" y="1078.72"/>
      <point x="1467.5" y="985" type="curve" smooth="yes"/>
      <point x="1432.5" y="957.667"/>
      <point x="1411" y="928"/>
      <point x="1403" y="896" type="curve"/>
      <point x="1357.47" y="1070.53"/>
      <point x="1019.96" y="1120"/>
    </contour>
    <contour>
      <point x="283" y="544" type="curve" smooth="yes"/>
      <point x="283" y="793.374"/>
      <point x="335.168" y="924.55"/>
      <point x="553" y="949" type="curve" smooth="yes"/>
      <point x="618.333" y="956.333"/>
      <point x="699" y="960"/>
      <point x="795" y="960" type="curve" smooth="yes"/>
      <point x="1041.79" y="960"/>
      <point x="1223.37" y="954.979"/>
      <point x="1281" y="771" type="curve" smooth="yes"/>
      <point x="1298.33" y="715.667"/>
      <point x="1307" y="640"/>
      <point x="1307" y="544" type="curve" smooth="yes"/>
      <point x="1307" y="294.626"/>
      <point x="1254.83" y="163.45"/>
      <point x="1037" y="139" type="curve" smooth="yes"/>
      <point x="971.667" y="131.667"/>
      <point x="891" y="128"/>
      <point x="795.001" y="128" type="curve" smooth="yes"/>
      <point x="513.979" y="128"/>
      <point x="317.219" y="138.251"/>
      <point x="290" y="391" type="curve" smooth="yes"/>
      <point x="285.333" y="434.333"/>
      <point x="283" y="485.333"/>
    </contour>
    <contour>
      <point x="1499" y="640" type="line"/>
      <point x="1499" y="951.957"/>
      <point x="1696.81" y="960"/>
      <point x="2011" y="960" type="curve" smooth="yes"/>
      <point x="2288.67" y="960"/>
      <point x="2459" y="915.978"/>
      <point x="2459" y="640" type="curve"/>
    </contour>
  </outline>
</glyph>
<glyph name="scedilla" format="1">
  <advance width="1549"/>
  <unicode hex="015F"/>
  <outline>
    <contour>
      <point x="600.654" y="510.858" type="curve" smooth="yes"/>
      <point x="295.688" y="510.858"/>
      <point x="100" y="546.841"/>
      <point x="100" y="860" type="curve" smooth="yes"/>
      <point x="100" y="1176.37"/>
      <point x="471.11" y="1184"/>
      <point x="804" y="1184" type="curve" smooth="yes"/>
      <point x="1138.44" y="1184"/>
      <point x="1444" y="1169.05"/>
      <point x="1444" y="848" type="curve"/>
      <point x="1252" y="848" type="line"/>
      <point x="1252" y="1011.95"/>
      <point x="1077.62" y="1024.4"/>
      <point x="899.254" y="1024.4" type="curve" smooth="yes"/>
      <point x="867.305" y="1024.4"/>
      <point x="835.227" y="1024"/>
      <point x="804" y="1024" type="curve" smooth="yes"/>
      <point x="747.591" y="1024"/>
      <point x="685.423" y="1026.47"/>
      <point x="624.43" y="1026.47" type="curve" smooth="yes"/>
      <point x="453.603" y="1026.47"/>
      <point x="292" y="1007.11"/>
      <point x="292" y="860" type="curve" smooth="yes"/>
      <point x="292" y="692.631"/>
      <point x="406.747" y="667.015"/>
      <point x="557.739" y="667.015" type="curve" smooth="yes"/>
      <point x="624.352" y="667.015"/>
      <point x="698.019" y="672"/>
      <point x="772" y="672" type="curve" smooth="yes"/>
      <point x="794.958" y="672"/>
      <point x="817.856" y="672.055"/>
      <point x="840.6" y="672.055" type="curve" smooth="yes"/>
      <point x="1157.34" y="672.055"/>
      <point x="1444" y="661.422"/>
      <point x="1444" y="344" type="curve" smooth="yes"/>
      <point x="1444" y="7.43066"/>
      <point x="1140.13" y="-7.79883"/>
      <point x="804" y="-11" type="curve"/>
      <point x="804" y="-203" type="line"/>
      <point x="934.236" y="-203"/>
      <point x="1060" y="-233.236"/>
      <point x="1060" y="-363" type="curve" smooth="yes"/>
      <point x="1060" y="-577.104"/>
      <point x="888.142" y="-619"/>
      <point x="676" y="-619" type="curve"/>
      <point x="676" y="-459" type="line"/>
      <point x="688.425" y="-459"/>
      <point x="700.629" y="-459.101"/>
      <point x="712.486" y="-459.101" type="curve" smooth="yes"/>
      <point x="799.6" y="-459.101"/>
      <point x="868" y="-453.669"/>
      <point x="868" y="-363" type="curve" smooth="yes"/>
      <point x="868" y="-303.528"/>
      <point x="790.763" y="-298.835"/>
      <point x="716.744" y="-298.835" type="curve" smooth="yes"/>
      <point x="702.873" y="-298.835"/>
      <point x="689.115" y="-299"/>
      <point x="676" y="-299" type="curve"/>
      <point x="676" y="-11" type="line"/>
      <point x="373.76" y="-4.47656"/>
      <point x="100" y="21.0049"/>
      <point x="100" y="320" type="curve"/>
      <point x="292" y="320" type="line"/>
      <point x="292" y="139.875"/>
      <point x="463.568" y="127.703"/>
      <point x="651.359" y="127.703" type="curve" smooth="yes"/>
      <point x="680.708" y="127.703"/>
      <point x="710.452" y="128"/>
      <point x="740" y="128" type="curve" smooth="yes"/>
      <point x="790.129" y="128"/>
      <point x="841.722" y="126.579"/>
      <point x="891.966" y="126.579" type="curve" smooth="yes"/>
      <point x="1081.59" y="126.579"/>
      <point x="1252" y="146.812"/>
      <point x="1252" y="340" type="curve" smooth="yes"/>
      <point x="1252" y="494.977"/>
      <point x="1098.3" y="514.023"/>
      <point x="932.742" y="514.023" type="curve" smooth="yes"/>
      <point x="878.784" y="514.023"/>
      <point x="823.566" y="512"/>
      <point x="772" y="512" type="curve" smooth="yes"/>
      <point x="715.352" y="512"/>
      <point x="657.477" y="510.858"/>
    </contour>
  </outline>
</glyph>
<glyph name="florin" format="1">
  <advance width="1010"/>
  <unicode hex="0192"/>
  <outline>
    <contour>
      <point x="32.8184" y="-128.127" type="curve" smooth="yes"/>
      <point x="233.355" y="-128.127"/>
      <point x="298" y="-83.7148"/>
      <point x="298" y="128" type="curve" smooth="yes"/>
      <point x="298" y="960" type="line"/>
      <point x="106" y="960" type="line"/>
      <point x="106" y="1088" type="line"/>
      <point x="298" y="1088" type="line"/>
      <point x="298" y="1152" type="line" smooth="yes"/>
      <point x="298" y="1491.52"/>
      <point x="469.146" y="1568"/>
      <point x="811" y="1568" type="curve" smooth="yes"/>
      <point x="938" y="1568" type="line"/>
      <point x="938" y="1408" type="line"/>
      <point x="810" y="1408" type="line" smooth="yes"/>
      <point x="791.151" y="1408"/>
      <point x="772.85" y="1408.13"/>
      <point x="755.183" y="1408.13" type="curve" smooth="yes"/>
      <point x="554.645" y="1408.13"/>
      <point x="490" y="1363.71"/>
      <point x="490" y="1152" type="curve" smooth="yes"/>
      <point x="490" y="1088" type="line"/>
      <point x="938" y="1088" type="line"/>
      <point x="938" y="960" type="line"/>
      <point x="490" y="960" type="line"/>
      <point x="490" y="128" type="line" smooth="yes"/>
      <point x="490" y="-211.038"/>
      <point x="318.846" y="-288"/>
      <point x="-23" y="-288" type="curve"/>
      <point x="-22" y="-128" type="line"/>
      <point x="-3.15137" y="-128"/>
      <point x="15.1504" y="-128.127"/>
    </contour>
  </outline>
</glyph>
<glyph name="dotlessj" format="1">
  <advance width="477"/>
  <unicode hex="0237"/>
  <outline>
    <contour>
      <point x="-13" y="-384" type="line"/>
      <point x="240.806" y="-384"/>
      <point x="339" y="-312.032"/>
      <point x="339" y="-64" type="curve" smooth="yes"/>
      <point x="339" y="1088" type="line"/>
      <point x="147" y="1088" type="line"/>
      <point x="147" y="-64" type="line" smooth="yes"/>
      <point x="147" y="-187.419"/>
      <point x="110.425" y="-224"/>
      <point x="-13" y="-224" type="curve"/>
    </contour>
  </outline>
</glyph>
<glyph name="circumflex" format="1">
  <advance width="1017"/>
  <unicode hex="02C6"/>
  <outline>
    <contour>
      <point x="801" y="1280" type="line"/>
      <point x="929" y="1376" type="line"/>
      <point x="609" y="1856" type="line"/>
      <point x="417" y="1856" type="line"/>
      <point x="97" y="1376" type="line"/>
      <point x="225" y="1280" type="line"/>
      <point x="513" y="1728" type="line"/>
    </contour>
  </outline>
</glyph>
<glyph name="caron" format="1">
  <advance width="916"/>
  <unicode hex="02C7"/>
  <outline>
    <contour>
      <point x="460" y="1408" type="line"/>
      <point x="172" y="1856" type="line"/>
      <point x="44" y="1760" type="line"/>
      <point x="364" y="1280" type="line"/>
      <point x="556" y="1280" type="line"/>
      <point x="876" y="1760" type="line"/>
      <point x="748" y="1856" type="line"/>
    </contour>
  </outline>
</glyph>
<glyph name="breve" format="1">
  <advance width="948"/>
  <unicode hex="02D8"/>
  <outline>
    <contour>
      <point x="481" y="1408" type="curve" smooth="yes"/>
      <point x="323.027" y="1408"/>
      <point x="257" y="1438.68"/>
      <point x="257" y="1600" type="curve"/>
      <point x="97" y="1600" type="line"/>
      <point x="97" y="1364.5"/>
      <point x="238.381" y="1280"/>
      <point x="481" y="1280" type="curve" smooth="yes"/>
      <point x="723.671" y="1280"/>
      <point x="865" y="1364.47"/>
      <point x="865" y="1600" type="curve"/>
      <point x="705" y="1600" type="line"/>
      <point x="705" y="1438.69"/>
      <point x="638.99" y="1408"/>
    </contour>
  </outline>
</glyph>
<glyph name="dotaccent" format="1">
  <advance width="405"/>
  <unicode hex="02D9"/>
  <outline>
    <contour>
      <point x="305" y="1536" type="line"/>
      <point x="113" y="1536" type="line"/>
      <point x="113" y="1344" type="line"/>
      <point x="305" y="1344" type="line"/>
    </contour>
  </outline>
</glyph>
<glyph name="ring" format="1">
  <advance width="886"/>
  <unicode hex="02DA"/>
  <outline>
    <contour>
      <point x="802" y="1600" type="curve" smooth="yes"/>
      <point x="802" y="1807.61"/>
      <point x="663.313" y="1920"/>
      <point x="450" y="1920" type="curve" smooth="yes"/>
      <point x="236.668" y="1920"/>
      <point x="98" y="1807.62"/>
      <point x="98" y="1600" type="curve" smooth="yes"/>
      <point x="98" y="1392.39"/>
      <point x="236.687" y="1280"/>
      <point x="450" y="1280" type="curve" smooth="yes"/>
      <point x="663.332" y="1280"/>
      <point x="802" y="1392.38"/>
    </contour>
    <contour>
      <point x="642" y="1600" type="curve" smooth="yes"/>
      <point x="642" y="1472.19"/>
      <point x="581.214" y="1408"/>
      <point x="450" y="1408" type="curve" smooth="yes"/>
      <point x="318.781" y="1408"/>
      <point x="258" y="1472.18"/>
      <point x="258" y="1600" type="curve" smooth="yes"/>
      <point x="258" y="1727.81"/>
      <point x="318.786" y="1792"/>
      <point x="450" y="1792" type="curve" smooth="yes"/>
      <point x="581.219" y="1792"/>
      <point x="642" y="1727.82"/>
    </contour>
  </outline>
</glyph>
<glyph name="ogonek" format="1">
  <advance width="555"/>
  <unicode hex="02DB"/>
  <outline>
    <contour>
      <point x="265" y="-224" type="curve" smooth="yes"/>
      <point x="265" y="-330.353"/>
      <point x="342.706" y="-352"/>
      <point x="457" y="-352" type="curve"/>
      <point x="457" y="-512" type="line"/>
      <point x="260.608" y="-512"/>
      <point x="73" y="-451.55"/>
      <point x="73" y="-256" type="curve" smooth="yes"/>
      <point x="73" y="-92.6289"/>
      <point x="219.361" y="4.6123"/>
      <point x="329" y="64" type="curve"/>
      <point x="457" y="64" type="line"/>
      <point x="361.032" y="0.0214844"/>
      <point x="265" y="-83.8672"/>
    </contour>
  </outline>
</glyph>
<glyph name="tilde" format="1">
  <advance width="1081"/>
  <unicode hex="02DC"/>
  <outline>
    <contour>
      <point x="297" y="1344" type="line"/>
      <point x="297" y="1402.71"/>
      <point x="304.233" y="1440"/>
      <point x="361" y="1440" type="curve" smooth="yes"/>
      <point x="506.575" y="1440"/>
      <point x="580.081" y="1344"/>
      <point x="745" y="1344" type="curve" smooth="yes"/>
      <point x="895.56" y="1344"/>
      <point x="1001" y="1444.47"/>
      <point x="1001" y="1600" type="curve"/>
      <point x="809" y="1600" type="line"/>
      <point x="809" y="1541.96"/>
      <point x="801.377" y="1504"/>
      <point x="745" y="1504" type="curve" smooth="yes"/>
      <point x="598.966" y="1504"/>
      <point x="526.609" y="1601"/>
      <point x="361" y="1601" type="curve" smooth="yes"/>
      <point x="207.171" y="1601"/>
      <point x="105" y="1502.93"/>
      <point x="105" y="1344" type="curve"/>
    </contour>
  </outline>
</glyph>
<glyph name="hungarumlaut" format="1">
  <advance width="1391"/>
  <unicode hex="02DD"/>
  <outline>
    <contour>
      <point x="800" y="1664" type="line"/>
      <point x="672" y="1856" type="line"/>
      <point x="96" y="1376" type="line"/>
      <point x="160" y="1280" type="line"/>
    </contour>
    <contour>
      <point x="1353" y="1664" type="line"/>
      <point x="1225" y="1856" type="line"/>
      <point x="649" y="1376" type="line"/>
      <point x="713" y="1280" type="line"/>
    </contour>
  </outline>
</glyph>
<glyph name="uni03A9" format="1">
  <advance width="1499"/>
  <unicode hex="03A9"/>
  <outline>
    <contour>
      <point x="334" y="671" type="curve" smooth="yes"/>
      <point x="334" y="427.073"/>
      <point x="362.371" y="224"/>
      <point x="590" y="224" type="curve"/>
      <point x="590" y="0" type="line"/>
      <point x="206" y="0" type="line"/>
      <point x="206" y="160" type="line"/>
      <point x="398" y="160" type="line"/>
      <point x="210.673" y="227.56"/>
      <point x="142" y="411.646"/>
      <point x="142" y="671" type="curve" smooth="yes"/>
      <point x="142" y="1145.91"/>
      <point x="270.71" y="1342"/>
      <point x="750" y="1342" type="curve" smooth="yes"/>
      <point x="1224.63" y="1342"/>
      <point x="1358" y="1149.43"/>
      <point x="1358" y="671" type="curve" smooth="yes"/>
      <point x="1358" y="411.626"/>
      <point x="1289.33" y="227.57"/>
      <point x="1102" y="160" type="curve"/>
      <point x="1294" y="160" type="line"/>
      <point x="1294" y="0" type="line"/>
      <point x="910" y="0" type="line"/>
      <point x="910" y="224" type="line"/>
      <point x="1137.61" y="224"/>
      <point x="1166" y="427.112"/>
      <point x="1166" y="671" type="curve" smooth="yes"/>
      <point x="1166" y="955.852"/>
      <point x="1163.88" y="1169.54"/>
      <point x="892" y="1180.5" type="curve" smooth="yes"/>
      <point x="850.665" y="1182.17"/>
      <point x="803.332" y="1183"/>
      <point x="750" y="1183" type="curve" smooth="yes"/>
      <point x="553.161" y="1183"/>
      <point x="421.489" y="1180.04"/>
      <point x="370.5" y="1031" type="curve" smooth="yes"/>
      <point x="337.275" y="933.883"/>
      <point x="334" y="814.946"/>
    </contour>
  </outline>
</glyph>
<glyph name="pi" format="1">
  <advance width="499"/>
  <unicode hex="03C0"/>
  <outline>
    <contour>
      <point x="154" y="1088" type="line"/>
      <point x="346" y="1088" type="line"/>
      <point x="346" y="0" type="line"/>
      <point x="154" y="0" type="line"/>
    </contour>
    <contour>
      <point x="346" y="1344" type="line"/>
      <point x="154" y="1344" type="line"/>
      <point x="154" y="1536" type="line"/>
      <point x="346" y="1536" type="line"/>
    </contour>
    <contour>
      <point x="154" y="1088" type="line"/>
      <point x="346" y="1088" type="line"/>
      <point x="346" y="0" type="line"/>
      <point x="154" y="0" type="line"/>
    </contour>
    <contour>
      <point x="346" y="1344" type="line"/>
      <point x="154" y="1344" type="line"/>
      <point x="154" y="1536" type="line"/>
      <point x="346" y="1536" type="line"/>
    </contour>
  </outline>
</glyph>
